%TF.GenerationSoftware,KiCad,Pcbnew,9.0.4*%
%TF.CreationDate,2026-01-22T20:08:26+13:00*%
%TF.ProjectId,2364replacement,32333634-7265-4706-9c61-63656d656e74,rev?*%
%TF.SameCoordinates,Original*%
%TF.FileFunction,Copper,L1,Top*%
%TF.FilePolarity,Positive*%
%FSLAX46Y46*%
G04 Gerber Fmt 4.6, Leading zero omitted, Abs format (unit mm)*
G04 Created by KiCad (PCBNEW 9.0.4) date 2026-01-22 20:08:26*
%MOMM*%
%LPD*%
G01*
G04 APERTURE LIST*
G04 Aperture macros list*
%AMRoundRect*
0 Rectangle with rounded corners*
0 $1 Rounding radius*
0 $2 $3 $4 $5 $6 $7 $8 $9 X,Y pos of 4 corners*
0 Add a 4 corners polygon primitive as box body*
4,1,4,$2,$3,$4,$5,$6,$7,$8,$9,$2,$3,0*
0 Add four circle primitives for the rounded corners*
1,1,$1+$1,$2,$3*
1,1,$1+$1,$4,$5*
1,1,$1+$1,$6,$7*
1,1,$1+$1,$8,$9*
0 Add four rect primitives between the rounded corners*
20,1,$1+$1,$2,$3,$4,$5,0*
20,1,$1+$1,$4,$5,$6,$7,0*
20,1,$1+$1,$6,$7,$8,$9,0*
20,1,$1+$1,$8,$9,$2,$3,0*%
G04 Aperture macros list end*
%TA.AperFunction,ComponentPad*%
%ADD10R,1.700000X1.700000*%
%TD*%
%TA.AperFunction,ComponentPad*%
%ADD11C,1.700000*%
%TD*%
%TA.AperFunction,ComponentPad*%
%ADD12RoundRect,0.250000X-0.550000X-0.550000X0.550000X-0.550000X0.550000X0.550000X-0.550000X0.550000X0*%
%TD*%
%TA.AperFunction,ComponentPad*%
%ADD13C,1.600000*%
%TD*%
G04 APERTURE END LIST*
D10*
%TO.P,J3,1,Pin_1*%
%TO.N,A7*%
X134300000Y-76200000D03*
D11*
%TO.P,J3,2,Pin_2*%
%TO.N,A6*%
X134300000Y-78740000D03*
%TO.P,J3,3,Pin_3*%
%TO.N,A5*%
X134300000Y-81280000D03*
%TO.P,J3,4,Pin_4*%
%TO.N,A4*%
X134300000Y-83820000D03*
%TO.P,J3,5,Pin_5*%
%TO.N,A3*%
X134300000Y-86360000D03*
%TO.P,J3,6,Pin_6*%
%TO.N,A2*%
X134300000Y-88900000D03*
%TO.P,J3,7,Pin_7*%
%TO.N,A1*%
X134300000Y-91440000D03*
%TO.P,J3,8,Pin_8*%
%TO.N,A0*%
X134300000Y-93980000D03*
%TO.P,J3,9,Pin_9*%
%TO.N,D0*%
X134300000Y-96520000D03*
%TO.P,J3,10,Pin_10*%
%TO.N,D1*%
X134300000Y-99060000D03*
%TO.P,J3,11,Pin_11*%
%TO.N,D2*%
X134300000Y-101600000D03*
%TO.P,J3,12,Pin_12*%
%TO.N,GND*%
X134300000Y-104140000D03*
%TD*%
D10*
%TO.P,J2,1,Pin_1*%
%TO.N,VCC*%
X149540000Y-76200000D03*
D11*
%TO.P,J2,2,Pin_2*%
%TO.N,A8*%
X149540000Y-78740000D03*
%TO.P,J2,3,Pin_3*%
%TO.N,A9*%
X149540000Y-81280000D03*
%TO.P,J2,4,Pin_4*%
%TO.N,A12*%
X149540000Y-83820000D03*
%TO.P,J2,5,Pin_5*%
%TO.N,nCS*%
X149540000Y-86360000D03*
%TO.P,J2,6,Pin_6*%
%TO.N,A10*%
X149540000Y-88900000D03*
%TO.P,J2,7,Pin_7*%
%TO.N,A11*%
X149540000Y-91440000D03*
%TO.P,J2,8,Pin_8*%
%TO.N,D7*%
X149540000Y-93980000D03*
%TO.P,J2,9,Pin_9*%
%TO.N,D6*%
X149540000Y-96520000D03*
%TO.P,J2,10,Pin_10*%
%TO.N,D5*%
X149540000Y-99060000D03*
%TO.P,J2,11,Pin_11*%
%TO.N,D4*%
X149540000Y-101600000D03*
%TO.P,J2,12,Pin_12*%
%TO.N,D3*%
X149540000Y-104140000D03*
%TD*%
D10*
%TO.P,J4,1,Pin_1*%
%TO.N,Net-(J4-Pin_1)*%
X157957600Y-101219000D03*
D11*
%TO.P,J4,2,Pin_2*%
%TO.N,Net-(J4-Pin_2)*%
X157957600Y-103759000D03*
%TD*%
D12*
%TO.P,U2,1,VPP*%
%TO.N,unconnected-(U2-VPP-Pad1)*%
X139235200Y-71069200D03*
D13*
%TO.P,U2,2,A12*%
%TO.N,A12*%
X139235200Y-73609200D03*
%TO.P,U2,3,A7*%
%TO.N,A7*%
X139235200Y-76149200D03*
%TO.P,U2,4,A6*%
%TO.N,A6*%
X139235200Y-78689200D03*
%TO.P,U2,5,A5*%
%TO.N,A5*%
X139235200Y-81229200D03*
%TO.P,U2,6,A4*%
%TO.N,A4*%
X139235200Y-83769200D03*
%TO.P,U2,7,A3*%
%TO.N,A3*%
X139235200Y-86309200D03*
%TO.P,U2,8,A2*%
%TO.N,A2*%
X139235200Y-88849200D03*
%TO.P,U2,9,A1*%
%TO.N,A1*%
X139235200Y-91389200D03*
%TO.P,U2,10,A0*%
%TO.N,A0*%
X139235200Y-93929200D03*
%TO.P,U2,11,D0*%
%TO.N,D0*%
X139235200Y-96469200D03*
%TO.P,U2,12,D1*%
%TO.N,D1*%
X139235200Y-99009200D03*
%TO.P,U2,13,D2*%
%TO.N,D2*%
X139235200Y-101549200D03*
%TO.P,U2,14,GND*%
%TO.N,GND*%
X139235200Y-104089200D03*
%TO.P,U2,15,D3*%
%TO.N,D3*%
X154475200Y-104089200D03*
%TO.P,U2,16,D4*%
%TO.N,D4*%
X154475200Y-101549200D03*
%TO.P,U2,17,D5*%
%TO.N,D5*%
X154475200Y-99009200D03*
%TO.P,U2,18,D6*%
%TO.N,D6*%
X154475200Y-96469200D03*
%TO.P,U2,19,D7*%
%TO.N,D7*%
X154475200Y-93929200D03*
%TO.P,U2,20,~{CE}*%
%TO.N,nCS*%
X154475200Y-91389200D03*
%TO.P,U2,21,A10*%
%TO.N,A10*%
X154475200Y-88849200D03*
%TO.P,U2,22,~{OE}*%
%TO.N,Net-(J4-Pin_2)*%
X154475200Y-86309200D03*
%TO.P,U2,23,A11*%
%TO.N,A11*%
X154475200Y-83769200D03*
%TO.P,U2,24,A9*%
%TO.N,A9*%
X154475200Y-81229200D03*
%TO.P,U2,25,A8*%
%TO.N,A8*%
X154475200Y-78689200D03*
%TO.P,U2,26,NC*%
%TO.N,unconnected-(U2-NC-Pad26)*%
X154475200Y-76149200D03*
%TO.P,U2,27,~{PGM}*%
%TO.N,Net-(J4-Pin_1)*%
X154475200Y-73609200D03*
%TO.P,U2,28,VCC*%
%TO.N,VCC*%
X154475200Y-71069200D03*
%TD*%
%TA.AperFunction,Conductor*%
%TO.N,GND*%
G36*
X160605539Y-68617585D02*
G01*
X160651294Y-68670389D01*
X160662500Y-68721900D01*
X160662500Y-105420500D01*
X160642815Y-105487539D01*
X160590011Y-105533294D01*
X160538500Y-105544500D01*
X154987656Y-105544500D01*
X154920617Y-105524815D01*
X154874862Y-105472011D01*
X154864918Y-105402853D01*
X154893943Y-105339297D01*
X154949337Y-105302569D01*
X154974419Y-105294420D01*
X155156810Y-105201487D01*
X155249790Y-105133932D01*
X155322413Y-105081171D01*
X155322415Y-105081168D01*
X155322419Y-105081166D01*
X155467166Y-104936419D01*
X155467168Y-104936415D01*
X155467171Y-104936413D01*
X155531730Y-104847554D01*
X155587487Y-104770810D01*
X155680420Y-104588419D01*
X155743677Y-104393734D01*
X155775700Y-104191552D01*
X155775700Y-103986848D01*
X155756446Y-103865286D01*
X155743677Y-103784665D01*
X155690753Y-103621782D01*
X155680420Y-103589981D01*
X155680418Y-103589978D01*
X155680418Y-103589976D01*
X155646703Y-103523807D01*
X155587487Y-103407590D01*
X155555292Y-103363277D01*
X155467171Y-103241986D01*
X155322413Y-103097228D01*
X155156814Y-102976915D01*
X155150206Y-102973548D01*
X155064117Y-102929683D01*
X155013323Y-102881711D01*
X154996528Y-102813890D01*
X155019065Y-102747755D01*
X155064117Y-102708716D01*
X155156810Y-102661487D01*
X155193737Y-102634658D01*
X155322413Y-102541171D01*
X155322415Y-102541168D01*
X155322419Y-102541166D01*
X155467166Y-102396419D01*
X155467168Y-102396415D01*
X155467171Y-102396413D01*
X155528983Y-102311335D01*
X155587487Y-102230810D01*
X155680420Y-102048419D01*
X155743677Y-101853734D01*
X155775700Y-101651552D01*
X155775700Y-101446848D01*
X155743677Y-101244666D01*
X155680420Y-101049981D01*
X155680418Y-101049978D01*
X155680418Y-101049976D01*
X155600018Y-100892184D01*
X155587487Y-100867590D01*
X155579756Y-100856949D01*
X155467171Y-100701986D01*
X155322413Y-100557228D01*
X155156814Y-100436915D01*
X155139888Y-100428291D01*
X155064117Y-100389683D01*
X155013323Y-100341711D01*
X155008228Y-100321135D01*
X156607100Y-100321135D01*
X156607100Y-102116870D01*
X156607101Y-102116876D01*
X156613508Y-102176483D01*
X156663802Y-102311328D01*
X156663806Y-102311335D01*
X156750052Y-102426544D01*
X156750055Y-102426547D01*
X156865264Y-102512793D01*
X156865271Y-102512797D01*
X156996682Y-102561810D01*
X157052616Y-102603681D01*
X157077033Y-102669145D01*
X157062182Y-102737418D01*
X157041031Y-102765673D01*
X156927489Y-102879215D01*
X156802551Y-103051179D01*
X156706044Y-103240585D01*
X156640353Y-103442760D01*
X156607100Y-103652713D01*
X156607100Y-103865286D01*
X156640184Y-104074174D01*
X156640354Y-104075243D01*
X156682783Y-104205826D01*
X156706044Y-104277414D01*
X156802551Y-104466820D01*
X156927490Y-104638786D01*
X157077813Y-104789109D01*
X157249779Y-104914048D01*
X157249781Y-104914049D01*
X157249784Y-104914051D01*
X157439188Y-105010557D01*
X157641357Y-105076246D01*
X157851313Y-105109500D01*
X157851314Y-105109500D01*
X158063886Y-105109500D01*
X158063887Y-105109500D01*
X158273843Y-105076246D01*
X158476012Y-105010557D01*
X158665416Y-104914051D01*
X158756576Y-104847820D01*
X158837386Y-104789109D01*
X158837388Y-104789106D01*
X158837392Y-104789104D01*
X158987704Y-104638792D01*
X158987706Y-104638788D01*
X158987709Y-104638786D01*
X159112648Y-104466820D01*
X159112647Y-104466820D01*
X159112651Y-104466816D01*
X159209157Y-104277412D01*
X159274846Y-104075243D01*
X159308100Y-103865287D01*
X159308100Y-103652713D01*
X159274846Y-103442757D01*
X159209157Y-103240588D01*
X159112651Y-103051184D01*
X159112649Y-103051181D01*
X159112648Y-103051179D01*
X158987709Y-102879213D01*
X158874169Y-102765673D01*
X158840684Y-102704350D01*
X158845668Y-102634658D01*
X158887540Y-102578725D01*
X158918515Y-102561810D01*
X159049931Y-102512796D01*
X159165146Y-102426546D01*
X159251396Y-102311331D01*
X159301691Y-102176483D01*
X159308100Y-102116873D01*
X159308099Y-100321128D01*
X159301691Y-100261517D01*
X159284360Y-100215051D01*
X159251397Y-100126671D01*
X159251393Y-100126664D01*
X159165147Y-100011455D01*
X159165144Y-100011452D01*
X159049935Y-99925206D01*
X159049928Y-99925202D01*
X158915082Y-99874908D01*
X158915083Y-99874908D01*
X158855483Y-99868501D01*
X158855481Y-99868500D01*
X158855473Y-99868500D01*
X158855464Y-99868500D01*
X157059729Y-99868500D01*
X157059723Y-99868501D01*
X157000116Y-99874908D01*
X156865271Y-99925202D01*
X156865264Y-99925206D01*
X156750055Y-100011452D01*
X156750052Y-100011455D01*
X156663806Y-100126664D01*
X156663802Y-100126671D01*
X156613508Y-100261517D01*
X156608129Y-100311557D01*
X156607101Y-100321123D01*
X156607100Y-100321135D01*
X155008228Y-100321135D01*
X154996528Y-100273890D01*
X155019065Y-100207755D01*
X155064117Y-100168716D01*
X155156810Y-100121487D01*
X155177970Y-100106113D01*
X155322413Y-100001171D01*
X155322415Y-100001168D01*
X155322419Y-100001166D01*
X155467166Y-99856419D01*
X155467168Y-99856415D01*
X155467171Y-99856413D01*
X155531539Y-99767816D01*
X155587487Y-99690810D01*
X155680420Y-99508419D01*
X155743677Y-99313734D01*
X155775700Y-99111552D01*
X155775700Y-98906848D01*
X155743677Y-98704666D01*
X155680420Y-98509981D01*
X155680418Y-98509978D01*
X155680418Y-98509976D01*
X155600018Y-98352184D01*
X155587487Y-98327590D01*
X155579756Y-98316949D01*
X155467171Y-98161986D01*
X155322413Y-98017228D01*
X155156814Y-97896915D01*
X155150206Y-97893548D01*
X155064117Y-97849683D01*
X155013323Y-97801711D01*
X154996528Y-97733890D01*
X155019065Y-97667755D01*
X155064117Y-97628716D01*
X155156810Y-97581487D01*
X155177970Y-97566113D01*
X155322413Y-97461171D01*
X155322415Y-97461168D01*
X155322419Y-97461166D01*
X155467166Y-97316419D01*
X155467168Y-97316415D01*
X155467171Y-97316413D01*
X155531539Y-97227816D01*
X155587487Y-97150810D01*
X155680420Y-96968419D01*
X155743677Y-96773734D01*
X155775700Y-96571552D01*
X155775700Y-96366848D01*
X155743677Y-96164666D01*
X155680420Y-95969981D01*
X155680418Y-95969978D01*
X155680418Y-95969976D01*
X155600018Y-95812184D01*
X155587487Y-95787590D01*
X155579756Y-95776949D01*
X155467171Y-95621986D01*
X155322413Y-95477228D01*
X155156814Y-95356915D01*
X155150206Y-95353548D01*
X155064117Y-95309683D01*
X155013323Y-95261711D01*
X154996528Y-95193890D01*
X155019065Y-95127755D01*
X155064117Y-95088716D01*
X155156810Y-95041487D01*
X155177970Y-95026113D01*
X155322413Y-94921171D01*
X155322415Y-94921168D01*
X155322419Y-94921166D01*
X155467166Y-94776419D01*
X155467168Y-94776415D01*
X155467171Y-94776413D01*
X155531539Y-94687816D01*
X155587487Y-94610810D01*
X155680420Y-94428419D01*
X155743677Y-94233734D01*
X155775700Y-94031552D01*
X155775700Y-93826848D01*
X155743677Y-93624666D01*
X155680420Y-93429981D01*
X155680418Y-93429978D01*
X155680418Y-93429976D01*
X155600018Y-93272184D01*
X155587487Y-93247590D01*
X155579756Y-93236949D01*
X155467171Y-93081986D01*
X155322413Y-92937228D01*
X155156814Y-92816915D01*
X155150206Y-92813548D01*
X155064117Y-92769683D01*
X155013323Y-92721711D01*
X154996528Y-92653890D01*
X155019065Y-92587755D01*
X155064117Y-92548716D01*
X155156810Y-92501487D01*
X155177970Y-92486113D01*
X155322413Y-92381171D01*
X155322415Y-92381168D01*
X155322419Y-92381166D01*
X155467166Y-92236419D01*
X155467168Y-92236415D01*
X155467171Y-92236413D01*
X155531539Y-92147816D01*
X155587487Y-92070810D01*
X155680420Y-91888419D01*
X155743677Y-91693734D01*
X155775700Y-91491552D01*
X155775700Y-91286848D01*
X155743677Y-91084666D01*
X155680420Y-90889981D01*
X155680418Y-90889978D01*
X155680418Y-90889976D01*
X155600018Y-90732184D01*
X155587487Y-90707590D01*
X155579756Y-90696949D01*
X155467171Y-90541986D01*
X155322413Y-90397228D01*
X155156814Y-90276915D01*
X155150206Y-90273548D01*
X155064117Y-90229683D01*
X155013323Y-90181711D01*
X154996528Y-90113890D01*
X155019065Y-90047755D01*
X155064117Y-90008716D01*
X155156810Y-89961487D01*
X155177970Y-89946113D01*
X155322413Y-89841171D01*
X155322415Y-89841168D01*
X155322419Y-89841166D01*
X155467166Y-89696419D01*
X155467168Y-89696415D01*
X155467171Y-89696413D01*
X155531539Y-89607816D01*
X155587487Y-89530810D01*
X155680420Y-89348419D01*
X155743677Y-89153734D01*
X155775700Y-88951552D01*
X155775700Y-88746848D01*
X155743677Y-88544666D01*
X155680420Y-88349981D01*
X155680418Y-88349978D01*
X155680418Y-88349976D01*
X155600018Y-88192184D01*
X155587487Y-88167590D01*
X155579756Y-88156949D01*
X155467171Y-88001986D01*
X155322413Y-87857228D01*
X155156814Y-87736915D01*
X155150206Y-87733548D01*
X155064117Y-87689683D01*
X155013323Y-87641711D01*
X154996528Y-87573890D01*
X155019065Y-87507755D01*
X155064117Y-87468716D01*
X155156810Y-87421487D01*
X155177970Y-87406113D01*
X155322413Y-87301171D01*
X155322415Y-87301168D01*
X155322419Y-87301166D01*
X155467166Y-87156419D01*
X155467168Y-87156415D01*
X155467171Y-87156413D01*
X155531539Y-87067816D01*
X155587487Y-86990810D01*
X155680420Y-86808419D01*
X155743677Y-86613734D01*
X155775700Y-86411552D01*
X155775700Y-86206848D01*
X155743677Y-86004666D01*
X155680420Y-85809981D01*
X155680418Y-85809978D01*
X155680418Y-85809976D01*
X155600018Y-85652184D01*
X155587487Y-85627590D01*
X155579756Y-85616949D01*
X155467171Y-85461986D01*
X155322413Y-85317228D01*
X155156814Y-85196915D01*
X155150206Y-85193548D01*
X155064117Y-85149683D01*
X155013323Y-85101711D01*
X154996528Y-85033890D01*
X155019065Y-84967755D01*
X155064117Y-84928716D01*
X155156810Y-84881487D01*
X155177970Y-84866113D01*
X155322413Y-84761171D01*
X155322415Y-84761168D01*
X155322419Y-84761166D01*
X155467166Y-84616419D01*
X155467168Y-84616415D01*
X155467171Y-84616413D01*
X155531539Y-84527816D01*
X155587487Y-84450810D01*
X155680420Y-84268419D01*
X155743677Y-84073734D01*
X155775700Y-83871552D01*
X155775700Y-83666848D01*
X155743677Y-83464666D01*
X155680420Y-83269981D01*
X155680418Y-83269978D01*
X155680418Y-83269976D01*
X155600018Y-83112184D01*
X155587487Y-83087590D01*
X155579756Y-83076949D01*
X155467171Y-82921986D01*
X155322413Y-82777228D01*
X155156814Y-82656915D01*
X155150206Y-82653548D01*
X155064117Y-82609683D01*
X155013323Y-82561711D01*
X154996528Y-82493890D01*
X155019065Y-82427755D01*
X155064117Y-82388716D01*
X155156810Y-82341487D01*
X155177970Y-82326113D01*
X155322413Y-82221171D01*
X155322415Y-82221168D01*
X155322419Y-82221166D01*
X155467166Y-82076419D01*
X155467168Y-82076415D01*
X155467171Y-82076413D01*
X155531539Y-81987816D01*
X155587487Y-81910810D01*
X155680420Y-81728419D01*
X155743677Y-81533734D01*
X155775700Y-81331552D01*
X155775700Y-81126848D01*
X155743677Y-80924666D01*
X155680420Y-80729981D01*
X155680418Y-80729978D01*
X155680418Y-80729976D01*
X155600018Y-80572184D01*
X155587487Y-80547590D01*
X155579756Y-80536949D01*
X155467171Y-80381986D01*
X155322413Y-80237228D01*
X155156814Y-80116915D01*
X155150206Y-80113548D01*
X155064117Y-80069683D01*
X155013323Y-80021711D01*
X154996528Y-79953890D01*
X155019065Y-79887755D01*
X155064117Y-79848716D01*
X155156810Y-79801487D01*
X155177970Y-79786113D01*
X155322413Y-79681171D01*
X155322415Y-79681168D01*
X155322419Y-79681166D01*
X155467166Y-79536419D01*
X155467168Y-79536415D01*
X155467171Y-79536413D01*
X155531539Y-79447816D01*
X155587487Y-79370810D01*
X155680420Y-79188419D01*
X155743677Y-78993734D01*
X155775700Y-78791552D01*
X155775700Y-78586848D01*
X155743677Y-78384666D01*
X155680420Y-78189981D01*
X155680418Y-78189978D01*
X155680418Y-78189976D01*
X155600018Y-78032184D01*
X155587487Y-78007590D01*
X155579756Y-77996949D01*
X155467171Y-77841986D01*
X155322413Y-77697228D01*
X155156814Y-77576915D01*
X155150206Y-77573548D01*
X155064117Y-77529683D01*
X155013323Y-77481711D01*
X154996528Y-77413890D01*
X155019065Y-77347755D01*
X155064117Y-77308716D01*
X155156810Y-77261487D01*
X155177970Y-77246113D01*
X155322413Y-77141171D01*
X155322415Y-77141168D01*
X155322419Y-77141166D01*
X155467166Y-76996419D01*
X155467168Y-76996415D01*
X155467171Y-76996413D01*
X155519932Y-76923790D01*
X155587487Y-76830810D01*
X155680420Y-76648419D01*
X155743677Y-76453734D01*
X155775700Y-76251552D01*
X155775700Y-76046848D01*
X155743677Y-75844666D01*
X155680420Y-75649981D01*
X155680418Y-75649978D01*
X155680418Y-75649976D01*
X155646703Y-75583807D01*
X155587487Y-75467590D01*
X155579756Y-75456949D01*
X155467171Y-75301986D01*
X155322413Y-75157228D01*
X155156814Y-75036915D01*
X155150206Y-75033548D01*
X155064117Y-74989683D01*
X155013323Y-74941711D01*
X154996528Y-74873890D01*
X155019065Y-74807755D01*
X155064117Y-74768716D01*
X155156810Y-74721487D01*
X155177970Y-74706113D01*
X155322413Y-74601171D01*
X155322415Y-74601168D01*
X155322419Y-74601166D01*
X155467166Y-74456419D01*
X155467168Y-74456415D01*
X155467171Y-74456413D01*
X155519932Y-74383790D01*
X155587487Y-74290810D01*
X155680420Y-74108419D01*
X155743677Y-73913734D01*
X155775700Y-73711552D01*
X155775700Y-73506848D01*
X155743677Y-73304666D01*
X155680420Y-73109981D01*
X155680418Y-73109978D01*
X155680418Y-73109976D01*
X155646703Y-73043807D01*
X155587487Y-72927590D01*
X155579756Y-72916949D01*
X155467171Y-72761986D01*
X155322413Y-72617228D01*
X155156814Y-72496915D01*
X155150206Y-72493548D01*
X155064117Y-72449683D01*
X155013323Y-72401711D01*
X154996528Y-72333890D01*
X155019065Y-72267755D01*
X155064117Y-72228716D01*
X155156810Y-72181487D01*
X155285682Y-72087857D01*
X155322413Y-72061171D01*
X155322415Y-72061168D01*
X155322419Y-72061166D01*
X155467166Y-71916419D01*
X155467168Y-71916415D01*
X155467171Y-71916413D01*
X155572092Y-71771999D01*
X155587487Y-71750810D01*
X155680420Y-71568419D01*
X155743677Y-71373734D01*
X155775700Y-71171552D01*
X155775700Y-70966848D01*
X155743677Y-70764666D01*
X155680420Y-70569981D01*
X155680418Y-70569978D01*
X155680418Y-70569976D01*
X155629065Y-70469191D01*
X155587487Y-70387590D01*
X155572092Y-70366400D01*
X155467171Y-70221986D01*
X155322413Y-70077228D01*
X155156813Y-69956915D01*
X155156812Y-69956914D01*
X155156810Y-69956913D01*
X155097098Y-69926488D01*
X154974423Y-69863981D01*
X154779734Y-69800722D01*
X154605195Y-69773078D01*
X154577552Y-69768700D01*
X154372848Y-69768700D01*
X154348529Y-69772551D01*
X154170665Y-69800722D01*
X153975976Y-69863981D01*
X153793586Y-69956915D01*
X153627986Y-70077228D01*
X153483228Y-70221986D01*
X153362915Y-70387586D01*
X153269981Y-70569976D01*
X153206722Y-70764665D01*
X153174700Y-70966848D01*
X153174700Y-71171551D01*
X153206722Y-71373734D01*
X153269981Y-71568423D01*
X153362915Y-71750813D01*
X153483228Y-71916413D01*
X153627986Y-72061171D01*
X153782949Y-72173756D01*
X153793590Y-72181487D01*
X153885040Y-72228083D01*
X153886280Y-72228715D01*
X153937076Y-72276690D01*
X153953871Y-72344511D01*
X153931334Y-72410646D01*
X153886280Y-72449685D01*
X153793586Y-72496915D01*
X153627986Y-72617228D01*
X153483228Y-72761986D01*
X153362915Y-72927586D01*
X153269981Y-73109976D01*
X153206722Y-73304665D01*
X153174700Y-73506848D01*
X153174700Y-73711551D01*
X153206722Y-73913734D01*
X153269981Y-74108423D01*
X153362915Y-74290813D01*
X153483228Y-74456413D01*
X153627986Y-74601171D01*
X153782949Y-74713756D01*
X153793590Y-74721487D01*
X153885040Y-74768083D01*
X153886280Y-74768715D01*
X153937076Y-74816690D01*
X153953871Y-74884511D01*
X153931334Y-74950646D01*
X153886280Y-74989685D01*
X153793586Y-75036915D01*
X153627986Y-75157228D01*
X153483228Y-75301986D01*
X153362915Y-75467586D01*
X153269981Y-75649976D01*
X153206722Y-75844665D01*
X153174700Y-76046848D01*
X153174700Y-76251551D01*
X153206722Y-76453734D01*
X153269981Y-76648423D01*
X153362915Y-76830813D01*
X153483228Y-76996413D01*
X153627986Y-77141171D01*
X153782949Y-77253756D01*
X153793590Y-77261487D01*
X153854119Y-77292328D01*
X153886280Y-77308715D01*
X153937076Y-77356690D01*
X153953871Y-77424511D01*
X153931334Y-77490646D01*
X153886280Y-77529685D01*
X153793586Y-77576915D01*
X153627986Y-77697228D01*
X153483228Y-77841986D01*
X153362915Y-78007586D01*
X153269981Y-78189976D01*
X153206722Y-78384665D01*
X153174700Y-78586848D01*
X153174700Y-78791551D01*
X153206722Y-78993734D01*
X153269981Y-79188423D01*
X153362915Y-79370813D01*
X153483228Y-79536413D01*
X153627986Y-79681171D01*
X153782949Y-79793756D01*
X153793590Y-79801487D01*
X153885040Y-79848083D01*
X153886280Y-79848715D01*
X153937076Y-79896690D01*
X153953871Y-79964511D01*
X153931334Y-80030646D01*
X153886280Y-80069685D01*
X153793586Y-80116915D01*
X153627986Y-80237228D01*
X153483228Y-80381986D01*
X153362915Y-80547586D01*
X153269981Y-80729976D01*
X153206722Y-80924665D01*
X153174700Y-81126848D01*
X153174700Y-81331551D01*
X153206722Y-81533734D01*
X153269981Y-81728423D01*
X153362915Y-81910813D01*
X153483228Y-82076413D01*
X153627986Y-82221171D01*
X153782949Y-82333756D01*
X153793590Y-82341487D01*
X153885040Y-82388083D01*
X153886280Y-82388715D01*
X153937076Y-82436690D01*
X153953871Y-82504511D01*
X153931334Y-82570646D01*
X153886280Y-82609685D01*
X153793586Y-82656915D01*
X153627986Y-82777228D01*
X153483228Y-82921986D01*
X153362915Y-83087586D01*
X153269981Y-83269976D01*
X153206722Y-83464665D01*
X153174700Y-83666848D01*
X153174700Y-83871551D01*
X153206722Y-84073734D01*
X153269981Y-84268423D01*
X153362915Y-84450813D01*
X153483228Y-84616413D01*
X153627986Y-84761171D01*
X153782949Y-84873756D01*
X153793590Y-84881487D01*
X153885040Y-84928083D01*
X153886280Y-84928715D01*
X153937076Y-84976690D01*
X153953871Y-85044511D01*
X153931334Y-85110646D01*
X153886280Y-85149685D01*
X153793586Y-85196915D01*
X153627986Y-85317228D01*
X153483228Y-85461986D01*
X153362915Y-85627586D01*
X153269981Y-85809976D01*
X153206722Y-86004665D01*
X153174700Y-86206848D01*
X153174700Y-86411551D01*
X153206722Y-86613734D01*
X153269981Y-86808423D01*
X153362915Y-86990813D01*
X153483228Y-87156413D01*
X153627986Y-87301171D01*
X153782949Y-87413756D01*
X153793590Y-87421487D01*
X153885040Y-87468083D01*
X153886280Y-87468715D01*
X153937076Y-87516690D01*
X153953871Y-87584511D01*
X153931334Y-87650646D01*
X153886280Y-87689685D01*
X153793586Y-87736915D01*
X153627986Y-87857228D01*
X153483228Y-88001986D01*
X153362915Y-88167586D01*
X153269981Y-88349976D01*
X153206722Y-88544665D01*
X153174700Y-88746848D01*
X153174700Y-88951551D01*
X153206722Y-89153734D01*
X153269981Y-89348423D01*
X153362915Y-89530813D01*
X153483228Y-89696413D01*
X153627986Y-89841171D01*
X153782949Y-89953756D01*
X153793590Y-89961487D01*
X153885040Y-90008083D01*
X153886280Y-90008715D01*
X153937076Y-90056690D01*
X153953871Y-90124511D01*
X153931334Y-90190646D01*
X153886280Y-90229685D01*
X153793586Y-90276915D01*
X153627986Y-90397228D01*
X153483228Y-90541986D01*
X153362915Y-90707586D01*
X153269981Y-90889976D01*
X153206722Y-91084665D01*
X153174700Y-91286848D01*
X153174700Y-91491551D01*
X153206722Y-91693734D01*
X153269981Y-91888423D01*
X153362915Y-92070813D01*
X153483228Y-92236413D01*
X153627986Y-92381171D01*
X153782949Y-92493756D01*
X153793590Y-92501487D01*
X153885040Y-92548083D01*
X153886280Y-92548715D01*
X153937076Y-92596690D01*
X153953871Y-92664511D01*
X153931334Y-92730646D01*
X153886280Y-92769685D01*
X153793586Y-92816915D01*
X153627986Y-92937228D01*
X153483228Y-93081986D01*
X153362915Y-93247586D01*
X153269981Y-93429976D01*
X153206722Y-93624665D01*
X153174700Y-93826848D01*
X153174700Y-94031551D01*
X153206722Y-94233734D01*
X153269981Y-94428423D01*
X153362915Y-94610813D01*
X153483228Y-94776413D01*
X153627986Y-94921171D01*
X153782949Y-95033756D01*
X153793590Y-95041487D01*
X153885040Y-95088083D01*
X153886280Y-95088715D01*
X153937076Y-95136690D01*
X153953871Y-95204511D01*
X153931334Y-95270646D01*
X153886280Y-95309685D01*
X153793586Y-95356915D01*
X153627986Y-95477228D01*
X153483228Y-95621986D01*
X153362915Y-95787586D01*
X153269981Y-95969976D01*
X153206722Y-96164665D01*
X153174700Y-96366848D01*
X153174700Y-96571551D01*
X153206722Y-96773734D01*
X153269981Y-96968423D01*
X153362915Y-97150813D01*
X153483228Y-97316413D01*
X153627986Y-97461171D01*
X153782949Y-97573756D01*
X153793590Y-97581487D01*
X153885040Y-97628083D01*
X153886280Y-97628715D01*
X153937076Y-97676690D01*
X153953871Y-97744511D01*
X153931334Y-97810646D01*
X153886280Y-97849685D01*
X153793586Y-97896915D01*
X153627986Y-98017228D01*
X153483228Y-98161986D01*
X153362915Y-98327586D01*
X153269981Y-98509976D01*
X153206722Y-98704665D01*
X153174700Y-98906848D01*
X153174700Y-99111551D01*
X153206722Y-99313734D01*
X153269981Y-99508423D01*
X153362915Y-99690813D01*
X153483228Y-99856413D01*
X153627986Y-100001171D01*
X153782949Y-100113756D01*
X153793590Y-100121487D01*
X153885040Y-100168083D01*
X153886280Y-100168715D01*
X153937076Y-100216690D01*
X153953871Y-100284511D01*
X153931334Y-100350646D01*
X153886280Y-100389685D01*
X153793586Y-100436915D01*
X153627986Y-100557228D01*
X153483228Y-100701986D01*
X153362915Y-100867586D01*
X153269981Y-101049976D01*
X153206722Y-101244665D01*
X153174700Y-101446848D01*
X153174700Y-101651551D01*
X153206722Y-101853734D01*
X153269981Y-102048423D01*
X153362915Y-102230813D01*
X153483228Y-102396413D01*
X153627986Y-102541171D01*
X153782949Y-102653756D01*
X153793590Y-102661487D01*
X153877713Y-102704350D01*
X153886280Y-102708715D01*
X153937076Y-102756690D01*
X153953871Y-102824511D01*
X153931334Y-102890646D01*
X153886280Y-102929685D01*
X153793586Y-102976915D01*
X153627986Y-103097228D01*
X153483228Y-103241986D01*
X153362915Y-103407586D01*
X153269981Y-103589976D01*
X153206722Y-103784665D01*
X153174700Y-103986848D01*
X153174700Y-104191551D01*
X153206722Y-104393734D01*
X153269981Y-104588423D01*
X153305643Y-104658412D01*
X153362785Y-104770559D01*
X153362915Y-104770813D01*
X153483228Y-104936413D01*
X153627986Y-105081171D01*
X153782949Y-105193756D01*
X153793590Y-105201487D01*
X153975981Y-105294420D01*
X154001062Y-105302569D01*
X154058738Y-105342006D01*
X154085936Y-105406365D01*
X154074021Y-105475211D01*
X154026777Y-105526687D01*
X153962744Y-105544500D01*
X150274742Y-105544500D01*
X150207703Y-105524815D01*
X150161948Y-105472011D01*
X150152004Y-105402853D01*
X150181029Y-105339297D01*
X150218447Y-105310015D01*
X150247816Y-105295051D01*
X150377186Y-105201059D01*
X150419786Y-105170109D01*
X150419788Y-105170106D01*
X150419792Y-105170104D01*
X150570104Y-105019792D01*
X150570106Y-105019788D01*
X150570109Y-105019786D01*
X150695048Y-104847820D01*
X150695047Y-104847820D01*
X150695051Y-104847816D01*
X150791557Y-104658412D01*
X150857246Y-104456243D01*
X150890500Y-104246287D01*
X150890500Y-104033713D01*
X150857246Y-103823757D01*
X150791557Y-103621588D01*
X150695051Y-103432184D01*
X150695049Y-103432181D01*
X150695048Y-103432179D01*
X150570109Y-103260213D01*
X150419786Y-103109890D01*
X150247820Y-102984951D01*
X150239600Y-102980763D01*
X150239054Y-102980485D01*
X150188259Y-102932512D01*
X150171463Y-102864692D01*
X150193999Y-102798556D01*
X150239054Y-102759515D01*
X150247816Y-102755051D01*
X150311207Y-102708995D01*
X150419786Y-102630109D01*
X150419788Y-102630106D01*
X150419792Y-102630104D01*
X150570104Y-102479792D01*
X150570106Y-102479788D01*
X150570109Y-102479786D01*
X150695048Y-102307820D01*
X150695047Y-102307820D01*
X150695051Y-102307816D01*
X150791557Y-102118412D01*
X150857246Y-101916243D01*
X150890500Y-101706287D01*
X150890500Y-101493713D01*
X150857246Y-101283757D01*
X150791557Y-101081588D01*
X150695051Y-100892184D01*
X150695049Y-100892181D01*
X150695048Y-100892179D01*
X150570109Y-100720213D01*
X150419786Y-100569890D01*
X150247820Y-100444951D01*
X150247115Y-100444591D01*
X150239054Y-100440485D01*
X150188259Y-100392512D01*
X150171463Y-100324692D01*
X150193999Y-100258556D01*
X150239054Y-100219515D01*
X150247816Y-100215051D01*
X150269789Y-100199086D01*
X150419786Y-100090109D01*
X150419788Y-100090106D01*
X150419792Y-100090104D01*
X150570104Y-99939792D01*
X150570106Y-99939788D01*
X150570109Y-99939786D01*
X150695048Y-99767820D01*
X150695047Y-99767820D01*
X150695051Y-99767816D01*
X150791557Y-99578412D01*
X150857246Y-99376243D01*
X150890500Y-99166287D01*
X150890500Y-98953713D01*
X150857246Y-98743757D01*
X150791557Y-98541588D01*
X150695051Y-98352184D01*
X150695049Y-98352181D01*
X150695048Y-98352179D01*
X150570109Y-98180213D01*
X150419786Y-98029890D01*
X150247820Y-97904951D01*
X150247115Y-97904591D01*
X150239054Y-97900485D01*
X150188259Y-97852512D01*
X150171463Y-97784692D01*
X150193999Y-97718556D01*
X150239054Y-97679515D01*
X150247816Y-97675051D01*
X150269789Y-97659086D01*
X150419786Y-97550109D01*
X150419788Y-97550106D01*
X150419792Y-97550104D01*
X150570104Y-97399792D01*
X150570106Y-97399788D01*
X150570109Y-97399786D01*
X150695048Y-97227820D01*
X150695047Y-97227820D01*
X150695051Y-97227816D01*
X150791557Y-97038412D01*
X150857246Y-96836243D01*
X150890500Y-96626287D01*
X150890500Y-96413713D01*
X150857246Y-96203757D01*
X150791557Y-96001588D01*
X150695051Y-95812184D01*
X150695049Y-95812181D01*
X150695048Y-95812179D01*
X150570109Y-95640213D01*
X150419786Y-95489890D01*
X150247820Y-95364951D01*
X150247115Y-95364591D01*
X150239054Y-95360485D01*
X150188259Y-95312512D01*
X150171463Y-95244692D01*
X150193999Y-95178556D01*
X150239054Y-95139515D01*
X150247816Y-95135051D01*
X150269789Y-95119086D01*
X150419786Y-95010109D01*
X150419788Y-95010106D01*
X150419792Y-95010104D01*
X150570104Y-94859792D01*
X150570106Y-94859788D01*
X150570109Y-94859786D01*
X150695048Y-94687820D01*
X150695047Y-94687820D01*
X150695051Y-94687816D01*
X150791557Y-94498412D01*
X150857246Y-94296243D01*
X150890500Y-94086287D01*
X150890500Y-93873713D01*
X150857246Y-93663757D01*
X150791557Y-93461588D01*
X150695051Y-93272184D01*
X150695049Y-93272181D01*
X150695048Y-93272179D01*
X150570109Y-93100213D01*
X150419786Y-92949890D01*
X150247820Y-92824951D01*
X150247115Y-92824591D01*
X150239054Y-92820485D01*
X150188259Y-92772512D01*
X150171463Y-92704692D01*
X150193999Y-92638556D01*
X150239054Y-92599515D01*
X150247816Y-92595051D01*
X150269789Y-92579086D01*
X150419786Y-92470109D01*
X150419788Y-92470106D01*
X150419792Y-92470104D01*
X150570104Y-92319792D01*
X150570106Y-92319788D01*
X150570109Y-92319786D01*
X150695048Y-92147820D01*
X150695047Y-92147820D01*
X150695051Y-92147816D01*
X150791557Y-91958412D01*
X150857246Y-91756243D01*
X150890500Y-91546287D01*
X150890500Y-91333713D01*
X150857246Y-91123757D01*
X150791557Y-90921588D01*
X150695051Y-90732184D01*
X150695049Y-90732181D01*
X150695048Y-90732179D01*
X150570109Y-90560213D01*
X150419786Y-90409890D01*
X150247820Y-90284951D01*
X150247115Y-90284591D01*
X150239054Y-90280485D01*
X150188259Y-90232512D01*
X150171463Y-90164692D01*
X150193999Y-90098556D01*
X150239054Y-90059515D01*
X150247816Y-90055051D01*
X150269789Y-90039086D01*
X150419786Y-89930109D01*
X150419788Y-89930106D01*
X150419792Y-89930104D01*
X150570104Y-89779792D01*
X150570106Y-89779788D01*
X150570109Y-89779786D01*
X150695048Y-89607820D01*
X150695047Y-89607820D01*
X150695051Y-89607816D01*
X150791557Y-89418412D01*
X150857246Y-89216243D01*
X150890500Y-89006287D01*
X150890500Y-88793713D01*
X150857246Y-88583757D01*
X150791557Y-88381588D01*
X150695051Y-88192184D01*
X150695049Y-88192181D01*
X150695048Y-88192179D01*
X150570109Y-88020213D01*
X150419786Y-87869890D01*
X150247820Y-87744951D01*
X150247115Y-87744591D01*
X150239054Y-87740485D01*
X150188259Y-87692512D01*
X150171463Y-87624692D01*
X150193999Y-87558556D01*
X150239054Y-87519515D01*
X150247816Y-87515051D01*
X150269789Y-87499086D01*
X150419786Y-87390109D01*
X150419788Y-87390106D01*
X150419792Y-87390104D01*
X150570104Y-87239792D01*
X150570106Y-87239788D01*
X150570109Y-87239786D01*
X150695048Y-87067820D01*
X150695047Y-87067820D01*
X150695051Y-87067816D01*
X150791557Y-86878412D01*
X150857246Y-86676243D01*
X150890500Y-86466287D01*
X150890500Y-86253713D01*
X150857246Y-86043757D01*
X150791557Y-85841588D01*
X150695051Y-85652184D01*
X150695049Y-85652181D01*
X150695048Y-85652179D01*
X150570109Y-85480213D01*
X150419786Y-85329890D01*
X150247820Y-85204951D01*
X150247115Y-85204591D01*
X150239054Y-85200485D01*
X150188259Y-85152512D01*
X150171463Y-85084692D01*
X150193999Y-85018556D01*
X150239054Y-84979515D01*
X150247816Y-84975051D01*
X150269789Y-84959086D01*
X150419786Y-84850109D01*
X150419788Y-84850106D01*
X150419792Y-84850104D01*
X150570104Y-84699792D01*
X150570106Y-84699788D01*
X150570109Y-84699786D01*
X150695048Y-84527820D01*
X150695047Y-84527820D01*
X150695051Y-84527816D01*
X150791557Y-84338412D01*
X150857246Y-84136243D01*
X150890500Y-83926287D01*
X150890500Y-83713713D01*
X150857246Y-83503757D01*
X150791557Y-83301588D01*
X150695051Y-83112184D01*
X150695049Y-83112181D01*
X150695048Y-83112179D01*
X150570109Y-82940213D01*
X150419786Y-82789890D01*
X150247820Y-82664951D01*
X150247115Y-82664591D01*
X150239054Y-82660485D01*
X150188259Y-82612512D01*
X150171463Y-82544692D01*
X150193999Y-82478556D01*
X150239054Y-82439515D01*
X150247816Y-82435051D01*
X150269789Y-82419086D01*
X150419786Y-82310109D01*
X150419788Y-82310106D01*
X150419792Y-82310104D01*
X150570104Y-82159792D01*
X150570106Y-82159788D01*
X150570109Y-82159786D01*
X150695048Y-81987820D01*
X150695047Y-81987820D01*
X150695051Y-81987816D01*
X150791557Y-81798412D01*
X150857246Y-81596243D01*
X150890500Y-81386287D01*
X150890500Y-81173713D01*
X150857246Y-80963757D01*
X150791557Y-80761588D01*
X150695051Y-80572184D01*
X150695049Y-80572181D01*
X150695048Y-80572179D01*
X150570109Y-80400213D01*
X150419786Y-80249890D01*
X150247820Y-80124951D01*
X150247115Y-80124591D01*
X150239054Y-80120485D01*
X150188259Y-80072512D01*
X150171463Y-80004692D01*
X150193999Y-79938556D01*
X150239054Y-79899515D01*
X150247816Y-79895051D01*
X150269789Y-79879086D01*
X150419786Y-79770109D01*
X150419788Y-79770106D01*
X150419792Y-79770104D01*
X150570104Y-79619792D01*
X150570106Y-79619788D01*
X150570109Y-79619786D01*
X150695048Y-79447820D01*
X150695047Y-79447820D01*
X150695051Y-79447816D01*
X150791557Y-79258412D01*
X150857246Y-79056243D01*
X150890500Y-78846287D01*
X150890500Y-78633713D01*
X150857246Y-78423757D01*
X150791557Y-78221588D01*
X150695051Y-78032184D01*
X150695049Y-78032181D01*
X150695048Y-78032179D01*
X150570109Y-77860213D01*
X150456569Y-77746673D01*
X150423084Y-77685350D01*
X150428068Y-77615658D01*
X150469940Y-77559725D01*
X150500915Y-77542810D01*
X150632331Y-77493796D01*
X150747546Y-77407546D01*
X150833796Y-77292331D01*
X150884091Y-77157483D01*
X150890500Y-77097873D01*
X150890499Y-75302128D01*
X150884091Y-75242517D01*
X150852280Y-75157228D01*
X150833797Y-75107671D01*
X150833793Y-75107664D01*
X150747547Y-74992455D01*
X150747544Y-74992452D01*
X150632335Y-74906206D01*
X150632328Y-74906202D01*
X150497482Y-74855908D01*
X150497483Y-74855908D01*
X150437883Y-74849501D01*
X150437881Y-74849500D01*
X150437873Y-74849500D01*
X150437864Y-74849500D01*
X148642129Y-74849500D01*
X148642123Y-74849501D01*
X148582516Y-74855908D01*
X148447671Y-74906202D01*
X148447664Y-74906206D01*
X148332455Y-74992452D01*
X148332452Y-74992455D01*
X148246206Y-75107664D01*
X148246202Y-75107671D01*
X148195908Y-75242517D01*
X148189516Y-75301981D01*
X148189501Y-75302123D01*
X148189500Y-75302135D01*
X148189500Y-77097870D01*
X148189501Y-77097876D01*
X148195908Y-77157483D01*
X148246202Y-77292328D01*
X148246206Y-77292335D01*
X148332452Y-77407544D01*
X148332455Y-77407547D01*
X148447664Y-77493793D01*
X148447671Y-77493797D01*
X148579082Y-77542810D01*
X148635016Y-77584681D01*
X148659433Y-77650145D01*
X148644582Y-77718418D01*
X148623431Y-77746673D01*
X148509889Y-77860215D01*
X148384951Y-78032179D01*
X148288444Y-78221585D01*
X148222753Y-78423760D01*
X148189500Y-78633713D01*
X148189500Y-78846286D01*
X148222753Y-79056239D01*
X148288444Y-79258414D01*
X148384951Y-79447820D01*
X148509890Y-79619786D01*
X148660213Y-79770109D01*
X148832182Y-79895050D01*
X148840946Y-79899516D01*
X148891742Y-79947491D01*
X148908536Y-80015312D01*
X148885998Y-80081447D01*
X148840946Y-80120484D01*
X148832182Y-80124949D01*
X148660213Y-80249890D01*
X148509890Y-80400213D01*
X148384951Y-80572179D01*
X148288444Y-80761585D01*
X148222753Y-80963760D01*
X148189500Y-81173713D01*
X148189500Y-81386286D01*
X148222753Y-81596239D01*
X148288444Y-81798414D01*
X148384951Y-81987820D01*
X148509890Y-82159786D01*
X148660213Y-82310109D01*
X148832182Y-82435050D01*
X148840946Y-82439516D01*
X148891742Y-82487491D01*
X148908536Y-82555312D01*
X148885998Y-82621447D01*
X148840946Y-82660484D01*
X148832182Y-82664949D01*
X148660213Y-82789890D01*
X148509890Y-82940213D01*
X148384951Y-83112179D01*
X148288444Y-83301585D01*
X148222753Y-83503760D01*
X148189500Y-83713713D01*
X148189500Y-83926286D01*
X148222753Y-84136239D01*
X148288444Y-84338414D01*
X148384951Y-84527820D01*
X148509890Y-84699786D01*
X148660213Y-84850109D01*
X148832182Y-84975050D01*
X148840946Y-84979516D01*
X148891742Y-85027491D01*
X148908536Y-85095312D01*
X148885998Y-85161447D01*
X148840946Y-85200484D01*
X148832182Y-85204949D01*
X148660213Y-85329890D01*
X148509890Y-85480213D01*
X148384951Y-85652179D01*
X148288444Y-85841585D01*
X148222753Y-86043760D01*
X148189500Y-86253713D01*
X148189500Y-86466286D01*
X148222753Y-86676239D01*
X148288444Y-86878414D01*
X148384951Y-87067820D01*
X148509890Y-87239786D01*
X148660213Y-87390109D01*
X148832182Y-87515050D01*
X148840946Y-87519516D01*
X148891742Y-87567491D01*
X148908536Y-87635312D01*
X148885998Y-87701447D01*
X148840946Y-87740484D01*
X148832182Y-87744949D01*
X148660213Y-87869890D01*
X148509890Y-88020213D01*
X148384951Y-88192179D01*
X148288444Y-88381585D01*
X148222753Y-88583760D01*
X148189500Y-88793713D01*
X148189500Y-89006286D01*
X148222753Y-89216239D01*
X148288444Y-89418414D01*
X148384951Y-89607820D01*
X148509890Y-89779786D01*
X148660213Y-89930109D01*
X148832182Y-90055050D01*
X148840946Y-90059516D01*
X148891742Y-90107491D01*
X148908536Y-90175312D01*
X148885998Y-90241447D01*
X148840946Y-90280484D01*
X148832182Y-90284949D01*
X148660213Y-90409890D01*
X148509890Y-90560213D01*
X148384951Y-90732179D01*
X148288444Y-90921585D01*
X148222753Y-91123760D01*
X148189500Y-91333713D01*
X148189500Y-91546286D01*
X148222753Y-91756239D01*
X148288444Y-91958414D01*
X148384951Y-92147820D01*
X148509890Y-92319786D01*
X148660213Y-92470109D01*
X148832182Y-92595050D01*
X148840946Y-92599516D01*
X148891742Y-92647491D01*
X148908536Y-92715312D01*
X148885998Y-92781447D01*
X148840946Y-92820484D01*
X148832182Y-92824949D01*
X148660213Y-92949890D01*
X148509890Y-93100213D01*
X148384951Y-93272179D01*
X148288444Y-93461585D01*
X148222753Y-93663760D01*
X148189500Y-93873713D01*
X148189500Y-94086286D01*
X148222753Y-94296239D01*
X148288444Y-94498414D01*
X148384951Y-94687820D01*
X148509890Y-94859786D01*
X148660213Y-95010109D01*
X148832182Y-95135050D01*
X148840946Y-95139516D01*
X148891742Y-95187491D01*
X148908536Y-95255312D01*
X148885998Y-95321447D01*
X148840946Y-95360484D01*
X148832182Y-95364949D01*
X148660213Y-95489890D01*
X148509890Y-95640213D01*
X148384951Y-95812179D01*
X148288444Y-96001585D01*
X148222753Y-96203760D01*
X148189500Y-96413713D01*
X148189500Y-96626286D01*
X148222753Y-96836239D01*
X148288444Y-97038414D01*
X148384951Y-97227820D01*
X148509890Y-97399786D01*
X148660213Y-97550109D01*
X148832182Y-97675050D01*
X148840946Y-97679516D01*
X148891742Y-97727491D01*
X148908536Y-97795312D01*
X148885998Y-97861447D01*
X148840946Y-97900484D01*
X148832182Y-97904949D01*
X148660213Y-98029890D01*
X148509890Y-98180213D01*
X148384951Y-98352179D01*
X148288444Y-98541585D01*
X148222753Y-98743760D01*
X148189500Y-98953713D01*
X148189500Y-99166286D01*
X148222753Y-99376239D01*
X148288444Y-99578414D01*
X148384951Y-99767820D01*
X148509890Y-99939786D01*
X148660213Y-100090109D01*
X148832182Y-100215050D01*
X148840946Y-100219516D01*
X148891742Y-100267491D01*
X148908536Y-100335312D01*
X148885998Y-100401447D01*
X148840946Y-100440484D01*
X148832182Y-100444949D01*
X148660213Y-100569890D01*
X148509890Y-100720213D01*
X148384951Y-100892179D01*
X148288444Y-101081585D01*
X148222753Y-101283760D01*
X148196923Y-101446848D01*
X148189500Y-101493713D01*
X148189500Y-101706287D01*
X148222754Y-101916243D01*
X148287946Y-102116883D01*
X148288444Y-102118414D01*
X148384951Y-102307820D01*
X148509890Y-102479786D01*
X148660213Y-102630109D01*
X148832182Y-102755050D01*
X148840946Y-102759516D01*
X148891742Y-102807491D01*
X148908536Y-102875312D01*
X148885998Y-102941447D01*
X148840946Y-102980484D01*
X148832182Y-102984949D01*
X148660213Y-103109890D01*
X148509890Y-103260213D01*
X148384951Y-103432179D01*
X148288444Y-103621585D01*
X148222753Y-103823760D01*
X148189500Y-104033713D01*
X148189500Y-104246286D01*
X148222735Y-104456127D01*
X148222754Y-104456243D01*
X148233462Y-104489200D01*
X148288444Y-104658414D01*
X148384951Y-104847820D01*
X148509890Y-105019786D01*
X148660213Y-105170109D01*
X148832179Y-105295048D01*
X148832181Y-105295049D01*
X148832184Y-105295051D01*
X148861553Y-105310015D01*
X148912349Y-105357989D01*
X148929144Y-105425810D01*
X148906607Y-105491945D01*
X148851892Y-105535397D01*
X148805258Y-105544500D01*
X139746040Y-105544500D01*
X139679001Y-105524815D01*
X139633246Y-105472011D01*
X139623302Y-105402853D01*
X139652327Y-105339297D01*
X139707721Y-105302569D01*
X139734231Y-105293955D01*
X139916549Y-105201059D01*
X139961121Y-105168674D01*
X139281647Y-104489200D01*
X139287861Y-104489200D01*
X139389594Y-104461941D01*
X139480806Y-104409280D01*
X139555280Y-104334806D01*
X139607941Y-104243594D01*
X139635200Y-104141861D01*
X139635200Y-104135647D01*
X140314674Y-104815121D01*
X140347059Y-104770549D01*
X140439955Y-104588231D01*
X140503190Y-104393617D01*
X140535200Y-104191517D01*
X140535200Y-103986882D01*
X140503190Y-103784782D01*
X140439955Y-103590168D01*
X140347059Y-103407850D01*
X140314674Y-103363277D01*
X140314674Y-103363276D01*
X139635200Y-104042751D01*
X139635200Y-104036539D01*
X139607941Y-103934806D01*
X139555280Y-103843594D01*
X139480806Y-103769120D01*
X139389594Y-103716459D01*
X139287861Y-103689200D01*
X139281646Y-103689200D01*
X139961122Y-103009724D01*
X139961121Y-103009723D01*
X139916559Y-102977347D01*
X139916550Y-102977341D01*
X139823569Y-102929965D01*
X139772773Y-102881990D01*
X139755978Y-102814169D01*
X139778515Y-102748035D01*
X139823570Y-102708995D01*
X139824120Y-102708715D01*
X139916810Y-102661487D01*
X139996374Y-102603681D01*
X140082413Y-102541171D01*
X140082415Y-102541168D01*
X140082419Y-102541166D01*
X140227166Y-102396419D01*
X140227168Y-102396415D01*
X140227171Y-102396413D01*
X140288983Y-102311335D01*
X140347487Y-102230810D01*
X140440420Y-102048419D01*
X140503677Y-101853734D01*
X140535700Y-101651552D01*
X140535700Y-101446848D01*
X140503677Y-101244666D01*
X140440420Y-101049981D01*
X140440418Y-101049978D01*
X140440418Y-101049976D01*
X140360018Y-100892184D01*
X140347487Y-100867590D01*
X140339756Y-100856949D01*
X140227171Y-100701986D01*
X140082413Y-100557228D01*
X139916814Y-100436915D01*
X139899888Y-100428291D01*
X139824117Y-100389683D01*
X139773323Y-100341711D01*
X139756528Y-100273890D01*
X139779065Y-100207755D01*
X139824117Y-100168716D01*
X139916810Y-100121487D01*
X139937970Y-100106113D01*
X140082413Y-100001171D01*
X140082415Y-100001168D01*
X140082419Y-100001166D01*
X140227166Y-99856419D01*
X140227168Y-99856415D01*
X140227171Y-99856413D01*
X140291539Y-99767816D01*
X140347487Y-99690810D01*
X140440420Y-99508419D01*
X140503677Y-99313734D01*
X140535700Y-99111552D01*
X140535700Y-98906848D01*
X140503677Y-98704666D01*
X140440420Y-98509981D01*
X140440418Y-98509978D01*
X140440418Y-98509976D01*
X140360018Y-98352184D01*
X140347487Y-98327590D01*
X140339756Y-98316949D01*
X140227171Y-98161986D01*
X140082413Y-98017228D01*
X139916814Y-97896915D01*
X139910206Y-97893548D01*
X139824117Y-97849683D01*
X139773323Y-97801711D01*
X139756528Y-97733890D01*
X139779065Y-97667755D01*
X139824117Y-97628716D01*
X139916810Y-97581487D01*
X139937970Y-97566113D01*
X140082413Y-97461171D01*
X140082415Y-97461168D01*
X140082419Y-97461166D01*
X140227166Y-97316419D01*
X140227168Y-97316415D01*
X140227171Y-97316413D01*
X140291539Y-97227816D01*
X140347487Y-97150810D01*
X140440420Y-96968419D01*
X140503677Y-96773734D01*
X140535700Y-96571552D01*
X140535700Y-96366848D01*
X140503677Y-96164666D01*
X140440420Y-95969981D01*
X140440418Y-95969978D01*
X140440418Y-95969976D01*
X140360018Y-95812184D01*
X140347487Y-95787590D01*
X140339756Y-95776949D01*
X140227171Y-95621986D01*
X140082413Y-95477228D01*
X139916814Y-95356915D01*
X139910206Y-95353548D01*
X139824117Y-95309683D01*
X139773323Y-95261711D01*
X139756528Y-95193890D01*
X139779065Y-95127755D01*
X139824117Y-95088716D01*
X139916810Y-95041487D01*
X139937970Y-95026113D01*
X140082413Y-94921171D01*
X140082415Y-94921168D01*
X140082419Y-94921166D01*
X140227166Y-94776419D01*
X140227168Y-94776415D01*
X140227171Y-94776413D01*
X140291539Y-94687816D01*
X140347487Y-94610810D01*
X140440420Y-94428419D01*
X140503677Y-94233734D01*
X140535700Y-94031552D01*
X140535700Y-93826848D01*
X140503677Y-93624666D01*
X140440420Y-93429981D01*
X140440418Y-93429978D01*
X140440418Y-93429976D01*
X140360018Y-93272184D01*
X140347487Y-93247590D01*
X140339756Y-93236949D01*
X140227171Y-93081986D01*
X140082413Y-92937228D01*
X139916814Y-92816915D01*
X139910206Y-92813548D01*
X139824117Y-92769683D01*
X139773323Y-92721711D01*
X139756528Y-92653890D01*
X139779065Y-92587755D01*
X139824117Y-92548716D01*
X139916810Y-92501487D01*
X139937970Y-92486113D01*
X140082413Y-92381171D01*
X140082415Y-92381168D01*
X140082419Y-92381166D01*
X140227166Y-92236419D01*
X140227168Y-92236415D01*
X140227171Y-92236413D01*
X140291539Y-92147816D01*
X140347487Y-92070810D01*
X140440420Y-91888419D01*
X140503677Y-91693734D01*
X140535700Y-91491552D01*
X140535700Y-91286848D01*
X140503677Y-91084666D01*
X140440420Y-90889981D01*
X140440418Y-90889978D01*
X140440418Y-90889976D01*
X140360018Y-90732184D01*
X140347487Y-90707590D01*
X140339756Y-90696949D01*
X140227171Y-90541986D01*
X140082413Y-90397228D01*
X139916814Y-90276915D01*
X139910206Y-90273548D01*
X139824117Y-90229683D01*
X139773323Y-90181711D01*
X139756528Y-90113890D01*
X139779065Y-90047755D01*
X139824117Y-90008716D01*
X139916810Y-89961487D01*
X139937970Y-89946113D01*
X140082413Y-89841171D01*
X140082415Y-89841168D01*
X140082419Y-89841166D01*
X140227166Y-89696419D01*
X140227168Y-89696415D01*
X140227171Y-89696413D01*
X140291539Y-89607816D01*
X140347487Y-89530810D01*
X140440420Y-89348419D01*
X140503677Y-89153734D01*
X140535700Y-88951552D01*
X140535700Y-88746848D01*
X140503677Y-88544666D01*
X140440420Y-88349981D01*
X140440418Y-88349978D01*
X140440418Y-88349976D01*
X140360018Y-88192184D01*
X140347487Y-88167590D01*
X140339756Y-88156949D01*
X140227171Y-88001986D01*
X140082413Y-87857228D01*
X139916814Y-87736915D01*
X139910206Y-87733548D01*
X139824117Y-87689683D01*
X139773323Y-87641711D01*
X139756528Y-87573890D01*
X139779065Y-87507755D01*
X139824117Y-87468716D01*
X139916810Y-87421487D01*
X139937970Y-87406113D01*
X140082413Y-87301171D01*
X140082415Y-87301168D01*
X140082419Y-87301166D01*
X140227166Y-87156419D01*
X140227168Y-87156415D01*
X140227171Y-87156413D01*
X140291539Y-87067816D01*
X140347487Y-86990810D01*
X140440420Y-86808419D01*
X140503677Y-86613734D01*
X140535700Y-86411552D01*
X140535700Y-86206848D01*
X140503677Y-86004666D01*
X140440420Y-85809981D01*
X140440418Y-85809978D01*
X140440418Y-85809976D01*
X140360018Y-85652184D01*
X140347487Y-85627590D01*
X140339756Y-85616949D01*
X140227171Y-85461986D01*
X140082413Y-85317228D01*
X139916814Y-85196915D01*
X139910206Y-85193548D01*
X139824117Y-85149683D01*
X139773323Y-85101711D01*
X139756528Y-85033890D01*
X139779065Y-84967755D01*
X139824117Y-84928716D01*
X139916810Y-84881487D01*
X139937970Y-84866113D01*
X140082413Y-84761171D01*
X140082415Y-84761168D01*
X140082419Y-84761166D01*
X140227166Y-84616419D01*
X140227168Y-84616415D01*
X140227171Y-84616413D01*
X140291539Y-84527816D01*
X140347487Y-84450810D01*
X140440420Y-84268419D01*
X140503677Y-84073734D01*
X140535700Y-83871552D01*
X140535700Y-83666848D01*
X140503677Y-83464666D01*
X140440420Y-83269981D01*
X140440418Y-83269978D01*
X140440418Y-83269976D01*
X140360018Y-83112184D01*
X140347487Y-83087590D01*
X140339756Y-83076949D01*
X140227171Y-82921986D01*
X140082413Y-82777228D01*
X139916814Y-82656915D01*
X139910206Y-82653548D01*
X139824117Y-82609683D01*
X139773323Y-82561711D01*
X139756528Y-82493890D01*
X139779065Y-82427755D01*
X139824117Y-82388716D01*
X139916810Y-82341487D01*
X139937970Y-82326113D01*
X140082413Y-82221171D01*
X140082415Y-82221168D01*
X140082419Y-82221166D01*
X140227166Y-82076419D01*
X140227168Y-82076415D01*
X140227171Y-82076413D01*
X140291539Y-81987816D01*
X140347487Y-81910810D01*
X140440420Y-81728419D01*
X140503677Y-81533734D01*
X140535700Y-81331552D01*
X140535700Y-81126848D01*
X140503677Y-80924666D01*
X140440420Y-80729981D01*
X140440418Y-80729978D01*
X140440418Y-80729976D01*
X140360018Y-80572184D01*
X140347487Y-80547590D01*
X140339756Y-80536949D01*
X140227171Y-80381986D01*
X140082413Y-80237228D01*
X139916814Y-80116915D01*
X139910206Y-80113548D01*
X139824117Y-80069683D01*
X139773323Y-80021711D01*
X139756528Y-79953890D01*
X139779065Y-79887755D01*
X139824117Y-79848716D01*
X139916810Y-79801487D01*
X139937970Y-79786113D01*
X140082413Y-79681171D01*
X140082415Y-79681168D01*
X140082419Y-79681166D01*
X140227166Y-79536419D01*
X140227168Y-79536415D01*
X140227171Y-79536413D01*
X140291539Y-79447816D01*
X140347487Y-79370810D01*
X140440420Y-79188419D01*
X140503677Y-78993734D01*
X140535700Y-78791552D01*
X140535700Y-78586848D01*
X140503677Y-78384666D01*
X140440420Y-78189981D01*
X140440418Y-78189978D01*
X140440418Y-78189976D01*
X140360018Y-78032184D01*
X140347487Y-78007590D01*
X140339756Y-77996949D01*
X140227171Y-77841986D01*
X140082413Y-77697228D01*
X139916814Y-77576915D01*
X139910206Y-77573548D01*
X139824117Y-77529683D01*
X139773323Y-77481711D01*
X139756528Y-77413890D01*
X139779065Y-77347755D01*
X139824117Y-77308716D01*
X139916810Y-77261487D01*
X139937970Y-77246113D01*
X140082413Y-77141171D01*
X140082415Y-77141168D01*
X140082419Y-77141166D01*
X140227166Y-76996419D01*
X140227168Y-76996415D01*
X140227171Y-76996413D01*
X140279932Y-76923790D01*
X140347487Y-76830810D01*
X140440420Y-76648419D01*
X140503677Y-76453734D01*
X140535700Y-76251552D01*
X140535700Y-76046848D01*
X140503677Y-75844666D01*
X140440420Y-75649981D01*
X140440418Y-75649978D01*
X140440418Y-75649976D01*
X140406703Y-75583807D01*
X140347487Y-75467590D01*
X140339756Y-75456949D01*
X140227171Y-75301986D01*
X140082413Y-75157228D01*
X139916814Y-75036915D01*
X139910206Y-75033548D01*
X139824117Y-74989683D01*
X139773323Y-74941711D01*
X139756528Y-74873890D01*
X139779065Y-74807755D01*
X139824117Y-74768716D01*
X139916810Y-74721487D01*
X139937970Y-74706113D01*
X140082413Y-74601171D01*
X140082415Y-74601168D01*
X140082419Y-74601166D01*
X140227166Y-74456419D01*
X140227168Y-74456415D01*
X140227171Y-74456413D01*
X140279932Y-74383790D01*
X140347487Y-74290810D01*
X140440420Y-74108419D01*
X140503677Y-73913734D01*
X140535700Y-73711552D01*
X140535700Y-73506848D01*
X140503677Y-73304666D01*
X140440420Y-73109981D01*
X140440418Y-73109978D01*
X140440418Y-73109976D01*
X140406703Y-73043807D01*
X140347487Y-72927590D01*
X140339756Y-72916949D01*
X140227171Y-72761986D01*
X140082419Y-72617234D01*
X140082411Y-72617228D01*
X139988747Y-72549178D01*
X139946082Y-72493849D01*
X139940103Y-72424236D01*
X139972708Y-72362440D01*
X140022626Y-72331155D01*
X140104534Y-72304014D01*
X140253856Y-72211912D01*
X140377912Y-72087856D01*
X140470014Y-71938534D01*
X140525199Y-71771997D01*
X140535700Y-71669209D01*
X140535699Y-70469192D01*
X140525199Y-70366403D01*
X140470014Y-70199866D01*
X140377912Y-70050544D01*
X140253856Y-69926488D01*
X140104534Y-69834386D01*
X139937997Y-69779201D01*
X139937995Y-69779200D01*
X139835210Y-69768700D01*
X138635198Y-69768700D01*
X138635181Y-69768701D01*
X138532403Y-69779200D01*
X138532400Y-69779201D01*
X138365868Y-69834385D01*
X138365863Y-69834387D01*
X138216542Y-69926489D01*
X138092489Y-70050542D01*
X138000387Y-70199863D01*
X138000386Y-70199866D01*
X137945201Y-70366403D01*
X137945201Y-70366404D01*
X137945200Y-70366404D01*
X137934700Y-70469183D01*
X137934700Y-71669201D01*
X137934701Y-71669218D01*
X137945200Y-71771996D01*
X137945201Y-71771999D01*
X137993056Y-71916413D01*
X138000386Y-71938534D01*
X138092488Y-72087856D01*
X138216544Y-72211912D01*
X138365866Y-72304014D01*
X138447770Y-72331154D01*
X138505215Y-72370927D01*
X138532038Y-72435443D01*
X138519723Y-72504218D01*
X138481651Y-72549178D01*
X138387987Y-72617228D01*
X138387982Y-72617232D01*
X138243228Y-72761986D01*
X138122915Y-72927586D01*
X138029981Y-73109976D01*
X137966722Y-73304665D01*
X137934700Y-73506848D01*
X137934700Y-73711551D01*
X137966722Y-73913734D01*
X138029981Y-74108423D01*
X138122915Y-74290813D01*
X138243228Y-74456413D01*
X138387986Y-74601171D01*
X138542949Y-74713756D01*
X138553590Y-74721487D01*
X138645040Y-74768083D01*
X138646280Y-74768715D01*
X138697076Y-74816690D01*
X138713871Y-74884511D01*
X138691334Y-74950646D01*
X138646280Y-74989685D01*
X138553586Y-75036915D01*
X138387986Y-75157228D01*
X138243228Y-75301986D01*
X138122915Y-75467586D01*
X138029981Y-75649976D01*
X137966722Y-75844665D01*
X137934700Y-76046848D01*
X137934700Y-76251551D01*
X137966722Y-76453734D01*
X138029981Y-76648423D01*
X138122915Y-76830813D01*
X138243228Y-76996413D01*
X138387986Y-77141171D01*
X138542949Y-77253756D01*
X138553590Y-77261487D01*
X138614119Y-77292328D01*
X138646280Y-77308715D01*
X138697076Y-77356690D01*
X138713871Y-77424511D01*
X138691334Y-77490646D01*
X138646280Y-77529685D01*
X138553586Y-77576915D01*
X138387986Y-77697228D01*
X138243228Y-77841986D01*
X138122915Y-78007586D01*
X138029981Y-78189976D01*
X137966722Y-78384665D01*
X137934700Y-78586848D01*
X137934700Y-78791551D01*
X137966722Y-78993734D01*
X138029981Y-79188423D01*
X138122915Y-79370813D01*
X138243228Y-79536413D01*
X138387986Y-79681171D01*
X138542949Y-79793756D01*
X138553590Y-79801487D01*
X138645040Y-79848083D01*
X138646280Y-79848715D01*
X138697076Y-79896690D01*
X138713871Y-79964511D01*
X138691334Y-80030646D01*
X138646280Y-80069685D01*
X138553586Y-80116915D01*
X138387986Y-80237228D01*
X138243228Y-80381986D01*
X138122915Y-80547586D01*
X138029981Y-80729976D01*
X137966722Y-80924665D01*
X137934700Y-81126848D01*
X137934700Y-81331551D01*
X137966722Y-81533734D01*
X138029981Y-81728423D01*
X138122915Y-81910813D01*
X138243228Y-82076413D01*
X138387986Y-82221171D01*
X138542949Y-82333756D01*
X138553590Y-82341487D01*
X138645040Y-82388083D01*
X138646280Y-82388715D01*
X138697076Y-82436690D01*
X138713871Y-82504511D01*
X138691334Y-82570646D01*
X138646280Y-82609685D01*
X138553586Y-82656915D01*
X138387986Y-82777228D01*
X138243228Y-82921986D01*
X138122915Y-83087586D01*
X138029981Y-83269976D01*
X137966722Y-83464665D01*
X137934700Y-83666848D01*
X137934700Y-83871551D01*
X137966722Y-84073734D01*
X138029981Y-84268423D01*
X138122915Y-84450813D01*
X138243228Y-84616413D01*
X138387986Y-84761171D01*
X138542949Y-84873756D01*
X138553590Y-84881487D01*
X138645040Y-84928083D01*
X138646280Y-84928715D01*
X138697076Y-84976690D01*
X138713871Y-85044511D01*
X138691334Y-85110646D01*
X138646280Y-85149685D01*
X138553586Y-85196915D01*
X138387986Y-85317228D01*
X138243228Y-85461986D01*
X138122915Y-85627586D01*
X138029981Y-85809976D01*
X137966722Y-86004665D01*
X137934700Y-86206848D01*
X137934700Y-86411551D01*
X137966722Y-86613734D01*
X138029981Y-86808423D01*
X138122915Y-86990813D01*
X138243228Y-87156413D01*
X138387986Y-87301171D01*
X138542949Y-87413756D01*
X138553590Y-87421487D01*
X138645040Y-87468083D01*
X138646280Y-87468715D01*
X138697076Y-87516690D01*
X138713871Y-87584511D01*
X138691334Y-87650646D01*
X138646280Y-87689685D01*
X138553586Y-87736915D01*
X138387986Y-87857228D01*
X138243228Y-88001986D01*
X138122915Y-88167586D01*
X138029981Y-88349976D01*
X137966722Y-88544665D01*
X137934700Y-88746848D01*
X137934700Y-88951551D01*
X137966722Y-89153734D01*
X138029981Y-89348423D01*
X138122915Y-89530813D01*
X138243228Y-89696413D01*
X138387986Y-89841171D01*
X138542949Y-89953756D01*
X138553590Y-89961487D01*
X138645040Y-90008083D01*
X138646280Y-90008715D01*
X138697076Y-90056690D01*
X138713871Y-90124511D01*
X138691334Y-90190646D01*
X138646280Y-90229685D01*
X138553586Y-90276915D01*
X138387986Y-90397228D01*
X138243228Y-90541986D01*
X138122915Y-90707586D01*
X138029981Y-90889976D01*
X137966722Y-91084665D01*
X137934700Y-91286848D01*
X137934700Y-91491551D01*
X137966722Y-91693734D01*
X138029981Y-91888423D01*
X138122915Y-92070813D01*
X138243228Y-92236413D01*
X138387986Y-92381171D01*
X138542949Y-92493756D01*
X138553590Y-92501487D01*
X138645040Y-92548083D01*
X138646280Y-92548715D01*
X138697076Y-92596690D01*
X138713871Y-92664511D01*
X138691334Y-92730646D01*
X138646280Y-92769685D01*
X138553586Y-92816915D01*
X138387986Y-92937228D01*
X138243228Y-93081986D01*
X138122915Y-93247586D01*
X138029981Y-93429976D01*
X137966722Y-93624665D01*
X137934700Y-93826848D01*
X137934700Y-94031551D01*
X137966722Y-94233734D01*
X138029981Y-94428423D01*
X138122915Y-94610813D01*
X138243228Y-94776413D01*
X138387986Y-94921171D01*
X138542949Y-95033756D01*
X138553590Y-95041487D01*
X138645040Y-95088083D01*
X138646280Y-95088715D01*
X138697076Y-95136690D01*
X138713871Y-95204511D01*
X138691334Y-95270646D01*
X138646280Y-95309685D01*
X138553586Y-95356915D01*
X138387986Y-95477228D01*
X138243228Y-95621986D01*
X138122915Y-95787586D01*
X138029981Y-95969976D01*
X137966722Y-96164665D01*
X137934700Y-96366848D01*
X137934700Y-96571551D01*
X137966722Y-96773734D01*
X138029981Y-96968423D01*
X138122915Y-97150813D01*
X138243228Y-97316413D01*
X138387986Y-97461171D01*
X138542949Y-97573756D01*
X138553590Y-97581487D01*
X138645040Y-97628083D01*
X138646280Y-97628715D01*
X138697076Y-97676690D01*
X138713871Y-97744511D01*
X138691334Y-97810646D01*
X138646280Y-97849685D01*
X138553586Y-97896915D01*
X138387986Y-98017228D01*
X138243228Y-98161986D01*
X138122915Y-98327586D01*
X138029981Y-98509976D01*
X137966722Y-98704665D01*
X137934700Y-98906848D01*
X137934700Y-99111551D01*
X137966722Y-99313734D01*
X138029981Y-99508423D01*
X138122915Y-99690813D01*
X138243228Y-99856413D01*
X138387986Y-100001171D01*
X138542949Y-100113756D01*
X138553590Y-100121487D01*
X138645040Y-100168083D01*
X138646280Y-100168715D01*
X138697076Y-100216690D01*
X138713871Y-100284511D01*
X138691334Y-100350646D01*
X138646280Y-100389685D01*
X138553586Y-100436915D01*
X138387986Y-100557228D01*
X138243228Y-100701986D01*
X138122915Y-100867586D01*
X138029981Y-101049976D01*
X137966722Y-101244665D01*
X137934700Y-101446848D01*
X137934700Y-101651551D01*
X137966722Y-101853734D01*
X138029981Y-102048423D01*
X138122915Y-102230813D01*
X138243228Y-102396413D01*
X138387986Y-102541171D01*
X138553585Y-102661484D01*
X138553587Y-102661485D01*
X138553590Y-102661487D01*
X138646280Y-102708715D01*
X138646830Y-102708995D01*
X138697626Y-102756970D01*
X138714421Y-102824791D01*
X138691884Y-102890925D01*
X138646830Y-102929965D01*
X138553844Y-102977343D01*
X138509277Y-103009723D01*
X138509277Y-103009724D01*
X139188754Y-103689200D01*
X139182539Y-103689200D01*
X139080806Y-103716459D01*
X138989594Y-103769120D01*
X138915120Y-103843594D01*
X138862459Y-103934806D01*
X138835200Y-104036539D01*
X138835200Y-104042753D01*
X138155724Y-103363277D01*
X138155723Y-103363277D01*
X138123343Y-103407844D01*
X138030444Y-103590168D01*
X137967209Y-103784782D01*
X137935200Y-103986882D01*
X137935200Y-104191517D01*
X137967209Y-104393617D01*
X138030444Y-104588231D01*
X138123341Y-104770550D01*
X138123347Y-104770559D01*
X138155723Y-104815121D01*
X138155724Y-104815122D01*
X138835200Y-104135646D01*
X138835200Y-104141861D01*
X138862459Y-104243594D01*
X138915120Y-104334806D01*
X138989594Y-104409280D01*
X139080806Y-104461941D01*
X139182539Y-104489200D01*
X139188753Y-104489200D01*
X138509276Y-105168674D01*
X138553850Y-105201059D01*
X138736168Y-105293955D01*
X138762679Y-105302569D01*
X138820354Y-105342007D01*
X138847552Y-105406366D01*
X138835637Y-105475212D01*
X138788392Y-105526688D01*
X138724360Y-105544500D01*
X135033640Y-105544500D01*
X134966601Y-105524815D01*
X134920846Y-105472011D01*
X134910902Y-105402853D01*
X134939927Y-105339297D01*
X134977345Y-105310015D01*
X135007554Y-105294622D01*
X135061716Y-105255270D01*
X135061717Y-105255270D01*
X134429408Y-104622962D01*
X134492993Y-104605925D01*
X134607007Y-104540099D01*
X134700099Y-104447007D01*
X134765925Y-104332993D01*
X134782962Y-104269409D01*
X135415270Y-104901717D01*
X135415270Y-104901716D01*
X135454622Y-104847554D01*
X135551095Y-104658217D01*
X135616757Y-104456130D01*
X135616757Y-104456127D01*
X135650000Y-104246246D01*
X135650000Y-104033752D01*
X135644878Y-104001413D01*
X135616757Y-103823872D01*
X135616757Y-103823869D01*
X135551095Y-103621782D01*
X135454624Y-103432449D01*
X135415270Y-103378282D01*
X135415269Y-103378282D01*
X134782962Y-104010590D01*
X134765925Y-103947007D01*
X134700099Y-103832993D01*
X134607007Y-103739901D01*
X134492993Y-103674075D01*
X134429409Y-103657037D01*
X135061716Y-103024728D01*
X135007547Y-102985373D01*
X135007547Y-102985372D01*
X134998500Y-102980763D01*
X134947706Y-102932788D01*
X134930912Y-102864966D01*
X134953451Y-102798832D01*
X134998508Y-102759793D01*
X135007816Y-102755051D01*
X135087007Y-102697515D01*
X135179786Y-102630109D01*
X135179788Y-102630106D01*
X135179792Y-102630104D01*
X135330104Y-102479792D01*
X135330106Y-102479788D01*
X135330109Y-102479786D01*
X135455048Y-102307820D01*
X135455047Y-102307820D01*
X135455051Y-102307816D01*
X135551557Y-102118412D01*
X135617246Y-101916243D01*
X135650500Y-101706287D01*
X135650500Y-101493713D01*
X135617246Y-101283757D01*
X135551557Y-101081588D01*
X135455051Y-100892184D01*
X135455049Y-100892181D01*
X135455048Y-100892179D01*
X135330109Y-100720213D01*
X135179786Y-100569890D01*
X135007820Y-100444951D01*
X135007115Y-100444591D01*
X134999054Y-100440485D01*
X134948259Y-100392512D01*
X134931463Y-100324692D01*
X134953999Y-100258556D01*
X134999054Y-100219515D01*
X135007816Y-100215051D01*
X135029789Y-100199086D01*
X135179786Y-100090109D01*
X135179788Y-100090106D01*
X135179792Y-100090104D01*
X135330104Y-99939792D01*
X135330106Y-99939788D01*
X135330109Y-99939786D01*
X135455048Y-99767820D01*
X135455047Y-99767820D01*
X135455051Y-99767816D01*
X135551557Y-99578412D01*
X135617246Y-99376243D01*
X135650500Y-99166287D01*
X135650500Y-98953713D01*
X135617246Y-98743757D01*
X135551557Y-98541588D01*
X135455051Y-98352184D01*
X135455049Y-98352181D01*
X135455048Y-98352179D01*
X135330109Y-98180213D01*
X135179786Y-98029890D01*
X135007820Y-97904951D01*
X135007115Y-97904591D01*
X134999054Y-97900485D01*
X134948259Y-97852512D01*
X134931463Y-97784692D01*
X134953999Y-97718556D01*
X134999054Y-97679515D01*
X135007816Y-97675051D01*
X135029789Y-97659086D01*
X135179786Y-97550109D01*
X135179788Y-97550106D01*
X135179792Y-97550104D01*
X135330104Y-97399792D01*
X135330106Y-97399788D01*
X135330109Y-97399786D01*
X135455048Y-97227820D01*
X135455047Y-97227820D01*
X135455051Y-97227816D01*
X135551557Y-97038412D01*
X135617246Y-96836243D01*
X135650500Y-96626287D01*
X135650500Y-96413713D01*
X135617246Y-96203757D01*
X135551557Y-96001588D01*
X135455051Y-95812184D01*
X135455049Y-95812181D01*
X135455048Y-95812179D01*
X135330109Y-95640213D01*
X135179786Y-95489890D01*
X135007820Y-95364951D01*
X135007115Y-95364591D01*
X134999054Y-95360485D01*
X134948259Y-95312512D01*
X134931463Y-95244692D01*
X134953999Y-95178556D01*
X134999054Y-95139515D01*
X135007816Y-95135051D01*
X135029789Y-95119086D01*
X135179786Y-95010109D01*
X135179788Y-95010106D01*
X135179792Y-95010104D01*
X135330104Y-94859792D01*
X135330106Y-94859788D01*
X135330109Y-94859786D01*
X135455048Y-94687820D01*
X135455047Y-94687820D01*
X135455051Y-94687816D01*
X135551557Y-94498412D01*
X135617246Y-94296243D01*
X135650500Y-94086287D01*
X135650500Y-93873713D01*
X135617246Y-93663757D01*
X135551557Y-93461588D01*
X135455051Y-93272184D01*
X135455049Y-93272181D01*
X135455048Y-93272179D01*
X135330109Y-93100213D01*
X135179786Y-92949890D01*
X135007820Y-92824951D01*
X135007115Y-92824591D01*
X134999054Y-92820485D01*
X134948259Y-92772512D01*
X134931463Y-92704692D01*
X134953999Y-92638556D01*
X134999054Y-92599515D01*
X135007816Y-92595051D01*
X135029789Y-92579086D01*
X135179786Y-92470109D01*
X135179788Y-92470106D01*
X135179792Y-92470104D01*
X135330104Y-92319792D01*
X135330106Y-92319788D01*
X135330109Y-92319786D01*
X135455048Y-92147820D01*
X135455047Y-92147820D01*
X135455051Y-92147816D01*
X135551557Y-91958412D01*
X135617246Y-91756243D01*
X135650500Y-91546287D01*
X135650500Y-91333713D01*
X135617246Y-91123757D01*
X135551557Y-90921588D01*
X135455051Y-90732184D01*
X135455049Y-90732181D01*
X135455048Y-90732179D01*
X135330109Y-90560213D01*
X135179786Y-90409890D01*
X135007820Y-90284951D01*
X135007115Y-90284591D01*
X134999054Y-90280485D01*
X134948259Y-90232512D01*
X134931463Y-90164692D01*
X134953999Y-90098556D01*
X134999054Y-90059515D01*
X135007816Y-90055051D01*
X135029789Y-90039086D01*
X135179786Y-89930109D01*
X135179788Y-89930106D01*
X135179792Y-89930104D01*
X135330104Y-89779792D01*
X135330106Y-89779788D01*
X135330109Y-89779786D01*
X135455048Y-89607820D01*
X135455047Y-89607820D01*
X135455051Y-89607816D01*
X135551557Y-89418412D01*
X135617246Y-89216243D01*
X135650500Y-89006287D01*
X135650500Y-88793713D01*
X135617246Y-88583757D01*
X135551557Y-88381588D01*
X135455051Y-88192184D01*
X135455049Y-88192181D01*
X135455048Y-88192179D01*
X135330109Y-88020213D01*
X135179786Y-87869890D01*
X135007820Y-87744951D01*
X135007115Y-87744591D01*
X134999054Y-87740485D01*
X134948259Y-87692512D01*
X134931463Y-87624692D01*
X134953999Y-87558556D01*
X134999054Y-87519515D01*
X135007816Y-87515051D01*
X135029789Y-87499086D01*
X135179786Y-87390109D01*
X135179788Y-87390106D01*
X135179792Y-87390104D01*
X135330104Y-87239792D01*
X135330106Y-87239788D01*
X135330109Y-87239786D01*
X135455048Y-87067820D01*
X135455047Y-87067820D01*
X135455051Y-87067816D01*
X135551557Y-86878412D01*
X135617246Y-86676243D01*
X135650500Y-86466287D01*
X135650500Y-86253713D01*
X135617246Y-86043757D01*
X135551557Y-85841588D01*
X135455051Y-85652184D01*
X135455049Y-85652181D01*
X135455048Y-85652179D01*
X135330109Y-85480213D01*
X135179786Y-85329890D01*
X135007820Y-85204951D01*
X135007115Y-85204591D01*
X134999054Y-85200485D01*
X134948259Y-85152512D01*
X134931463Y-85084692D01*
X134953999Y-85018556D01*
X134999054Y-84979515D01*
X135007816Y-84975051D01*
X135029789Y-84959086D01*
X135179786Y-84850109D01*
X135179788Y-84850106D01*
X135179792Y-84850104D01*
X135330104Y-84699792D01*
X135330106Y-84699788D01*
X135330109Y-84699786D01*
X135455048Y-84527820D01*
X135455047Y-84527820D01*
X135455051Y-84527816D01*
X135551557Y-84338412D01*
X135617246Y-84136243D01*
X135650500Y-83926287D01*
X135650500Y-83713713D01*
X135617246Y-83503757D01*
X135551557Y-83301588D01*
X135455051Y-83112184D01*
X135455049Y-83112181D01*
X135455048Y-83112179D01*
X135330109Y-82940213D01*
X135179786Y-82789890D01*
X135007820Y-82664951D01*
X135007115Y-82664591D01*
X134999054Y-82660485D01*
X134948259Y-82612512D01*
X134931463Y-82544692D01*
X134953999Y-82478556D01*
X134999054Y-82439515D01*
X135007816Y-82435051D01*
X135029789Y-82419086D01*
X135179786Y-82310109D01*
X135179788Y-82310106D01*
X135179792Y-82310104D01*
X135330104Y-82159792D01*
X135330106Y-82159788D01*
X135330109Y-82159786D01*
X135455048Y-81987820D01*
X135455047Y-81987820D01*
X135455051Y-81987816D01*
X135551557Y-81798412D01*
X135617246Y-81596243D01*
X135650500Y-81386287D01*
X135650500Y-81173713D01*
X135617246Y-80963757D01*
X135551557Y-80761588D01*
X135455051Y-80572184D01*
X135455049Y-80572181D01*
X135455048Y-80572179D01*
X135330109Y-80400213D01*
X135179786Y-80249890D01*
X135007820Y-80124951D01*
X135007115Y-80124591D01*
X134999054Y-80120485D01*
X134948259Y-80072512D01*
X134931463Y-80004692D01*
X134953999Y-79938556D01*
X134999054Y-79899515D01*
X135007816Y-79895051D01*
X135029789Y-79879086D01*
X135179786Y-79770109D01*
X135179788Y-79770106D01*
X135179792Y-79770104D01*
X135330104Y-79619792D01*
X135330106Y-79619788D01*
X135330109Y-79619786D01*
X135455048Y-79447820D01*
X135455047Y-79447820D01*
X135455051Y-79447816D01*
X135551557Y-79258412D01*
X135617246Y-79056243D01*
X135650500Y-78846287D01*
X135650500Y-78633713D01*
X135617246Y-78423757D01*
X135551557Y-78221588D01*
X135455051Y-78032184D01*
X135455049Y-78032181D01*
X135455048Y-78032179D01*
X135330109Y-77860213D01*
X135216569Y-77746673D01*
X135183084Y-77685350D01*
X135188068Y-77615658D01*
X135229940Y-77559725D01*
X135260915Y-77542810D01*
X135392331Y-77493796D01*
X135507546Y-77407546D01*
X135593796Y-77292331D01*
X135644091Y-77157483D01*
X135650500Y-77097873D01*
X135650499Y-75302128D01*
X135644091Y-75242517D01*
X135612280Y-75157228D01*
X135593797Y-75107671D01*
X135593793Y-75107664D01*
X135507547Y-74992455D01*
X135507544Y-74992452D01*
X135392335Y-74906206D01*
X135392328Y-74906202D01*
X135257482Y-74855908D01*
X135257483Y-74855908D01*
X135197883Y-74849501D01*
X135197881Y-74849500D01*
X135197873Y-74849500D01*
X135197864Y-74849500D01*
X133402129Y-74849500D01*
X133402123Y-74849501D01*
X133342516Y-74855908D01*
X133207671Y-74906202D01*
X133207664Y-74906206D01*
X133092455Y-74992452D01*
X133092452Y-74992455D01*
X133006206Y-75107664D01*
X133006202Y-75107671D01*
X132955908Y-75242517D01*
X132949516Y-75301981D01*
X132949501Y-75302123D01*
X132949500Y-75302135D01*
X132949500Y-77097870D01*
X132949501Y-77097876D01*
X132955908Y-77157483D01*
X133006202Y-77292328D01*
X133006206Y-77292335D01*
X133092452Y-77407544D01*
X133092455Y-77407547D01*
X133207664Y-77493793D01*
X133207671Y-77493797D01*
X133339082Y-77542810D01*
X133395016Y-77584681D01*
X133419433Y-77650145D01*
X133404582Y-77718418D01*
X133383431Y-77746673D01*
X133269889Y-77860215D01*
X133144951Y-78032179D01*
X133048444Y-78221585D01*
X132982753Y-78423760D01*
X132949500Y-78633713D01*
X132949500Y-78846286D01*
X132982753Y-79056239D01*
X133048444Y-79258414D01*
X133144951Y-79447820D01*
X133269890Y-79619786D01*
X133420213Y-79770109D01*
X133592182Y-79895050D01*
X133600946Y-79899516D01*
X133651742Y-79947491D01*
X133668536Y-80015312D01*
X133645998Y-80081447D01*
X133600946Y-80120484D01*
X133592182Y-80124949D01*
X133420213Y-80249890D01*
X133269890Y-80400213D01*
X133144951Y-80572179D01*
X133048444Y-80761585D01*
X132982753Y-80963760D01*
X132949500Y-81173713D01*
X132949500Y-81386286D01*
X132982753Y-81596239D01*
X133048444Y-81798414D01*
X133144951Y-81987820D01*
X133269890Y-82159786D01*
X133420213Y-82310109D01*
X133592182Y-82435050D01*
X133600946Y-82439516D01*
X133651742Y-82487491D01*
X133668536Y-82555312D01*
X133645998Y-82621447D01*
X133600946Y-82660484D01*
X133592182Y-82664949D01*
X133420213Y-82789890D01*
X133269890Y-82940213D01*
X133144951Y-83112179D01*
X133048444Y-83301585D01*
X132982753Y-83503760D01*
X132949500Y-83713713D01*
X132949500Y-83926286D01*
X132982753Y-84136239D01*
X133048444Y-84338414D01*
X133144951Y-84527820D01*
X133269890Y-84699786D01*
X133420213Y-84850109D01*
X133592182Y-84975050D01*
X133600946Y-84979516D01*
X133651742Y-85027491D01*
X133668536Y-85095312D01*
X133645998Y-85161447D01*
X133600946Y-85200484D01*
X133592182Y-85204949D01*
X133420213Y-85329890D01*
X133269890Y-85480213D01*
X133144951Y-85652179D01*
X133048444Y-85841585D01*
X132982753Y-86043760D01*
X132949500Y-86253713D01*
X132949500Y-86466286D01*
X132982753Y-86676239D01*
X133048444Y-86878414D01*
X133144951Y-87067820D01*
X133269890Y-87239786D01*
X133420213Y-87390109D01*
X133592182Y-87515050D01*
X133600946Y-87519516D01*
X133651742Y-87567491D01*
X133668536Y-87635312D01*
X133645998Y-87701447D01*
X133600946Y-87740484D01*
X133592182Y-87744949D01*
X133420213Y-87869890D01*
X133269890Y-88020213D01*
X133144951Y-88192179D01*
X133048444Y-88381585D01*
X132982753Y-88583760D01*
X132949500Y-88793713D01*
X132949500Y-89006286D01*
X132982753Y-89216239D01*
X133048444Y-89418414D01*
X133144951Y-89607820D01*
X133269890Y-89779786D01*
X133420213Y-89930109D01*
X133592182Y-90055050D01*
X133600946Y-90059516D01*
X133651742Y-90107491D01*
X133668536Y-90175312D01*
X133645998Y-90241447D01*
X133600946Y-90280484D01*
X133592182Y-90284949D01*
X133420213Y-90409890D01*
X133269890Y-90560213D01*
X133144951Y-90732179D01*
X133048444Y-90921585D01*
X132982753Y-91123760D01*
X132949500Y-91333713D01*
X132949500Y-91546286D01*
X132982753Y-91756239D01*
X133048444Y-91958414D01*
X133144951Y-92147820D01*
X133269890Y-92319786D01*
X133420213Y-92470109D01*
X133592182Y-92595050D01*
X133600946Y-92599516D01*
X133651742Y-92647491D01*
X133668536Y-92715312D01*
X133645998Y-92781447D01*
X133600946Y-92820484D01*
X133592182Y-92824949D01*
X133420213Y-92949890D01*
X133269890Y-93100213D01*
X133144951Y-93272179D01*
X133048444Y-93461585D01*
X132982753Y-93663760D01*
X132949500Y-93873713D01*
X132949500Y-94086286D01*
X132982753Y-94296239D01*
X133048444Y-94498414D01*
X133144951Y-94687820D01*
X133269890Y-94859786D01*
X133420213Y-95010109D01*
X133592182Y-95135050D01*
X133600946Y-95139516D01*
X133651742Y-95187491D01*
X133668536Y-95255312D01*
X133645998Y-95321447D01*
X133600946Y-95360484D01*
X133592182Y-95364949D01*
X133420213Y-95489890D01*
X133269890Y-95640213D01*
X133144951Y-95812179D01*
X133048444Y-96001585D01*
X132982753Y-96203760D01*
X132949500Y-96413713D01*
X132949500Y-96626286D01*
X132982753Y-96836239D01*
X133048444Y-97038414D01*
X133144951Y-97227820D01*
X133269890Y-97399786D01*
X133420213Y-97550109D01*
X133592182Y-97675050D01*
X133600946Y-97679516D01*
X133651742Y-97727491D01*
X133668536Y-97795312D01*
X133645998Y-97861447D01*
X133600946Y-97900484D01*
X133592182Y-97904949D01*
X133420213Y-98029890D01*
X133269890Y-98180213D01*
X133144951Y-98352179D01*
X133048444Y-98541585D01*
X132982753Y-98743760D01*
X132949500Y-98953713D01*
X132949500Y-99166286D01*
X132982753Y-99376239D01*
X133048444Y-99578414D01*
X133144951Y-99767820D01*
X133269890Y-99939786D01*
X133420213Y-100090109D01*
X133592182Y-100215050D01*
X133600946Y-100219516D01*
X133651742Y-100267491D01*
X133668536Y-100335312D01*
X133645998Y-100401447D01*
X133600946Y-100440484D01*
X133592182Y-100444949D01*
X133420213Y-100569890D01*
X133269890Y-100720213D01*
X133144951Y-100892179D01*
X133048444Y-101081585D01*
X132982753Y-101283760D01*
X132956923Y-101446848D01*
X132949500Y-101493713D01*
X132949500Y-101706287D01*
X132982754Y-101916243D01*
X133047946Y-102116883D01*
X133048444Y-102118414D01*
X133144951Y-102307820D01*
X133269890Y-102479786D01*
X133420213Y-102630109D01*
X133592179Y-102755048D01*
X133592181Y-102755049D01*
X133592184Y-102755051D01*
X133601493Y-102759794D01*
X133652290Y-102807766D01*
X133669087Y-102875587D01*
X133646552Y-102941722D01*
X133601505Y-102980760D01*
X133592446Y-102985376D01*
X133592440Y-102985380D01*
X133538282Y-103024727D01*
X133538282Y-103024728D01*
X134170591Y-103657037D01*
X134107007Y-103674075D01*
X133992993Y-103739901D01*
X133899901Y-103832993D01*
X133834075Y-103947007D01*
X133817037Y-104010591D01*
X133184728Y-103378282D01*
X133184727Y-103378282D01*
X133145380Y-103432439D01*
X133048904Y-103621782D01*
X132983242Y-103823869D01*
X132983242Y-103823872D01*
X132950000Y-104033753D01*
X132950000Y-104246246D01*
X132983242Y-104456127D01*
X132983242Y-104456130D01*
X133048904Y-104658217D01*
X133145375Y-104847550D01*
X133184728Y-104901716D01*
X133817037Y-104269408D01*
X133834075Y-104332993D01*
X133899901Y-104447007D01*
X133992993Y-104540099D01*
X134107007Y-104605925D01*
X134170590Y-104622962D01*
X133538282Y-105255269D01*
X133538282Y-105255270D01*
X133592449Y-105294624D01*
X133622655Y-105310015D01*
X133673451Y-105357989D01*
X133690246Y-105425810D01*
X133667709Y-105491945D01*
X133612994Y-105535397D01*
X133566360Y-105544500D01*
X131866300Y-105544500D01*
X131799261Y-105524815D01*
X131753506Y-105472011D01*
X131742300Y-105420500D01*
X131742300Y-68721900D01*
X131761985Y-68654861D01*
X131814789Y-68609106D01*
X131866300Y-68597900D01*
X160538500Y-68597900D01*
X160605539Y-68617585D01*
G37*
%TD.AperFunction*%
%TD*%
M02*
