M48
; DRILL file {KiCad 9.0.4} date 2025-11-22T21:14:19+1300
; FORMAT={-:-/ absolute / metric / decimal}
; #@! TF.CreationDate,2025-11-22T21:14:19+13:00
; #@! TF.GenerationSoftware,Kicad,Pcbnew,9.0.4
; #@! TF.FileFunction,Plated,1,2,PTH
FMAT,2
METRIC
; #@! TA.AperFunction,Plated,PTH,ComponentDrill
T1C0.800
; #@! TA.AperFunction,Plated,PTH,ComponentDrill
T2C1.000
%
G90
G05
T1
X139.235Y-71.069
X139.235Y-73.609
X139.235Y-76.149
X139.235Y-78.689
X139.235Y-81.229
X139.235Y-83.769
X139.235Y-86.309
X139.235Y-88.849
X139.235Y-91.389
X139.235Y-93.929
X139.235Y-96.469
X139.235Y-99.009
X139.235Y-101.549
X139.235Y-104.089
X139.235Y-106.629
X139.235Y-109.169
X154.475Y-71.069
X154.475Y-73.609
X154.475Y-76.149
X154.475Y-78.689
X154.475Y-81.229
X154.475Y-83.769
X154.475Y-86.309
X154.475Y-88.849
X154.475Y-91.389
X154.475Y-93.929
X154.475Y-96.469
X154.475Y-99.009
X154.475Y-101.549
X154.475Y-104.089
X154.475Y-106.629
X154.475Y-109.169
T2
X134.3Y-76.2
X134.3Y-78.74
X134.3Y-81.28
X134.3Y-83.82
X134.3Y-86.36
X134.3Y-88.9
X134.3Y-91.44
X134.3Y-93.98
X134.3Y-96.52
X134.3Y-99.06
X134.3Y-101.6
X134.3Y-104.14
X149.54Y-76.2
X149.54Y-78.74
X149.54Y-81.28
X149.54Y-83.82
X149.54Y-86.36
X149.54Y-88.9
X149.54Y-91.44
X149.54Y-93.98
X149.54Y-96.52
X149.54Y-99.06
X149.54Y-101.6
X149.54Y-104.14
X158.725Y-101.244
X158.725Y-103.784
M30
