%TF.GenerationSoftware,KiCad,Pcbnew,9.0.4*%
%TF.CreationDate,2025-11-22T21:14:12+13:00*%
%TF.ProjectId,2364replacement,32333634-7265-4706-9c61-63656d656e74,rev?*%
%TF.SameCoordinates,Original*%
%TF.FileFunction,Legend,Top*%
%TF.FilePolarity,Positive*%
%FSLAX46Y46*%
G04 Gerber Fmt 4.6, Leading zero omitted, Abs format (unit mm)*
G04 Created by KiCad (PCBNEW 9.0.4) date 2025-11-22 21:14:12*
%MOMM*%
%LPD*%
G01*
G04 APERTURE LIST*
%ADD10C,1.000000*%
%ADD11C,0.100000*%
%ADD12C,0.200000*%
%ADD13C,0.150000*%
%ADD14C,0.120000*%
G04 APERTURE END LIST*
D10*
X136293513Y-73245476D02*
X134007798Y-73245476D01*
X135150655Y-73245476D02*
X135150655Y-69245476D01*
X135150655Y-69245476D02*
X134769703Y-69816904D01*
X134769703Y-69816904D02*
X134388751Y-70197857D01*
X134388751Y-70197857D02*
X134007798Y-70388333D01*
D11*
X136241769Y-68515085D02*
X136279865Y-68476990D01*
X136279865Y-68476990D02*
X136356055Y-68438895D01*
X136356055Y-68438895D02*
X136546531Y-68438895D01*
X136546531Y-68438895D02*
X136622722Y-68476990D01*
X136622722Y-68476990D02*
X136660817Y-68515085D01*
X136660817Y-68515085D02*
X136698912Y-68591276D01*
X136698912Y-68591276D02*
X136698912Y-68667466D01*
X136698912Y-68667466D02*
X136660817Y-68781752D01*
X136660817Y-68781752D02*
X136203674Y-69238895D01*
X136203674Y-69238895D02*
X136698912Y-69238895D01*
X136965579Y-68438895D02*
X137460817Y-68438895D01*
X137460817Y-68438895D02*
X137194151Y-68743657D01*
X137194151Y-68743657D02*
X137308436Y-68743657D01*
X137308436Y-68743657D02*
X137384627Y-68781752D01*
X137384627Y-68781752D02*
X137422722Y-68819847D01*
X137422722Y-68819847D02*
X137460817Y-68896038D01*
X137460817Y-68896038D02*
X137460817Y-69086514D01*
X137460817Y-69086514D02*
X137422722Y-69162704D01*
X137422722Y-69162704D02*
X137384627Y-69200800D01*
X137384627Y-69200800D02*
X137308436Y-69238895D01*
X137308436Y-69238895D02*
X137079865Y-69238895D01*
X137079865Y-69238895D02*
X137003674Y-69200800D01*
X137003674Y-69200800D02*
X136965579Y-69162704D01*
X138146532Y-68438895D02*
X137994151Y-68438895D01*
X137994151Y-68438895D02*
X137917960Y-68476990D01*
X137917960Y-68476990D02*
X137879865Y-68515085D01*
X137879865Y-68515085D02*
X137803675Y-68629371D01*
X137803675Y-68629371D02*
X137765579Y-68781752D01*
X137765579Y-68781752D02*
X137765579Y-69086514D01*
X137765579Y-69086514D02*
X137803675Y-69162704D01*
X137803675Y-69162704D02*
X137841770Y-69200800D01*
X137841770Y-69200800D02*
X137917960Y-69238895D01*
X137917960Y-69238895D02*
X138070341Y-69238895D01*
X138070341Y-69238895D02*
X138146532Y-69200800D01*
X138146532Y-69200800D02*
X138184627Y-69162704D01*
X138184627Y-69162704D02*
X138222722Y-69086514D01*
X138222722Y-69086514D02*
X138222722Y-68896038D01*
X138222722Y-68896038D02*
X138184627Y-68819847D01*
X138184627Y-68819847D02*
X138146532Y-68781752D01*
X138146532Y-68781752D02*
X138070341Y-68743657D01*
X138070341Y-68743657D02*
X137917960Y-68743657D01*
X137917960Y-68743657D02*
X137841770Y-68781752D01*
X137841770Y-68781752D02*
X137803675Y-68819847D01*
X137803675Y-68819847D02*
X137765579Y-68896038D01*
X138908437Y-68705561D02*
X138908437Y-69238895D01*
X138717961Y-68400800D02*
X138527484Y-68972228D01*
X138527484Y-68972228D02*
X139022723Y-68972228D01*
X139327485Y-68934133D02*
X139937009Y-68934133D01*
X140279865Y-69010323D02*
X140660818Y-69010323D01*
X140203675Y-69238895D02*
X140470342Y-68438895D01*
X140470342Y-68438895D02*
X140737008Y-69238895D01*
X140889389Y-68438895D02*
X141346532Y-68438895D01*
X141117960Y-69238895D02*
X141117960Y-68438895D01*
X141575103Y-68515085D02*
X141613199Y-68476990D01*
X141613199Y-68476990D02*
X141689389Y-68438895D01*
X141689389Y-68438895D02*
X141879865Y-68438895D01*
X141879865Y-68438895D02*
X141956056Y-68476990D01*
X141956056Y-68476990D02*
X141994151Y-68515085D01*
X141994151Y-68515085D02*
X142032246Y-68591276D01*
X142032246Y-68591276D02*
X142032246Y-68667466D01*
X142032246Y-68667466D02*
X141994151Y-68781752D01*
X141994151Y-68781752D02*
X141537008Y-69238895D01*
X141537008Y-69238895D02*
X142032246Y-69238895D01*
X142489389Y-68781752D02*
X142413199Y-68743657D01*
X142413199Y-68743657D02*
X142375104Y-68705561D01*
X142375104Y-68705561D02*
X142337008Y-68629371D01*
X142337008Y-68629371D02*
X142337008Y-68591276D01*
X142337008Y-68591276D02*
X142375104Y-68515085D01*
X142375104Y-68515085D02*
X142413199Y-68476990D01*
X142413199Y-68476990D02*
X142489389Y-68438895D01*
X142489389Y-68438895D02*
X142641770Y-68438895D01*
X142641770Y-68438895D02*
X142717961Y-68476990D01*
X142717961Y-68476990D02*
X142756056Y-68515085D01*
X142756056Y-68515085D02*
X142794151Y-68591276D01*
X142794151Y-68591276D02*
X142794151Y-68629371D01*
X142794151Y-68629371D02*
X142756056Y-68705561D01*
X142756056Y-68705561D02*
X142717961Y-68743657D01*
X142717961Y-68743657D02*
X142641770Y-68781752D01*
X142641770Y-68781752D02*
X142489389Y-68781752D01*
X142489389Y-68781752D02*
X142413199Y-68819847D01*
X142413199Y-68819847D02*
X142375104Y-68857942D01*
X142375104Y-68857942D02*
X142337008Y-68934133D01*
X142337008Y-68934133D02*
X142337008Y-69086514D01*
X142337008Y-69086514D02*
X142375104Y-69162704D01*
X142375104Y-69162704D02*
X142413199Y-69200800D01*
X142413199Y-69200800D02*
X142489389Y-69238895D01*
X142489389Y-69238895D02*
X142641770Y-69238895D01*
X142641770Y-69238895D02*
X142717961Y-69200800D01*
X142717961Y-69200800D02*
X142756056Y-69162704D01*
X142756056Y-69162704D02*
X142794151Y-69086514D01*
X142794151Y-69086514D02*
X142794151Y-68934133D01*
X142794151Y-68934133D02*
X142756056Y-68857942D01*
X142756056Y-68857942D02*
X142717961Y-68819847D01*
X142717961Y-68819847D02*
X142641770Y-68781752D01*
X143594152Y-69162704D02*
X143556056Y-69200800D01*
X143556056Y-69200800D02*
X143441771Y-69238895D01*
X143441771Y-69238895D02*
X143365580Y-69238895D01*
X143365580Y-69238895D02*
X143251294Y-69200800D01*
X143251294Y-69200800D02*
X143175104Y-69124609D01*
X143175104Y-69124609D02*
X143137009Y-69048419D01*
X143137009Y-69048419D02*
X143098913Y-68896038D01*
X143098913Y-68896038D02*
X143098913Y-68781752D01*
X143098913Y-68781752D02*
X143137009Y-68629371D01*
X143137009Y-68629371D02*
X143175104Y-68553180D01*
X143175104Y-68553180D02*
X143251294Y-68476990D01*
X143251294Y-68476990D02*
X143365580Y-68438895D01*
X143365580Y-68438895D02*
X143441771Y-68438895D01*
X143441771Y-68438895D02*
X143556056Y-68476990D01*
X143556056Y-68476990D02*
X143594152Y-68515085D01*
X144279866Y-68438895D02*
X144127485Y-68438895D01*
X144127485Y-68438895D02*
X144051294Y-68476990D01*
X144051294Y-68476990D02*
X144013199Y-68515085D01*
X144013199Y-68515085D02*
X143937009Y-68629371D01*
X143937009Y-68629371D02*
X143898913Y-68781752D01*
X143898913Y-68781752D02*
X143898913Y-69086514D01*
X143898913Y-69086514D02*
X143937009Y-69162704D01*
X143937009Y-69162704D02*
X143975104Y-69200800D01*
X143975104Y-69200800D02*
X144051294Y-69238895D01*
X144051294Y-69238895D02*
X144203675Y-69238895D01*
X144203675Y-69238895D02*
X144279866Y-69200800D01*
X144279866Y-69200800D02*
X144317961Y-69162704D01*
X144317961Y-69162704D02*
X144356056Y-69086514D01*
X144356056Y-69086514D02*
X144356056Y-68896038D01*
X144356056Y-68896038D02*
X144317961Y-68819847D01*
X144317961Y-68819847D02*
X144279866Y-68781752D01*
X144279866Y-68781752D02*
X144203675Y-68743657D01*
X144203675Y-68743657D02*
X144051294Y-68743657D01*
X144051294Y-68743657D02*
X143975104Y-68781752D01*
X143975104Y-68781752D02*
X143937009Y-68819847D01*
X143937009Y-68819847D02*
X143898913Y-68896038D01*
X145041771Y-68705561D02*
X145041771Y-69238895D01*
X144851295Y-68400800D02*
X144660818Y-68972228D01*
X144660818Y-68972228D02*
X145156057Y-68972228D01*
X146070343Y-69238895D02*
X146070343Y-68438895D01*
X146070343Y-68438895D02*
X146375105Y-68438895D01*
X146375105Y-68438895D02*
X146451295Y-68476990D01*
X146451295Y-68476990D02*
X146489390Y-68515085D01*
X146489390Y-68515085D02*
X146527486Y-68591276D01*
X146527486Y-68591276D02*
X146527486Y-68705561D01*
X146527486Y-68705561D02*
X146489390Y-68781752D01*
X146489390Y-68781752D02*
X146451295Y-68819847D01*
X146451295Y-68819847D02*
X146375105Y-68857942D01*
X146375105Y-68857942D02*
X146070343Y-68857942D01*
X147327486Y-69238895D02*
X147060819Y-68857942D01*
X146870343Y-69238895D02*
X146870343Y-68438895D01*
X146870343Y-68438895D02*
X147175105Y-68438895D01*
X147175105Y-68438895D02*
X147251295Y-68476990D01*
X147251295Y-68476990D02*
X147289390Y-68515085D01*
X147289390Y-68515085D02*
X147327486Y-68591276D01*
X147327486Y-68591276D02*
X147327486Y-68705561D01*
X147327486Y-68705561D02*
X147289390Y-68781752D01*
X147289390Y-68781752D02*
X147251295Y-68819847D01*
X147251295Y-68819847D02*
X147175105Y-68857942D01*
X147175105Y-68857942D02*
X146870343Y-68857942D01*
X147822724Y-68438895D02*
X147975105Y-68438895D01*
X147975105Y-68438895D02*
X148051295Y-68476990D01*
X148051295Y-68476990D02*
X148127486Y-68553180D01*
X148127486Y-68553180D02*
X148165581Y-68705561D01*
X148165581Y-68705561D02*
X148165581Y-68972228D01*
X148165581Y-68972228D02*
X148127486Y-69124609D01*
X148127486Y-69124609D02*
X148051295Y-69200800D01*
X148051295Y-69200800D02*
X147975105Y-69238895D01*
X147975105Y-69238895D02*
X147822724Y-69238895D01*
X147822724Y-69238895D02*
X147746533Y-69200800D01*
X147746533Y-69200800D02*
X147670343Y-69124609D01*
X147670343Y-69124609D02*
X147632247Y-68972228D01*
X147632247Y-68972228D02*
X147632247Y-68705561D01*
X147632247Y-68705561D02*
X147670343Y-68553180D01*
X147670343Y-68553180D02*
X147746533Y-68476990D01*
X147746533Y-68476990D02*
X147822724Y-68438895D01*
X148927485Y-68476990D02*
X148851295Y-68438895D01*
X148851295Y-68438895D02*
X148737009Y-68438895D01*
X148737009Y-68438895D02*
X148622723Y-68476990D01*
X148622723Y-68476990D02*
X148546533Y-68553180D01*
X148546533Y-68553180D02*
X148508438Y-68629371D01*
X148508438Y-68629371D02*
X148470342Y-68781752D01*
X148470342Y-68781752D02*
X148470342Y-68896038D01*
X148470342Y-68896038D02*
X148508438Y-69048419D01*
X148508438Y-69048419D02*
X148546533Y-69124609D01*
X148546533Y-69124609D02*
X148622723Y-69200800D01*
X148622723Y-69200800D02*
X148737009Y-69238895D01*
X148737009Y-69238895D02*
X148813200Y-69238895D01*
X148813200Y-69238895D02*
X148927485Y-69200800D01*
X148927485Y-69200800D02*
X148965581Y-69162704D01*
X148965581Y-69162704D02*
X148965581Y-68896038D01*
X148965581Y-68896038D02*
X148813200Y-68896038D01*
X149765581Y-69238895D02*
X149498914Y-68857942D01*
X149308438Y-69238895D02*
X149308438Y-68438895D01*
X149308438Y-68438895D02*
X149613200Y-68438895D01*
X149613200Y-68438895D02*
X149689390Y-68476990D01*
X149689390Y-68476990D02*
X149727485Y-68515085D01*
X149727485Y-68515085D02*
X149765581Y-68591276D01*
X149765581Y-68591276D02*
X149765581Y-68705561D01*
X149765581Y-68705561D02*
X149727485Y-68781752D01*
X149727485Y-68781752D02*
X149689390Y-68819847D01*
X149689390Y-68819847D02*
X149613200Y-68857942D01*
X149613200Y-68857942D02*
X149308438Y-68857942D01*
X150070342Y-69010323D02*
X150451295Y-69010323D01*
X149994152Y-69238895D02*
X150260819Y-68438895D01*
X150260819Y-68438895D02*
X150527485Y-69238895D01*
X150794152Y-69238895D02*
X150794152Y-68438895D01*
X150794152Y-68438895D02*
X151060818Y-69010323D01*
X151060818Y-69010323D02*
X151327485Y-68438895D01*
X151327485Y-68438895D02*
X151327485Y-69238895D01*
X152279866Y-69010323D02*
X152660819Y-69010323D01*
X152203676Y-69238895D02*
X152470343Y-68438895D01*
X152470343Y-68438895D02*
X152737009Y-69238895D01*
X153003676Y-69238895D02*
X153003676Y-68438895D01*
X153003676Y-68438895D02*
X153194152Y-68438895D01*
X153194152Y-68438895D02*
X153308438Y-68476990D01*
X153308438Y-68476990D02*
X153384628Y-68553180D01*
X153384628Y-68553180D02*
X153422723Y-68629371D01*
X153422723Y-68629371D02*
X153460819Y-68781752D01*
X153460819Y-68781752D02*
X153460819Y-68896038D01*
X153460819Y-68896038D02*
X153422723Y-69048419D01*
X153422723Y-69048419D02*
X153384628Y-69124609D01*
X153384628Y-69124609D02*
X153308438Y-69200800D01*
X153308438Y-69200800D02*
X153194152Y-69238895D01*
X153194152Y-69238895D02*
X153003676Y-69238895D01*
X153765580Y-69010323D02*
X154146533Y-69010323D01*
X153689390Y-69238895D02*
X153956057Y-68438895D01*
X153956057Y-68438895D02*
X154222723Y-69238895D01*
X154489390Y-69238895D02*
X154489390Y-68438895D01*
X154489390Y-68438895D02*
X154794152Y-68438895D01*
X154794152Y-68438895D02*
X154870342Y-68476990D01*
X154870342Y-68476990D02*
X154908437Y-68515085D01*
X154908437Y-68515085D02*
X154946533Y-68591276D01*
X154946533Y-68591276D02*
X154946533Y-68705561D01*
X154946533Y-68705561D02*
X154908437Y-68781752D01*
X154908437Y-68781752D02*
X154870342Y-68819847D01*
X154870342Y-68819847D02*
X154794152Y-68857942D01*
X154794152Y-68857942D02*
X154489390Y-68857942D01*
X155175104Y-68438895D02*
X155632247Y-68438895D01*
X155403675Y-69238895D02*
X155403675Y-68438895D01*
X155898914Y-68819847D02*
X156165580Y-68819847D01*
X156279866Y-69238895D02*
X155898914Y-69238895D01*
X155898914Y-69238895D02*
X155898914Y-68438895D01*
X155898914Y-68438895D02*
X156279866Y-68438895D01*
X157079867Y-69238895D02*
X156813200Y-68857942D01*
X156622724Y-69238895D02*
X156622724Y-68438895D01*
X156622724Y-68438895D02*
X156927486Y-68438895D01*
X156927486Y-68438895D02*
X157003676Y-68476990D01*
X157003676Y-68476990D02*
X157041771Y-68515085D01*
X157041771Y-68515085D02*
X157079867Y-68591276D01*
X157079867Y-68591276D02*
X157079867Y-68705561D01*
X157079867Y-68705561D02*
X157041771Y-68781752D01*
X157041771Y-68781752D02*
X157003676Y-68819847D01*
X157003676Y-68819847D02*
X156927486Y-68857942D01*
X156927486Y-68857942D02*
X156622724Y-68857942D01*
D12*
X158437054Y-98743104D02*
X158913244Y-98743104D01*
X158341816Y-99028819D02*
X158675149Y-98028819D01*
X158675149Y-98028819D02*
X159008482Y-99028819D01*
X158818006Y-105998009D02*
X158960863Y-106045628D01*
X158960863Y-106045628D02*
X159008482Y-106093247D01*
X159008482Y-106093247D02*
X159056101Y-106188485D01*
X159056101Y-106188485D02*
X159056101Y-106331342D01*
X159056101Y-106331342D02*
X159008482Y-106426580D01*
X159008482Y-106426580D02*
X158960863Y-106474200D01*
X158960863Y-106474200D02*
X158865625Y-106521819D01*
X158865625Y-106521819D02*
X158484673Y-106521819D01*
X158484673Y-106521819D02*
X158484673Y-105521819D01*
X158484673Y-105521819D02*
X158818006Y-105521819D01*
X158818006Y-105521819D02*
X158913244Y-105569438D01*
X158913244Y-105569438D02*
X158960863Y-105617057D01*
X158960863Y-105617057D02*
X159008482Y-105712295D01*
X159008482Y-105712295D02*
X159008482Y-105807533D01*
X159008482Y-105807533D02*
X158960863Y-105902771D01*
X158960863Y-105902771D02*
X158913244Y-105950390D01*
X158913244Y-105950390D02*
X158818006Y-105998009D01*
X158818006Y-105998009D02*
X158484673Y-105998009D01*
D13*
X141173295Y-70651019D02*
X141173295Y-71460542D01*
X141173295Y-71460542D02*
X141220914Y-71555780D01*
X141220914Y-71555780D02*
X141268533Y-71603400D01*
X141268533Y-71603400D02*
X141363771Y-71651019D01*
X141363771Y-71651019D02*
X141554247Y-71651019D01*
X141554247Y-71651019D02*
X141649485Y-71603400D01*
X141649485Y-71603400D02*
X141697104Y-71555780D01*
X141697104Y-71555780D02*
X141744723Y-71460542D01*
X141744723Y-71460542D02*
X141744723Y-70651019D01*
X142173295Y-70746257D02*
X142220914Y-70698638D01*
X142220914Y-70698638D02*
X142316152Y-70651019D01*
X142316152Y-70651019D02*
X142554247Y-70651019D01*
X142554247Y-70651019D02*
X142649485Y-70698638D01*
X142649485Y-70698638D02*
X142697104Y-70746257D01*
X142697104Y-70746257D02*
X142744723Y-70841495D01*
X142744723Y-70841495D02*
X142744723Y-70936733D01*
X142744723Y-70936733D02*
X142697104Y-71079590D01*
X142697104Y-71079590D02*
X142125676Y-71651019D01*
X142125676Y-71651019D02*
X142744723Y-71651019D01*
D14*
%TO.C,J3*%
X132920000Y-74820000D02*
X134300000Y-74820000D01*
X132920000Y-76200000D02*
X132920000Y-74820000D01*
X132920000Y-77470000D02*
X132920000Y-105520000D01*
X132920000Y-77470000D02*
X135680000Y-77470000D01*
X132920000Y-105520000D02*
X135680000Y-105520000D01*
X135680000Y-77470000D02*
X135680000Y-105520000D01*
%TO.C,J2*%
X148160000Y-74820000D02*
X149540000Y-74820000D01*
X148160000Y-76200000D02*
X148160000Y-74820000D01*
X148160000Y-77470000D02*
X148160000Y-105520000D01*
X148160000Y-77470000D02*
X150920000Y-77470000D01*
X148160000Y-105520000D02*
X150920000Y-105520000D01*
X150920000Y-77470000D02*
X150920000Y-105520000D01*
%TO.C,J4*%
X157344600Y-99864400D02*
X158724600Y-99864400D01*
X157344600Y-101244400D02*
X157344600Y-99864400D01*
X157344600Y-102514400D02*
X157344600Y-105164400D01*
X157344600Y-102514400D02*
X160104600Y-102514400D01*
X157344600Y-105164400D02*
X160104600Y-105164400D01*
X160104600Y-102514400D02*
X160104600Y-105164400D01*
%TO.C,U2*%
X140795200Y-69739200D02*
X140795200Y-110499200D01*
X140795200Y-110499200D02*
X152915200Y-110499200D01*
X145855200Y-69739200D02*
X140795200Y-69739200D01*
X152915200Y-69739200D02*
X147855200Y-69739200D01*
X152915200Y-110499200D02*
X152915200Y-69739200D01*
X147855200Y-69739200D02*
G75*
G02*
X145855200Y-69739200I-1000000J0D01*
G01*
%TD*%
M02*
