%TF.GenerationSoftware,KiCad,Pcbnew,9.0.4*%
%TF.CreationDate,2025-11-22T21:14:12+13:00*%
%TF.ProjectId,2364replacement,32333634-7265-4706-9c61-63656d656e74,rev?*%
%TF.SameCoordinates,Original*%
%TF.FileFunction,Copper,L1,Top*%
%TF.FilePolarity,Positive*%
%FSLAX46Y46*%
G04 Gerber Fmt 4.6, Leading zero omitted, Abs format (unit mm)*
G04 Created by KiCad (PCBNEW 9.0.4) date 2025-11-22 21:14:12*
%MOMM*%
%LPD*%
G01*
G04 APERTURE LIST*
G04 Aperture macros list*
%AMRoundRect*
0 Rectangle with rounded corners*
0 $1 Rounding radius*
0 $2 $3 $4 $5 $6 $7 $8 $9 X,Y pos of 4 corners*
0 Add a 4 corners polygon primitive as box body*
4,1,4,$2,$3,$4,$5,$6,$7,$8,$9,$2,$3,0*
0 Add four circle primitives for the rounded corners*
1,1,$1+$1,$2,$3*
1,1,$1+$1,$4,$5*
1,1,$1+$1,$6,$7*
1,1,$1+$1,$8,$9*
0 Add four rect primitives between the rounded corners*
20,1,$1+$1,$2,$3,$4,$5,0*
20,1,$1+$1,$4,$5,$6,$7,0*
20,1,$1+$1,$6,$7,$8,$9,0*
20,1,$1+$1,$8,$9,$2,$3,0*%
G04 Aperture macros list end*
%TA.AperFunction,ComponentPad*%
%ADD10R,1.700000X1.700000*%
%TD*%
%TA.AperFunction,ComponentPad*%
%ADD11C,1.700000*%
%TD*%
%TA.AperFunction,ComponentPad*%
%ADD12RoundRect,0.250000X-0.950000X-0.550000X0.950000X-0.550000X0.950000X0.550000X-0.950000X0.550000X0*%
%TD*%
%TA.AperFunction,ComponentPad*%
%ADD13O,2.400000X1.600000*%
%TD*%
G04 APERTURE END LIST*
D10*
%TO.P,J3,1,Pin_1*%
%TO.N,A7*%
X134300000Y-76200000D03*
D11*
%TO.P,J3,2,Pin_2*%
%TO.N,A6*%
X134300000Y-78740000D03*
%TO.P,J3,3,Pin_3*%
%TO.N,A5*%
X134300000Y-81280000D03*
%TO.P,J3,4,Pin_4*%
%TO.N,A4*%
X134300000Y-83820000D03*
%TO.P,J3,5,Pin_5*%
%TO.N,A3*%
X134300000Y-86360000D03*
%TO.P,J3,6,Pin_6*%
%TO.N,A2*%
X134300000Y-88900000D03*
%TO.P,J3,7,Pin_7*%
%TO.N,A1*%
X134300000Y-91440000D03*
%TO.P,J3,8,Pin_8*%
%TO.N,A0*%
X134300000Y-93980000D03*
%TO.P,J3,9,Pin_9*%
%TO.N,D0*%
X134300000Y-96520000D03*
%TO.P,J3,10,Pin_10*%
%TO.N,D1*%
X134300000Y-99060000D03*
%TO.P,J3,11,Pin_11*%
%TO.N,D2*%
X134300000Y-101600000D03*
%TO.P,J3,12,Pin_12*%
%TO.N,GND*%
X134300000Y-104140000D03*
%TD*%
D10*
%TO.P,J2,1,Pin_1*%
%TO.N,VCC*%
X149540000Y-76200000D03*
D11*
%TO.P,J2,2,Pin_2*%
%TO.N,A8*%
X149540000Y-78740000D03*
%TO.P,J2,3,Pin_3*%
%TO.N,A9*%
X149540000Y-81280000D03*
%TO.P,J2,4,Pin_4*%
%TO.N,A12*%
X149540000Y-83820000D03*
%TO.P,J2,5,Pin_5*%
%TO.N,nCS*%
X149540000Y-86360000D03*
%TO.P,J2,6,Pin_6*%
%TO.N,A10*%
X149540000Y-88900000D03*
%TO.P,J2,7,Pin_7*%
%TO.N,A11*%
X149540000Y-91440000D03*
%TO.P,J2,8,Pin_8*%
%TO.N,D7*%
X149540000Y-93980000D03*
%TO.P,J2,9,Pin_9*%
%TO.N,D6*%
X149540000Y-96520000D03*
%TO.P,J2,10,Pin_10*%
%TO.N,D5*%
X149540000Y-99060000D03*
%TO.P,J2,11,Pin_11*%
%TO.N,D4*%
X149540000Y-101600000D03*
%TO.P,J2,12,Pin_12*%
%TO.N,D3*%
X149540000Y-104140000D03*
%TD*%
D10*
%TO.P,J4,1,Pin_1*%
%TO.N,Net-(J4-Pin_1)*%
X158724600Y-101244400D03*
D11*
%TO.P,J4,2,Pin_2*%
%TO.N,Net-(J4-Pin_2)*%
X158724600Y-103784400D03*
%TD*%
D12*
%TO.P,U2,1,Pin_1*%
%TO.N,N/C*%
X139235200Y-71069200D03*
D13*
%TO.P,U2,2,Pin_2*%
X139235200Y-73609200D03*
%TO.P,U2,3,Pin_3*%
%TO.N,A12*%
X139235200Y-76149200D03*
%TO.P,U2,4,Pin_4*%
%TO.N,A7*%
X139235200Y-78689200D03*
%TO.P,U2,5,Pin_5*%
%TO.N,A6*%
X139235200Y-81229200D03*
%TO.P,U2,6,Pin_6*%
%TO.N,A5*%
X139235200Y-83769200D03*
%TO.P,U2,7,Pin_7*%
%TO.N,A4*%
X139235200Y-86309200D03*
%TO.P,U2,8,Pin_8*%
%TO.N,A3*%
X139235200Y-88849200D03*
%TO.P,U2,9,Pin_9*%
%TO.N,A2*%
X139235200Y-91389200D03*
%TO.P,U2,10,Pin_10*%
%TO.N,A1*%
X139235200Y-93929200D03*
%TO.P,U2,11,Pin_11*%
%TO.N,A0*%
X139235200Y-96469200D03*
%TO.P,U2,12,Pin_12*%
%TO.N,N/C*%
X139235200Y-99009200D03*
%TO.P,U2,13,Pin_13*%
%TO.N,D0*%
X139235200Y-101549200D03*
%TO.P,U2,14,Pin_14*%
%TO.N,D1*%
X139235200Y-104089200D03*
%TO.P,U2,15,Pin_15*%
%TO.N,D2*%
X139235200Y-106629200D03*
%TO.P,U2,16,Pin_16*%
%TO.N,GND*%
X139235200Y-109169200D03*
%TO.P,U2,17,Pin_17*%
%TO.N,N/C*%
X154475200Y-109169200D03*
%TO.P,U2,18,Pin_18*%
%TO.N,D3*%
X154475200Y-106629200D03*
%TO.P,U2,19,Pin_19*%
%TO.N,D4*%
X154475200Y-104089200D03*
%TO.P,U2,20,Pin_20*%
%TO.N,D5*%
X154475200Y-101549200D03*
%TO.P,U2,21,Pin_21*%
%TO.N,D6*%
X154475200Y-99009200D03*
%TO.P,U2,22,Pin_22*%
%TO.N,D7*%
X154475200Y-96469200D03*
%TO.P,U2,23,Pin_23*%
%TO.N,nCS*%
X154475200Y-93929200D03*
%TO.P,U2,24,Pin_24*%
%TO.N,A10*%
X154475200Y-91389200D03*
%TO.P,U2,25,Pin_25*%
%TO.N,Net-(J4-Pin_2)*%
X154475200Y-88849200D03*
%TO.P,U2,26,Pin_26*%
%TO.N,N/C*%
X154475200Y-86309200D03*
%TO.P,U2,27,Pin_27*%
%TO.N,A11*%
X154475200Y-83769200D03*
%TO.P,U2,28,Pin_28*%
%TO.N,A9*%
X154475200Y-81229200D03*
%TO.P,U2,29,Pin_29*%
%TO.N,A8*%
X154475200Y-78689200D03*
%TO.P,U2,30,Pin_30*%
%TO.N,N/C*%
X154475200Y-76149200D03*
%TO.P,U2,31,Pin_31*%
%TO.N,Net-(J4-Pin_1)*%
X154475200Y-73609200D03*
%TO.P,U2,32,Pin_32*%
%TO.N,VCC*%
X154475200Y-71069200D03*
%TD*%
%TA.AperFunction,Conductor*%
%TO.N,GND*%
G36*
X160605539Y-68617585D02*
G01*
X160651294Y-68670389D01*
X160662500Y-68721900D01*
X160662500Y-110983100D01*
X160642815Y-111050139D01*
X160590011Y-111095894D01*
X160538500Y-111107100D01*
X131866300Y-111107100D01*
X131799261Y-111087415D01*
X131753506Y-111034611D01*
X131742300Y-110983100D01*
X131742300Y-75302135D01*
X132949500Y-75302135D01*
X132949500Y-77097870D01*
X132949501Y-77097876D01*
X132955908Y-77157483D01*
X133006202Y-77292328D01*
X133006206Y-77292335D01*
X133092452Y-77407544D01*
X133092455Y-77407547D01*
X133207664Y-77493793D01*
X133207671Y-77493797D01*
X133339082Y-77542810D01*
X133395016Y-77584681D01*
X133419433Y-77650145D01*
X133404582Y-77718418D01*
X133383431Y-77746673D01*
X133269889Y-77860215D01*
X133144951Y-78032179D01*
X133048444Y-78221585D01*
X132982753Y-78423760D01*
X132949500Y-78633713D01*
X132949500Y-78846286D01*
X132982753Y-79056239D01*
X133048444Y-79258414D01*
X133144951Y-79447820D01*
X133269890Y-79619786D01*
X133420213Y-79770109D01*
X133592182Y-79895050D01*
X133600946Y-79899516D01*
X133651742Y-79947491D01*
X133668536Y-80015312D01*
X133645998Y-80081447D01*
X133600946Y-80120484D01*
X133592182Y-80124949D01*
X133420213Y-80249890D01*
X133269890Y-80400213D01*
X133144951Y-80572179D01*
X133048444Y-80761585D01*
X132982753Y-80963760D01*
X132949500Y-81173713D01*
X132949500Y-81386286D01*
X132982753Y-81596239D01*
X133048444Y-81798414D01*
X133144951Y-81987820D01*
X133269890Y-82159786D01*
X133420213Y-82310109D01*
X133592182Y-82435050D01*
X133600946Y-82439516D01*
X133651742Y-82487491D01*
X133668536Y-82555312D01*
X133645998Y-82621447D01*
X133600946Y-82660484D01*
X133592182Y-82664949D01*
X133420213Y-82789890D01*
X133269890Y-82940213D01*
X133144951Y-83112179D01*
X133048444Y-83301585D01*
X132982753Y-83503760D01*
X132949500Y-83713713D01*
X132949500Y-83926286D01*
X132982753Y-84136239D01*
X133048444Y-84338414D01*
X133144951Y-84527820D01*
X133269890Y-84699786D01*
X133420213Y-84850109D01*
X133592182Y-84975050D01*
X133600946Y-84979516D01*
X133651742Y-85027491D01*
X133668536Y-85095312D01*
X133645998Y-85161447D01*
X133600946Y-85200484D01*
X133592182Y-85204949D01*
X133420213Y-85329890D01*
X133269890Y-85480213D01*
X133144951Y-85652179D01*
X133048444Y-85841585D01*
X132982753Y-86043760D01*
X132949500Y-86253713D01*
X132949500Y-86466286D01*
X132982753Y-86676239D01*
X133048444Y-86878414D01*
X133144951Y-87067820D01*
X133269890Y-87239786D01*
X133420213Y-87390109D01*
X133592182Y-87515050D01*
X133600946Y-87519516D01*
X133651742Y-87567491D01*
X133668536Y-87635312D01*
X133645998Y-87701447D01*
X133600946Y-87740484D01*
X133592182Y-87744949D01*
X133420213Y-87869890D01*
X133269890Y-88020213D01*
X133144951Y-88192179D01*
X133048444Y-88381585D01*
X132982753Y-88583760D01*
X132949500Y-88793713D01*
X132949500Y-89006286D01*
X132982753Y-89216239D01*
X133048444Y-89418414D01*
X133144951Y-89607820D01*
X133269890Y-89779786D01*
X133420213Y-89930109D01*
X133592182Y-90055050D01*
X133600946Y-90059516D01*
X133651742Y-90107491D01*
X133668536Y-90175312D01*
X133645998Y-90241447D01*
X133600946Y-90280484D01*
X133592182Y-90284949D01*
X133420213Y-90409890D01*
X133269890Y-90560213D01*
X133144951Y-90732179D01*
X133048444Y-90921585D01*
X132982753Y-91123760D01*
X132949500Y-91333713D01*
X132949500Y-91546286D01*
X132982753Y-91756239D01*
X133048444Y-91958414D01*
X133144951Y-92147820D01*
X133269890Y-92319786D01*
X133420213Y-92470109D01*
X133592182Y-92595050D01*
X133600946Y-92599516D01*
X133651742Y-92647491D01*
X133668536Y-92715312D01*
X133645998Y-92781447D01*
X133600946Y-92820484D01*
X133592182Y-92824949D01*
X133420213Y-92949890D01*
X133269890Y-93100213D01*
X133144951Y-93272179D01*
X133048444Y-93461585D01*
X132982753Y-93663760D01*
X132949500Y-93873713D01*
X132949500Y-94086286D01*
X132982753Y-94296239D01*
X133048444Y-94498414D01*
X133144951Y-94687820D01*
X133269890Y-94859786D01*
X133420213Y-95010109D01*
X133592182Y-95135050D01*
X133600946Y-95139516D01*
X133651742Y-95187491D01*
X133668536Y-95255312D01*
X133645998Y-95321447D01*
X133600946Y-95360484D01*
X133592182Y-95364949D01*
X133420213Y-95489890D01*
X133269890Y-95640213D01*
X133144951Y-95812179D01*
X133048444Y-96001585D01*
X132982753Y-96203760D01*
X132949500Y-96413713D01*
X132949500Y-96626286D01*
X132982753Y-96836239D01*
X133048444Y-97038414D01*
X133144951Y-97227820D01*
X133269890Y-97399786D01*
X133420213Y-97550109D01*
X133592182Y-97675050D01*
X133600946Y-97679516D01*
X133651742Y-97727491D01*
X133668536Y-97795312D01*
X133645998Y-97861447D01*
X133600946Y-97900484D01*
X133592182Y-97904949D01*
X133420213Y-98029890D01*
X133269890Y-98180213D01*
X133144951Y-98352179D01*
X133048444Y-98541585D01*
X132982753Y-98743760D01*
X132949500Y-98953713D01*
X132949500Y-99166286D01*
X132982753Y-99376239D01*
X133048444Y-99578414D01*
X133144951Y-99767820D01*
X133269890Y-99939786D01*
X133420213Y-100090109D01*
X133592182Y-100215050D01*
X133600946Y-100219516D01*
X133651742Y-100267491D01*
X133668536Y-100335312D01*
X133645998Y-100401447D01*
X133600946Y-100440484D01*
X133592182Y-100444949D01*
X133420213Y-100569890D01*
X133269890Y-100720213D01*
X133144951Y-100892179D01*
X133048444Y-101081585D01*
X132982753Y-101283760D01*
X132949500Y-101493713D01*
X132949500Y-101706286D01*
X132982753Y-101916239D01*
X133048444Y-102118414D01*
X133144951Y-102307820D01*
X133269890Y-102479786D01*
X133420213Y-102630109D01*
X133592179Y-102755048D01*
X133592181Y-102755049D01*
X133592184Y-102755051D01*
X133601493Y-102759794D01*
X133652290Y-102807766D01*
X133669087Y-102875587D01*
X133646552Y-102941722D01*
X133601505Y-102980760D01*
X133592446Y-102985376D01*
X133592440Y-102985380D01*
X133538282Y-103024727D01*
X133538282Y-103024728D01*
X134170591Y-103657037D01*
X134107007Y-103674075D01*
X133992993Y-103739901D01*
X133899901Y-103832993D01*
X133834075Y-103947007D01*
X133817037Y-104010591D01*
X133184728Y-103378282D01*
X133184727Y-103378282D01*
X133145380Y-103432439D01*
X133048904Y-103621782D01*
X132983242Y-103823869D01*
X132983242Y-103823872D01*
X132950000Y-104033753D01*
X132950000Y-104246246D01*
X132983242Y-104456127D01*
X132983242Y-104456130D01*
X133048904Y-104658217D01*
X133145375Y-104847550D01*
X133184728Y-104901716D01*
X133817037Y-104269408D01*
X133834075Y-104332993D01*
X133899901Y-104447007D01*
X133992993Y-104540099D01*
X134107007Y-104605925D01*
X134170590Y-104622962D01*
X133538282Y-105255269D01*
X133538282Y-105255270D01*
X133592449Y-105294624D01*
X133781782Y-105391095D01*
X133983870Y-105456757D01*
X134193754Y-105490000D01*
X134406246Y-105490000D01*
X134616127Y-105456757D01*
X134616130Y-105456757D01*
X134818217Y-105391095D01*
X135007554Y-105294622D01*
X135061716Y-105255270D01*
X135061717Y-105255270D01*
X134429408Y-104622962D01*
X134492993Y-104605925D01*
X134607007Y-104540099D01*
X134700099Y-104447007D01*
X134765925Y-104332993D01*
X134782962Y-104269409D01*
X135415270Y-104901717D01*
X135415270Y-104901716D01*
X135454622Y-104847554D01*
X135551095Y-104658217D01*
X135616757Y-104456130D01*
X135616757Y-104456127D01*
X135650000Y-104246246D01*
X135650000Y-104033753D01*
X135616757Y-103823872D01*
X135616757Y-103823869D01*
X135551095Y-103621782D01*
X135454624Y-103432449D01*
X135415270Y-103378282D01*
X135415269Y-103378282D01*
X134782962Y-104010590D01*
X134765925Y-103947007D01*
X134700099Y-103832993D01*
X134607007Y-103739901D01*
X134492993Y-103674075D01*
X134429409Y-103657037D01*
X135061716Y-103024728D01*
X135007547Y-102985373D01*
X135007547Y-102985372D01*
X134998500Y-102980763D01*
X134947706Y-102932788D01*
X134930912Y-102864966D01*
X134953451Y-102798832D01*
X134998508Y-102759793D01*
X135007816Y-102755051D01*
X135138564Y-102660058D01*
X135179786Y-102630109D01*
X135179788Y-102630106D01*
X135179792Y-102630104D01*
X135330104Y-102479792D01*
X135330106Y-102479788D01*
X135330109Y-102479786D01*
X135455048Y-102307820D01*
X135455047Y-102307820D01*
X135455051Y-102307816D01*
X135551557Y-102118412D01*
X135617246Y-101916243D01*
X135650500Y-101706287D01*
X135650500Y-101493713D01*
X135617246Y-101283757D01*
X135551557Y-101081588D01*
X135455051Y-100892184D01*
X135455049Y-100892181D01*
X135455048Y-100892179D01*
X135330109Y-100720213D01*
X135179786Y-100569890D01*
X135007820Y-100444951D01*
X135007115Y-100444591D01*
X134999054Y-100440485D01*
X134948259Y-100392512D01*
X134931463Y-100324692D01*
X134953999Y-100258556D01*
X134999054Y-100219515D01*
X135007816Y-100215051D01*
X135029789Y-100199086D01*
X135179786Y-100090109D01*
X135179788Y-100090106D01*
X135179792Y-100090104D01*
X135330104Y-99939792D01*
X135330106Y-99939788D01*
X135330109Y-99939786D01*
X135455048Y-99767820D01*
X135455047Y-99767820D01*
X135455051Y-99767816D01*
X135551557Y-99578412D01*
X135617246Y-99376243D01*
X135650500Y-99166287D01*
X135650500Y-98953713D01*
X135617246Y-98743757D01*
X135551557Y-98541588D01*
X135455051Y-98352184D01*
X135455049Y-98352181D01*
X135455048Y-98352179D01*
X135330109Y-98180213D01*
X135179786Y-98029890D01*
X135007820Y-97904951D01*
X135007115Y-97904591D01*
X134999054Y-97900485D01*
X134948259Y-97852512D01*
X134931463Y-97784692D01*
X134953999Y-97718556D01*
X134999054Y-97679515D01*
X135007816Y-97675051D01*
X135029789Y-97659086D01*
X135179786Y-97550109D01*
X135179788Y-97550106D01*
X135179792Y-97550104D01*
X135330104Y-97399792D01*
X135330106Y-97399788D01*
X135330109Y-97399786D01*
X135455048Y-97227820D01*
X135455047Y-97227820D01*
X135455051Y-97227816D01*
X135551557Y-97038412D01*
X135617246Y-96836243D01*
X135650500Y-96626287D01*
X135650500Y-96413713D01*
X135617246Y-96203757D01*
X135551557Y-96001588D01*
X135455051Y-95812184D01*
X135455049Y-95812181D01*
X135455048Y-95812179D01*
X135330109Y-95640213D01*
X135179786Y-95489890D01*
X135007820Y-95364951D01*
X135007115Y-95364591D01*
X134999054Y-95360485D01*
X134948259Y-95312512D01*
X134931463Y-95244692D01*
X134953999Y-95178556D01*
X134999054Y-95139515D01*
X135007816Y-95135051D01*
X135029789Y-95119086D01*
X135179786Y-95010109D01*
X135179788Y-95010106D01*
X135179792Y-95010104D01*
X135330104Y-94859792D01*
X135330106Y-94859788D01*
X135330109Y-94859786D01*
X135455048Y-94687820D01*
X135455047Y-94687820D01*
X135455051Y-94687816D01*
X135551557Y-94498412D01*
X135617246Y-94296243D01*
X135650500Y-94086287D01*
X135650500Y-93873713D01*
X135617246Y-93663757D01*
X135551557Y-93461588D01*
X135455051Y-93272184D01*
X135455049Y-93272181D01*
X135455048Y-93272179D01*
X135330109Y-93100213D01*
X135179786Y-92949890D01*
X135007820Y-92824951D01*
X135007115Y-92824591D01*
X134999054Y-92820485D01*
X134948259Y-92772512D01*
X134931463Y-92704692D01*
X134953999Y-92638556D01*
X134999054Y-92599515D01*
X135007816Y-92595051D01*
X135029789Y-92579086D01*
X135179786Y-92470109D01*
X135179788Y-92470106D01*
X135179792Y-92470104D01*
X135330104Y-92319792D01*
X135330106Y-92319788D01*
X135330109Y-92319786D01*
X135455048Y-92147820D01*
X135455047Y-92147820D01*
X135455051Y-92147816D01*
X135551557Y-91958412D01*
X135617246Y-91756243D01*
X135650500Y-91546287D01*
X135650500Y-91333713D01*
X135617246Y-91123757D01*
X135551557Y-90921588D01*
X135455051Y-90732184D01*
X135455049Y-90732181D01*
X135455048Y-90732179D01*
X135330109Y-90560213D01*
X135179786Y-90409890D01*
X135007820Y-90284951D01*
X135007115Y-90284591D01*
X134999054Y-90280485D01*
X134948259Y-90232512D01*
X134931463Y-90164692D01*
X134953999Y-90098556D01*
X134999054Y-90059515D01*
X135007816Y-90055051D01*
X135029789Y-90039086D01*
X135179786Y-89930109D01*
X135179788Y-89930106D01*
X135179792Y-89930104D01*
X135330104Y-89779792D01*
X135330106Y-89779788D01*
X135330109Y-89779786D01*
X135455048Y-89607820D01*
X135455047Y-89607820D01*
X135455051Y-89607816D01*
X135551557Y-89418412D01*
X135617246Y-89216243D01*
X135650500Y-89006287D01*
X135650500Y-88793713D01*
X135617246Y-88583757D01*
X135551557Y-88381588D01*
X135455051Y-88192184D01*
X135455049Y-88192181D01*
X135455048Y-88192179D01*
X135330109Y-88020213D01*
X135179786Y-87869890D01*
X135007820Y-87744951D01*
X135007115Y-87744591D01*
X134999054Y-87740485D01*
X134948259Y-87692512D01*
X134931463Y-87624692D01*
X134953999Y-87558556D01*
X134999054Y-87519515D01*
X135007816Y-87515051D01*
X135029789Y-87499086D01*
X135179786Y-87390109D01*
X135179788Y-87390106D01*
X135179792Y-87390104D01*
X135330104Y-87239792D01*
X135330106Y-87239788D01*
X135330109Y-87239786D01*
X135455048Y-87067820D01*
X135455047Y-87067820D01*
X135455051Y-87067816D01*
X135551557Y-86878412D01*
X135617246Y-86676243D01*
X135650500Y-86466287D01*
X135650500Y-86253713D01*
X135617246Y-86043757D01*
X135551557Y-85841588D01*
X135455051Y-85652184D01*
X135455049Y-85652181D01*
X135455048Y-85652179D01*
X135330109Y-85480213D01*
X135179786Y-85329890D01*
X135007820Y-85204951D01*
X135007115Y-85204591D01*
X134999054Y-85200485D01*
X134948259Y-85152512D01*
X134931463Y-85084692D01*
X134953999Y-85018556D01*
X134999054Y-84979515D01*
X135007816Y-84975051D01*
X135029789Y-84959086D01*
X135179786Y-84850109D01*
X135179788Y-84850106D01*
X135179792Y-84850104D01*
X135330104Y-84699792D01*
X135330106Y-84699788D01*
X135330109Y-84699786D01*
X135455048Y-84527820D01*
X135455047Y-84527820D01*
X135455051Y-84527816D01*
X135551557Y-84338412D01*
X135617246Y-84136243D01*
X135650500Y-83926287D01*
X135650500Y-83713713D01*
X135617246Y-83503757D01*
X135551557Y-83301588D01*
X135455051Y-83112184D01*
X135455049Y-83112181D01*
X135455048Y-83112179D01*
X135330109Y-82940213D01*
X135179786Y-82789890D01*
X135007820Y-82664951D01*
X135007115Y-82664591D01*
X134999054Y-82660485D01*
X134948259Y-82612512D01*
X134931463Y-82544692D01*
X134953999Y-82478556D01*
X134999054Y-82439515D01*
X135007816Y-82435051D01*
X135029789Y-82419086D01*
X135179786Y-82310109D01*
X135179788Y-82310106D01*
X135179792Y-82310104D01*
X135330104Y-82159792D01*
X135330106Y-82159788D01*
X135330109Y-82159786D01*
X135455048Y-81987820D01*
X135455047Y-81987820D01*
X135455051Y-81987816D01*
X135551557Y-81798412D01*
X135617246Y-81596243D01*
X135650500Y-81386287D01*
X135650500Y-81173713D01*
X135617246Y-80963757D01*
X135551557Y-80761588D01*
X135455051Y-80572184D01*
X135455049Y-80572181D01*
X135455048Y-80572179D01*
X135330109Y-80400213D01*
X135179786Y-80249890D01*
X135007820Y-80124951D01*
X135007115Y-80124591D01*
X134999054Y-80120485D01*
X134948259Y-80072512D01*
X134931463Y-80004692D01*
X134953999Y-79938556D01*
X134999054Y-79899515D01*
X135007816Y-79895051D01*
X135029789Y-79879086D01*
X135179786Y-79770109D01*
X135179788Y-79770106D01*
X135179792Y-79770104D01*
X135330104Y-79619792D01*
X135330106Y-79619788D01*
X135330109Y-79619786D01*
X135455048Y-79447820D01*
X135455047Y-79447820D01*
X135455051Y-79447816D01*
X135551557Y-79258412D01*
X135617246Y-79056243D01*
X135650500Y-78846287D01*
X135650500Y-78633713D01*
X135617246Y-78423757D01*
X135551557Y-78221588D01*
X135455051Y-78032184D01*
X135455049Y-78032181D01*
X135455048Y-78032179D01*
X135330109Y-77860213D01*
X135216569Y-77746673D01*
X135183084Y-77685350D01*
X135188068Y-77615658D01*
X135229940Y-77559725D01*
X135260915Y-77542810D01*
X135392331Y-77493796D01*
X135507546Y-77407546D01*
X135593796Y-77292331D01*
X135644091Y-77157483D01*
X135650500Y-77097873D01*
X135650499Y-75302128D01*
X135644091Y-75242517D01*
X135612280Y-75157228D01*
X135593797Y-75107671D01*
X135593793Y-75107664D01*
X135507547Y-74992455D01*
X135507544Y-74992452D01*
X135392335Y-74906206D01*
X135392328Y-74906202D01*
X135257482Y-74855908D01*
X135257483Y-74855908D01*
X135197883Y-74849501D01*
X135197881Y-74849500D01*
X135197873Y-74849500D01*
X135197864Y-74849500D01*
X133402129Y-74849500D01*
X133402123Y-74849501D01*
X133342516Y-74855908D01*
X133207671Y-74906202D01*
X133207664Y-74906206D01*
X133092455Y-74992452D01*
X133092452Y-74992455D01*
X133006206Y-75107664D01*
X133006202Y-75107671D01*
X132955908Y-75242517D01*
X132949515Y-75301986D01*
X132949501Y-75302123D01*
X132949500Y-75302135D01*
X131742300Y-75302135D01*
X131742300Y-70469183D01*
X137534700Y-70469183D01*
X137534700Y-71669201D01*
X137534701Y-71669218D01*
X137545200Y-71771996D01*
X137545201Y-71771999D01*
X137593056Y-71916413D01*
X137600386Y-71938534D01*
X137692488Y-72087856D01*
X137816544Y-72211912D01*
X137965866Y-72304014D01*
X138047770Y-72331154D01*
X138105215Y-72370927D01*
X138132038Y-72435443D01*
X138119723Y-72504218D01*
X138081651Y-72549178D01*
X137987987Y-72617228D01*
X137987982Y-72617232D01*
X137843228Y-72761986D01*
X137722915Y-72927586D01*
X137629981Y-73109976D01*
X137566722Y-73304665D01*
X137534700Y-73506848D01*
X137534700Y-73711551D01*
X137566722Y-73913734D01*
X137629981Y-74108423D01*
X137722915Y-74290813D01*
X137843228Y-74456413D01*
X137987986Y-74601171D01*
X138142949Y-74713756D01*
X138153590Y-74721487D01*
X138245040Y-74768083D01*
X138246280Y-74768715D01*
X138297076Y-74816690D01*
X138313871Y-74884511D01*
X138291334Y-74950646D01*
X138246280Y-74989685D01*
X138153586Y-75036915D01*
X137987986Y-75157228D01*
X137843228Y-75301986D01*
X137722915Y-75467586D01*
X137629981Y-75649976D01*
X137566722Y-75844665D01*
X137534700Y-76046848D01*
X137534700Y-76251551D01*
X137566722Y-76453734D01*
X137629981Y-76648423D01*
X137722915Y-76830813D01*
X137843228Y-76996413D01*
X137987986Y-77141171D01*
X138142949Y-77253756D01*
X138153590Y-77261487D01*
X138214119Y-77292328D01*
X138246280Y-77308715D01*
X138297076Y-77356690D01*
X138313871Y-77424511D01*
X138291334Y-77490646D01*
X138246280Y-77529685D01*
X138153586Y-77576915D01*
X137987986Y-77697228D01*
X137843228Y-77841986D01*
X137722915Y-78007586D01*
X137629981Y-78189976D01*
X137566722Y-78384665D01*
X137534700Y-78586848D01*
X137534700Y-78791551D01*
X137566722Y-78993734D01*
X137629981Y-79188423D01*
X137722915Y-79370813D01*
X137843228Y-79536413D01*
X137987986Y-79681171D01*
X138142949Y-79793756D01*
X138153590Y-79801487D01*
X138245040Y-79848083D01*
X138246280Y-79848715D01*
X138297076Y-79896690D01*
X138313871Y-79964511D01*
X138291334Y-80030646D01*
X138246280Y-80069685D01*
X138153586Y-80116915D01*
X137987986Y-80237228D01*
X137843228Y-80381986D01*
X137722915Y-80547586D01*
X137629981Y-80729976D01*
X137566722Y-80924665D01*
X137534700Y-81126848D01*
X137534700Y-81331551D01*
X137566722Y-81533734D01*
X137629981Y-81728423D01*
X137722915Y-81910813D01*
X137843228Y-82076413D01*
X137987986Y-82221171D01*
X138142949Y-82333756D01*
X138153590Y-82341487D01*
X138245040Y-82388083D01*
X138246280Y-82388715D01*
X138297076Y-82436690D01*
X138313871Y-82504511D01*
X138291334Y-82570646D01*
X138246280Y-82609685D01*
X138153586Y-82656915D01*
X137987986Y-82777228D01*
X137843228Y-82921986D01*
X137722915Y-83087586D01*
X137629981Y-83269976D01*
X137566722Y-83464665D01*
X137534700Y-83666848D01*
X137534700Y-83871551D01*
X137566722Y-84073734D01*
X137629981Y-84268423D01*
X137722915Y-84450813D01*
X137843228Y-84616413D01*
X137987986Y-84761171D01*
X138142949Y-84873756D01*
X138153590Y-84881487D01*
X138245040Y-84928083D01*
X138246280Y-84928715D01*
X138297076Y-84976690D01*
X138313871Y-85044511D01*
X138291334Y-85110646D01*
X138246280Y-85149685D01*
X138153586Y-85196915D01*
X137987986Y-85317228D01*
X137843228Y-85461986D01*
X137722915Y-85627586D01*
X137629981Y-85809976D01*
X137566722Y-86004665D01*
X137534700Y-86206848D01*
X137534700Y-86411551D01*
X137566722Y-86613734D01*
X137629981Y-86808423D01*
X137722915Y-86990813D01*
X137843228Y-87156413D01*
X137987986Y-87301171D01*
X138142949Y-87413756D01*
X138153590Y-87421487D01*
X138245040Y-87468083D01*
X138246280Y-87468715D01*
X138297076Y-87516690D01*
X138313871Y-87584511D01*
X138291334Y-87650646D01*
X138246280Y-87689685D01*
X138153586Y-87736915D01*
X137987986Y-87857228D01*
X137843228Y-88001986D01*
X137722915Y-88167586D01*
X137629981Y-88349976D01*
X137566722Y-88544665D01*
X137534700Y-88746848D01*
X137534700Y-88951551D01*
X137566722Y-89153734D01*
X137629981Y-89348423D01*
X137722915Y-89530813D01*
X137843228Y-89696413D01*
X137987986Y-89841171D01*
X138142949Y-89953756D01*
X138153590Y-89961487D01*
X138245040Y-90008083D01*
X138246280Y-90008715D01*
X138297076Y-90056690D01*
X138313871Y-90124511D01*
X138291334Y-90190646D01*
X138246280Y-90229685D01*
X138153586Y-90276915D01*
X137987986Y-90397228D01*
X137843228Y-90541986D01*
X137722915Y-90707586D01*
X137629981Y-90889976D01*
X137566722Y-91084665D01*
X137534700Y-91286848D01*
X137534700Y-91491551D01*
X137566722Y-91693734D01*
X137629981Y-91888423D01*
X137722915Y-92070813D01*
X137843228Y-92236413D01*
X137987986Y-92381171D01*
X138142949Y-92493756D01*
X138153590Y-92501487D01*
X138245040Y-92548083D01*
X138246280Y-92548715D01*
X138297076Y-92596690D01*
X138313871Y-92664511D01*
X138291334Y-92730646D01*
X138246280Y-92769685D01*
X138153586Y-92816915D01*
X137987986Y-92937228D01*
X137843228Y-93081986D01*
X137722915Y-93247586D01*
X137629981Y-93429976D01*
X137566722Y-93624665D01*
X137534700Y-93826848D01*
X137534700Y-94031551D01*
X137566722Y-94233734D01*
X137629981Y-94428423D01*
X137722915Y-94610813D01*
X137843228Y-94776413D01*
X137987986Y-94921171D01*
X138142949Y-95033756D01*
X138153590Y-95041487D01*
X138245040Y-95088083D01*
X138246280Y-95088715D01*
X138297076Y-95136690D01*
X138313871Y-95204511D01*
X138291334Y-95270646D01*
X138246280Y-95309685D01*
X138153586Y-95356915D01*
X137987986Y-95477228D01*
X137843228Y-95621986D01*
X137722915Y-95787586D01*
X137629981Y-95969976D01*
X137566722Y-96164665D01*
X137534700Y-96366848D01*
X137534700Y-96571551D01*
X137566722Y-96773734D01*
X137629981Y-96968423D01*
X137722915Y-97150813D01*
X137843228Y-97316413D01*
X137987986Y-97461171D01*
X138142949Y-97573756D01*
X138153590Y-97581487D01*
X138245040Y-97628083D01*
X138246280Y-97628715D01*
X138297076Y-97676690D01*
X138313871Y-97744511D01*
X138291334Y-97810646D01*
X138246280Y-97849685D01*
X138153586Y-97896915D01*
X137987986Y-98017228D01*
X137843228Y-98161986D01*
X137722915Y-98327586D01*
X137629981Y-98509976D01*
X137566722Y-98704665D01*
X137534700Y-98906848D01*
X137534700Y-99111551D01*
X137566722Y-99313734D01*
X137629981Y-99508423D01*
X137722915Y-99690813D01*
X137843228Y-99856413D01*
X137987986Y-100001171D01*
X138142949Y-100113756D01*
X138153590Y-100121487D01*
X138245040Y-100168083D01*
X138246280Y-100168715D01*
X138297076Y-100216690D01*
X138313871Y-100284511D01*
X138291334Y-100350646D01*
X138246280Y-100389685D01*
X138153586Y-100436915D01*
X137987986Y-100557228D01*
X137843228Y-100701986D01*
X137722915Y-100867586D01*
X137629981Y-101049976D01*
X137566722Y-101244665D01*
X137534700Y-101446848D01*
X137534700Y-101651551D01*
X137566722Y-101853734D01*
X137629981Y-102048423D01*
X137677806Y-102142283D01*
X137708173Y-102201882D01*
X137722915Y-102230813D01*
X137843228Y-102396413D01*
X137987986Y-102541171D01*
X138142949Y-102653756D01*
X138153590Y-102661487D01*
X138218470Y-102694545D01*
X138246280Y-102708715D01*
X138297076Y-102756690D01*
X138313871Y-102824511D01*
X138291334Y-102890646D01*
X138246280Y-102929685D01*
X138153586Y-102976915D01*
X137987986Y-103097228D01*
X137843228Y-103241986D01*
X137722915Y-103407586D01*
X137629981Y-103589976D01*
X137566722Y-103784665D01*
X137534700Y-103986848D01*
X137534700Y-104191551D01*
X137566722Y-104393734D01*
X137629981Y-104588423D01*
X137722915Y-104770813D01*
X137843228Y-104936413D01*
X137987986Y-105081171D01*
X138142949Y-105193756D01*
X138153590Y-105201487D01*
X138245040Y-105248083D01*
X138246280Y-105248715D01*
X138297076Y-105296690D01*
X138313871Y-105364511D01*
X138291334Y-105430646D01*
X138246280Y-105469685D01*
X138153586Y-105516915D01*
X137987986Y-105637228D01*
X137843228Y-105781986D01*
X137722915Y-105947586D01*
X137629981Y-106129976D01*
X137566722Y-106324665D01*
X137534700Y-106526848D01*
X137534700Y-106731551D01*
X137566722Y-106933734D01*
X137629981Y-107128423D01*
X137722915Y-107310813D01*
X137843228Y-107476413D01*
X137987986Y-107621171D01*
X138142949Y-107733756D01*
X138153590Y-107741487D01*
X138225624Y-107778190D01*
X138246829Y-107788995D01*
X138297625Y-107836970D01*
X138314420Y-107904791D01*
X138291882Y-107970926D01*
X138246829Y-108009965D01*
X138153850Y-108057340D01*
X137988305Y-108177617D01*
X137988304Y-108177617D01*
X137843617Y-108322304D01*
X137843617Y-108322305D01*
X137723340Y-108487850D01*
X137630444Y-108670170D01*
X137567209Y-108864786D01*
X137558591Y-108919200D01*
X138919514Y-108919200D01*
X138915120Y-108923594D01*
X138862459Y-109014806D01*
X138835200Y-109116539D01*
X138835200Y-109221861D01*
X138862459Y-109323594D01*
X138915120Y-109414806D01*
X138919514Y-109419200D01*
X137558591Y-109419200D01*
X137567209Y-109473613D01*
X137630444Y-109668229D01*
X137723340Y-109850549D01*
X137843617Y-110016094D01*
X137843617Y-110016095D01*
X137988304Y-110160782D01*
X138153850Y-110281059D01*
X138336168Y-110373955D01*
X138530782Y-110437190D01*
X138732883Y-110469200D01*
X138985200Y-110469200D01*
X138985200Y-109484886D01*
X138989594Y-109489280D01*
X139080806Y-109541941D01*
X139182539Y-109569200D01*
X139287861Y-109569200D01*
X139389594Y-109541941D01*
X139480806Y-109489280D01*
X139485200Y-109484886D01*
X139485200Y-110469200D01*
X139737517Y-110469200D01*
X139939617Y-110437190D01*
X140134231Y-110373955D01*
X140316549Y-110281059D01*
X140482094Y-110160782D01*
X140482095Y-110160782D01*
X140626782Y-110016095D01*
X140626782Y-110016094D01*
X140747059Y-109850549D01*
X140839955Y-109668229D01*
X140903190Y-109473613D01*
X140911809Y-109419200D01*
X139550886Y-109419200D01*
X139555280Y-109414806D01*
X139607941Y-109323594D01*
X139635200Y-109221861D01*
X139635200Y-109116539D01*
X139607941Y-109014806D01*
X139555280Y-108923594D01*
X139550886Y-108919200D01*
X140911809Y-108919200D01*
X140903190Y-108864786D01*
X140839955Y-108670170D01*
X140747059Y-108487850D01*
X140626782Y-108322305D01*
X140626782Y-108322304D01*
X140482095Y-108177617D01*
X140316549Y-108057340D01*
X140223570Y-108009965D01*
X140172774Y-107961990D01*
X140155979Y-107894169D01*
X140178516Y-107828035D01*
X140223570Y-107788995D01*
X140224120Y-107788715D01*
X140316810Y-107741487D01*
X140337970Y-107726113D01*
X140482413Y-107621171D01*
X140482415Y-107621168D01*
X140482419Y-107621166D01*
X140627166Y-107476419D01*
X140627168Y-107476415D01*
X140627171Y-107476413D01*
X140679932Y-107403790D01*
X140747487Y-107310810D01*
X140840420Y-107128419D01*
X140903677Y-106933734D01*
X140935700Y-106731552D01*
X140935700Y-106526848D01*
X140903677Y-106324666D01*
X140840420Y-106129981D01*
X140840418Y-106129978D01*
X140840418Y-106129976D01*
X140806703Y-106063807D01*
X140747487Y-105947590D01*
X140739756Y-105936949D01*
X140627171Y-105781986D01*
X140482413Y-105637228D01*
X140316814Y-105516915D01*
X140310206Y-105513548D01*
X140224117Y-105469683D01*
X140173323Y-105421711D01*
X140156528Y-105353890D01*
X140179065Y-105287755D01*
X140224117Y-105248716D01*
X140316810Y-105201487D01*
X140337970Y-105186113D01*
X140482413Y-105081171D01*
X140482415Y-105081168D01*
X140482419Y-105081166D01*
X140627166Y-104936419D01*
X140627168Y-104936415D01*
X140627171Y-104936413D01*
X140691730Y-104847554D01*
X140747487Y-104770810D01*
X140840420Y-104588419D01*
X140903677Y-104393734D01*
X140935700Y-104191552D01*
X140935700Y-103986848D01*
X140903677Y-103784666D01*
X140840420Y-103589981D01*
X140840418Y-103589978D01*
X140840418Y-103589976D01*
X140760153Y-103432449D01*
X140747487Y-103407590D01*
X140726194Y-103378282D01*
X140627171Y-103241986D01*
X140482413Y-103097228D01*
X140316814Y-102976915D01*
X140310206Y-102973548D01*
X140224117Y-102929683D01*
X140173323Y-102881711D01*
X140156528Y-102813890D01*
X140179065Y-102747755D01*
X140224117Y-102708716D01*
X140316810Y-102661487D01*
X140337970Y-102646113D01*
X140482413Y-102541171D01*
X140482415Y-102541168D01*
X140482419Y-102541166D01*
X140627166Y-102396419D01*
X140627168Y-102396415D01*
X140627171Y-102396413D01*
X140691539Y-102307816D01*
X140747487Y-102230810D01*
X140840420Y-102048419D01*
X140903677Y-101853734D01*
X140935700Y-101651552D01*
X140935700Y-101446848D01*
X140903677Y-101244666D01*
X140840420Y-101049981D01*
X140840418Y-101049978D01*
X140840418Y-101049976D01*
X140760018Y-100892184D01*
X140747487Y-100867590D01*
X140739756Y-100856949D01*
X140627171Y-100701986D01*
X140482413Y-100557228D01*
X140316814Y-100436915D01*
X140310206Y-100433548D01*
X140224117Y-100389683D01*
X140173323Y-100341711D01*
X140156528Y-100273890D01*
X140179065Y-100207755D01*
X140224117Y-100168716D01*
X140316810Y-100121487D01*
X140337970Y-100106113D01*
X140482413Y-100001171D01*
X140482415Y-100001168D01*
X140482419Y-100001166D01*
X140627166Y-99856419D01*
X140627168Y-99856415D01*
X140627171Y-99856413D01*
X140691539Y-99767816D01*
X140747487Y-99690810D01*
X140840420Y-99508419D01*
X140903677Y-99313734D01*
X140935700Y-99111552D01*
X140935700Y-98906848D01*
X140903677Y-98704666D01*
X140840420Y-98509981D01*
X140840418Y-98509978D01*
X140840418Y-98509976D01*
X140760018Y-98352184D01*
X140747487Y-98327590D01*
X140739756Y-98316949D01*
X140627171Y-98161986D01*
X140482413Y-98017228D01*
X140316814Y-97896915D01*
X140310206Y-97893548D01*
X140224117Y-97849683D01*
X140173323Y-97801711D01*
X140156528Y-97733890D01*
X140179065Y-97667755D01*
X140224117Y-97628716D01*
X140316810Y-97581487D01*
X140337970Y-97566113D01*
X140482413Y-97461171D01*
X140482415Y-97461168D01*
X140482419Y-97461166D01*
X140627166Y-97316419D01*
X140627168Y-97316415D01*
X140627171Y-97316413D01*
X140691539Y-97227816D01*
X140747487Y-97150810D01*
X140840420Y-96968419D01*
X140903677Y-96773734D01*
X140935700Y-96571552D01*
X140935700Y-96366848D01*
X140903677Y-96164666D01*
X140840420Y-95969981D01*
X140840418Y-95969978D01*
X140840418Y-95969976D01*
X140760018Y-95812184D01*
X140747487Y-95787590D01*
X140739756Y-95776949D01*
X140627171Y-95621986D01*
X140482413Y-95477228D01*
X140316814Y-95356915D01*
X140310206Y-95353548D01*
X140224117Y-95309683D01*
X140173323Y-95261711D01*
X140156528Y-95193890D01*
X140179065Y-95127755D01*
X140224117Y-95088716D01*
X140316810Y-95041487D01*
X140337970Y-95026113D01*
X140482413Y-94921171D01*
X140482415Y-94921168D01*
X140482419Y-94921166D01*
X140627166Y-94776419D01*
X140627168Y-94776415D01*
X140627171Y-94776413D01*
X140691539Y-94687816D01*
X140747487Y-94610810D01*
X140840420Y-94428419D01*
X140903677Y-94233734D01*
X140935700Y-94031552D01*
X140935700Y-93826848D01*
X140903677Y-93624666D01*
X140840420Y-93429981D01*
X140840418Y-93429978D01*
X140840418Y-93429976D01*
X140760018Y-93272184D01*
X140747487Y-93247590D01*
X140739756Y-93236949D01*
X140627171Y-93081986D01*
X140482413Y-92937228D01*
X140316814Y-92816915D01*
X140310206Y-92813548D01*
X140224117Y-92769683D01*
X140173323Y-92721711D01*
X140156528Y-92653890D01*
X140179065Y-92587755D01*
X140224117Y-92548716D01*
X140316810Y-92501487D01*
X140337970Y-92486113D01*
X140482413Y-92381171D01*
X140482415Y-92381168D01*
X140482419Y-92381166D01*
X140627166Y-92236419D01*
X140627168Y-92236415D01*
X140627171Y-92236413D01*
X140691539Y-92147816D01*
X140747487Y-92070810D01*
X140840420Y-91888419D01*
X140903677Y-91693734D01*
X140935700Y-91491552D01*
X140935700Y-91286848D01*
X140903677Y-91084666D01*
X140840420Y-90889981D01*
X140840418Y-90889978D01*
X140840418Y-90889976D01*
X140760018Y-90732184D01*
X140747487Y-90707590D01*
X140739756Y-90696949D01*
X140627171Y-90541986D01*
X140482413Y-90397228D01*
X140316814Y-90276915D01*
X140310206Y-90273548D01*
X140224117Y-90229683D01*
X140173323Y-90181711D01*
X140156528Y-90113890D01*
X140179065Y-90047755D01*
X140224117Y-90008716D01*
X140316810Y-89961487D01*
X140337970Y-89946113D01*
X140482413Y-89841171D01*
X140482415Y-89841168D01*
X140482419Y-89841166D01*
X140627166Y-89696419D01*
X140627168Y-89696415D01*
X140627171Y-89696413D01*
X140691539Y-89607816D01*
X140747487Y-89530810D01*
X140840420Y-89348419D01*
X140903677Y-89153734D01*
X140935700Y-88951552D01*
X140935700Y-88746848D01*
X140903677Y-88544666D01*
X140840420Y-88349981D01*
X140840418Y-88349978D01*
X140840418Y-88349976D01*
X140760018Y-88192184D01*
X140747487Y-88167590D01*
X140739756Y-88156949D01*
X140627171Y-88001986D01*
X140482413Y-87857228D01*
X140316814Y-87736915D01*
X140310206Y-87733548D01*
X140224117Y-87689683D01*
X140173323Y-87641711D01*
X140156528Y-87573890D01*
X140179065Y-87507755D01*
X140224117Y-87468716D01*
X140316810Y-87421487D01*
X140337970Y-87406113D01*
X140482413Y-87301171D01*
X140482415Y-87301168D01*
X140482419Y-87301166D01*
X140627166Y-87156419D01*
X140627168Y-87156415D01*
X140627171Y-87156413D01*
X140691539Y-87067816D01*
X140747487Y-86990810D01*
X140840420Y-86808419D01*
X140903677Y-86613734D01*
X140935700Y-86411552D01*
X140935700Y-86206848D01*
X140903677Y-86004666D01*
X140840420Y-85809981D01*
X140840418Y-85809978D01*
X140840418Y-85809976D01*
X140760018Y-85652184D01*
X140747487Y-85627590D01*
X140739756Y-85616949D01*
X140627171Y-85461986D01*
X140482413Y-85317228D01*
X140316814Y-85196915D01*
X140310206Y-85193548D01*
X140224117Y-85149683D01*
X140173323Y-85101711D01*
X140156528Y-85033890D01*
X140179065Y-84967755D01*
X140224117Y-84928716D01*
X140316810Y-84881487D01*
X140337970Y-84866113D01*
X140482413Y-84761171D01*
X140482415Y-84761168D01*
X140482419Y-84761166D01*
X140627166Y-84616419D01*
X140627168Y-84616415D01*
X140627171Y-84616413D01*
X140691539Y-84527816D01*
X140747487Y-84450810D01*
X140840420Y-84268419D01*
X140903677Y-84073734D01*
X140935700Y-83871552D01*
X140935700Y-83666848D01*
X140903677Y-83464666D01*
X140840420Y-83269981D01*
X140840418Y-83269978D01*
X140840418Y-83269976D01*
X140760018Y-83112184D01*
X140747487Y-83087590D01*
X140739756Y-83076949D01*
X140627171Y-82921986D01*
X140482413Y-82777228D01*
X140316814Y-82656915D01*
X140310206Y-82653548D01*
X140224117Y-82609683D01*
X140173323Y-82561711D01*
X140156528Y-82493890D01*
X140179065Y-82427755D01*
X140224117Y-82388716D01*
X140316810Y-82341487D01*
X140337970Y-82326113D01*
X140482413Y-82221171D01*
X140482415Y-82221168D01*
X140482419Y-82221166D01*
X140627166Y-82076419D01*
X140627168Y-82076415D01*
X140627171Y-82076413D01*
X140691539Y-81987816D01*
X140747487Y-81910810D01*
X140840420Y-81728419D01*
X140903677Y-81533734D01*
X140935700Y-81331552D01*
X140935700Y-81126848D01*
X140903677Y-80924666D01*
X140840420Y-80729981D01*
X140840418Y-80729978D01*
X140840418Y-80729976D01*
X140760018Y-80572184D01*
X140747487Y-80547590D01*
X140739756Y-80536949D01*
X140627171Y-80381986D01*
X140482413Y-80237228D01*
X140316814Y-80116915D01*
X140310206Y-80113548D01*
X140224117Y-80069683D01*
X140173323Y-80021711D01*
X140156528Y-79953890D01*
X140179065Y-79887755D01*
X140224117Y-79848716D01*
X140316810Y-79801487D01*
X140337970Y-79786113D01*
X140482413Y-79681171D01*
X140482415Y-79681168D01*
X140482419Y-79681166D01*
X140627166Y-79536419D01*
X140627168Y-79536415D01*
X140627171Y-79536413D01*
X140691539Y-79447816D01*
X140747487Y-79370810D01*
X140840420Y-79188419D01*
X140903677Y-78993734D01*
X140935700Y-78791552D01*
X140935700Y-78586848D01*
X140903677Y-78384666D01*
X140840420Y-78189981D01*
X140840418Y-78189978D01*
X140840418Y-78189976D01*
X140760018Y-78032184D01*
X140747487Y-78007590D01*
X140739756Y-77996949D01*
X140627171Y-77841986D01*
X140482413Y-77697228D01*
X140316814Y-77576915D01*
X140310206Y-77573548D01*
X140224117Y-77529683D01*
X140173323Y-77481711D01*
X140156528Y-77413890D01*
X140179065Y-77347755D01*
X140224117Y-77308716D01*
X140316810Y-77261487D01*
X140337970Y-77246113D01*
X140482413Y-77141171D01*
X140482415Y-77141168D01*
X140482419Y-77141166D01*
X140627166Y-76996419D01*
X140627168Y-76996415D01*
X140627171Y-76996413D01*
X140679932Y-76923790D01*
X140747487Y-76830810D01*
X140840420Y-76648419D01*
X140903677Y-76453734D01*
X140935700Y-76251552D01*
X140935700Y-76046848D01*
X140903677Y-75844666D01*
X140840420Y-75649981D01*
X140840418Y-75649978D01*
X140840418Y-75649976D01*
X140747487Y-75467590D01*
X140677813Y-75371691D01*
X140677812Y-75371688D01*
X140627279Y-75302135D01*
X148189500Y-75302135D01*
X148189500Y-77097870D01*
X148189501Y-77097876D01*
X148195908Y-77157483D01*
X148246202Y-77292328D01*
X148246206Y-77292335D01*
X148332452Y-77407544D01*
X148332455Y-77407547D01*
X148447664Y-77493793D01*
X148447671Y-77493797D01*
X148579082Y-77542810D01*
X148635016Y-77584681D01*
X148659433Y-77650145D01*
X148644582Y-77718418D01*
X148623431Y-77746673D01*
X148509889Y-77860215D01*
X148384951Y-78032179D01*
X148288444Y-78221585D01*
X148222753Y-78423760D01*
X148189500Y-78633713D01*
X148189500Y-78846286D01*
X148222753Y-79056239D01*
X148288444Y-79258414D01*
X148384951Y-79447820D01*
X148509890Y-79619786D01*
X148660213Y-79770109D01*
X148832182Y-79895050D01*
X148840946Y-79899516D01*
X148891742Y-79947491D01*
X148908536Y-80015312D01*
X148885998Y-80081447D01*
X148840946Y-80120484D01*
X148832182Y-80124949D01*
X148660213Y-80249890D01*
X148509890Y-80400213D01*
X148384951Y-80572179D01*
X148288444Y-80761585D01*
X148222753Y-80963760D01*
X148189500Y-81173713D01*
X148189500Y-81386286D01*
X148222753Y-81596239D01*
X148288444Y-81798414D01*
X148384951Y-81987820D01*
X148509890Y-82159786D01*
X148660213Y-82310109D01*
X148832182Y-82435050D01*
X148840946Y-82439516D01*
X148891742Y-82487491D01*
X148908536Y-82555312D01*
X148885998Y-82621447D01*
X148840946Y-82660484D01*
X148832182Y-82664949D01*
X148660213Y-82789890D01*
X148509890Y-82940213D01*
X148384951Y-83112179D01*
X148288444Y-83301585D01*
X148222753Y-83503760D01*
X148189500Y-83713713D01*
X148189500Y-83926286D01*
X148222753Y-84136239D01*
X148288444Y-84338414D01*
X148384951Y-84527820D01*
X148509890Y-84699786D01*
X148660213Y-84850109D01*
X148832182Y-84975050D01*
X148840946Y-84979516D01*
X148891742Y-85027491D01*
X148908536Y-85095312D01*
X148885998Y-85161447D01*
X148840946Y-85200484D01*
X148832182Y-85204949D01*
X148660213Y-85329890D01*
X148509890Y-85480213D01*
X148384951Y-85652179D01*
X148288444Y-85841585D01*
X148222753Y-86043760D01*
X148189500Y-86253713D01*
X148189500Y-86466286D01*
X148222753Y-86676239D01*
X148288444Y-86878414D01*
X148384951Y-87067820D01*
X148509890Y-87239786D01*
X148660213Y-87390109D01*
X148832182Y-87515050D01*
X148840946Y-87519516D01*
X148891742Y-87567491D01*
X148908536Y-87635312D01*
X148885998Y-87701447D01*
X148840946Y-87740484D01*
X148832182Y-87744949D01*
X148660213Y-87869890D01*
X148509890Y-88020213D01*
X148384951Y-88192179D01*
X148288444Y-88381585D01*
X148222753Y-88583760D01*
X148189500Y-88793713D01*
X148189500Y-89006286D01*
X148222753Y-89216239D01*
X148288444Y-89418414D01*
X148384951Y-89607820D01*
X148509890Y-89779786D01*
X148660213Y-89930109D01*
X148832182Y-90055050D01*
X148840946Y-90059516D01*
X148891742Y-90107491D01*
X148908536Y-90175312D01*
X148885998Y-90241447D01*
X148840946Y-90280484D01*
X148832182Y-90284949D01*
X148660213Y-90409890D01*
X148509890Y-90560213D01*
X148384951Y-90732179D01*
X148288444Y-90921585D01*
X148222753Y-91123760D01*
X148189500Y-91333713D01*
X148189500Y-91546286D01*
X148222753Y-91756239D01*
X148288444Y-91958414D01*
X148384951Y-92147820D01*
X148509890Y-92319786D01*
X148660213Y-92470109D01*
X148832182Y-92595050D01*
X148840946Y-92599516D01*
X148891742Y-92647491D01*
X148908536Y-92715312D01*
X148885998Y-92781447D01*
X148840946Y-92820484D01*
X148832182Y-92824949D01*
X148660213Y-92949890D01*
X148509890Y-93100213D01*
X148384951Y-93272179D01*
X148288444Y-93461585D01*
X148222753Y-93663760D01*
X148189500Y-93873713D01*
X148189500Y-94086286D01*
X148222753Y-94296239D01*
X148288444Y-94498414D01*
X148384951Y-94687820D01*
X148509890Y-94859786D01*
X148660213Y-95010109D01*
X148832182Y-95135050D01*
X148840946Y-95139516D01*
X148891742Y-95187491D01*
X148908536Y-95255312D01*
X148885998Y-95321447D01*
X148840946Y-95360484D01*
X148832182Y-95364949D01*
X148660213Y-95489890D01*
X148509890Y-95640213D01*
X148384951Y-95812179D01*
X148288444Y-96001585D01*
X148222753Y-96203760D01*
X148189500Y-96413713D01*
X148189500Y-96626286D01*
X148222753Y-96836239D01*
X148288444Y-97038414D01*
X148384951Y-97227820D01*
X148509890Y-97399786D01*
X148660213Y-97550109D01*
X148832182Y-97675050D01*
X148840946Y-97679516D01*
X148891742Y-97727491D01*
X148908536Y-97795312D01*
X148885998Y-97861447D01*
X148840946Y-97900484D01*
X148832182Y-97904949D01*
X148660213Y-98029890D01*
X148509890Y-98180213D01*
X148384951Y-98352179D01*
X148288444Y-98541585D01*
X148222753Y-98743760D01*
X148189500Y-98953713D01*
X148189500Y-99166286D01*
X148222753Y-99376239D01*
X148288444Y-99578414D01*
X148384951Y-99767820D01*
X148509890Y-99939786D01*
X148660213Y-100090109D01*
X148832182Y-100215050D01*
X148840946Y-100219516D01*
X148891742Y-100267491D01*
X148908536Y-100335312D01*
X148885998Y-100401447D01*
X148840946Y-100440484D01*
X148832182Y-100444949D01*
X148660213Y-100569890D01*
X148509890Y-100720213D01*
X148384951Y-100892179D01*
X148288444Y-101081585D01*
X148222753Y-101283760D01*
X148189500Y-101493713D01*
X148189500Y-101706286D01*
X148222753Y-101916239D01*
X148288444Y-102118414D01*
X148384951Y-102307820D01*
X148509890Y-102479786D01*
X148660213Y-102630109D01*
X148832182Y-102755050D01*
X148840946Y-102759516D01*
X148891742Y-102807491D01*
X148908536Y-102875312D01*
X148885998Y-102941447D01*
X148840946Y-102980484D01*
X148832182Y-102984949D01*
X148660213Y-103109890D01*
X148509890Y-103260213D01*
X148384951Y-103432179D01*
X148288444Y-103621585D01*
X148222753Y-103823760D01*
X148189500Y-104033713D01*
X148189500Y-104246286D01*
X148222735Y-104456127D01*
X148222754Y-104456243D01*
X148234442Y-104492216D01*
X148288444Y-104658414D01*
X148384951Y-104847820D01*
X148509890Y-105019786D01*
X148660213Y-105170109D01*
X148832179Y-105295048D01*
X148832181Y-105295049D01*
X148832184Y-105295051D01*
X149021588Y-105391557D01*
X149223757Y-105457246D01*
X149433713Y-105490500D01*
X149433714Y-105490500D01*
X149646286Y-105490500D01*
X149646287Y-105490500D01*
X149856243Y-105457246D01*
X150058412Y-105391557D01*
X150247816Y-105295051D01*
X150302572Y-105255269D01*
X150419786Y-105170109D01*
X150419788Y-105170106D01*
X150419792Y-105170104D01*
X150570104Y-105019792D01*
X150570106Y-105019788D01*
X150570109Y-105019786D01*
X150695048Y-104847820D01*
X150695047Y-104847820D01*
X150695051Y-104847816D01*
X150791557Y-104658412D01*
X150857246Y-104456243D01*
X150890500Y-104246287D01*
X150890500Y-104033713D01*
X150857246Y-103823757D01*
X150791557Y-103621588D01*
X150695051Y-103432184D01*
X150695049Y-103432181D01*
X150695048Y-103432179D01*
X150570109Y-103260213D01*
X150419786Y-103109890D01*
X150247820Y-102984951D01*
X150239600Y-102980763D01*
X150239054Y-102980485D01*
X150188259Y-102932512D01*
X150171463Y-102864692D01*
X150193999Y-102798556D01*
X150239054Y-102759515D01*
X150247816Y-102755051D01*
X150282640Y-102729750D01*
X150419786Y-102630109D01*
X150419788Y-102630106D01*
X150419792Y-102630104D01*
X150570104Y-102479792D01*
X150570106Y-102479788D01*
X150570109Y-102479786D01*
X150695048Y-102307820D01*
X150695047Y-102307820D01*
X150695051Y-102307816D01*
X150791557Y-102118412D01*
X150857246Y-101916243D01*
X150890500Y-101706287D01*
X150890500Y-101493713D01*
X150857246Y-101283757D01*
X150791557Y-101081588D01*
X150695051Y-100892184D01*
X150695049Y-100892181D01*
X150695048Y-100892179D01*
X150570109Y-100720213D01*
X150419786Y-100569890D01*
X150247820Y-100444951D01*
X150247115Y-100444591D01*
X150239054Y-100440485D01*
X150188259Y-100392512D01*
X150171463Y-100324692D01*
X150193999Y-100258556D01*
X150239054Y-100219515D01*
X150247816Y-100215051D01*
X150269789Y-100199086D01*
X150419786Y-100090109D01*
X150419788Y-100090106D01*
X150419792Y-100090104D01*
X150570104Y-99939792D01*
X150570106Y-99939788D01*
X150570109Y-99939786D01*
X150695048Y-99767820D01*
X150695047Y-99767820D01*
X150695051Y-99767816D01*
X150791557Y-99578412D01*
X150857246Y-99376243D01*
X150890500Y-99166287D01*
X150890500Y-98953713D01*
X150857246Y-98743757D01*
X150791557Y-98541588D01*
X150695051Y-98352184D01*
X150695049Y-98352181D01*
X150695048Y-98352179D01*
X150570109Y-98180213D01*
X150419786Y-98029890D01*
X150247820Y-97904951D01*
X150247115Y-97904591D01*
X150239054Y-97900485D01*
X150188259Y-97852512D01*
X150171463Y-97784692D01*
X150193999Y-97718556D01*
X150239054Y-97679515D01*
X150247816Y-97675051D01*
X150269789Y-97659086D01*
X150419786Y-97550109D01*
X150419788Y-97550106D01*
X150419792Y-97550104D01*
X150570104Y-97399792D01*
X150570106Y-97399788D01*
X150570109Y-97399786D01*
X150695048Y-97227820D01*
X150695047Y-97227820D01*
X150695051Y-97227816D01*
X150791557Y-97038412D01*
X150857246Y-96836243D01*
X150890500Y-96626287D01*
X150890500Y-96413713D01*
X150857246Y-96203757D01*
X150791557Y-96001588D01*
X150695051Y-95812184D01*
X150695049Y-95812181D01*
X150695048Y-95812179D01*
X150570109Y-95640213D01*
X150419786Y-95489890D01*
X150247820Y-95364951D01*
X150247115Y-95364591D01*
X150239054Y-95360485D01*
X150188259Y-95312512D01*
X150171463Y-95244692D01*
X150193999Y-95178556D01*
X150239054Y-95139515D01*
X150247816Y-95135051D01*
X150269789Y-95119086D01*
X150419786Y-95010109D01*
X150419788Y-95010106D01*
X150419792Y-95010104D01*
X150570104Y-94859792D01*
X150570106Y-94859788D01*
X150570109Y-94859786D01*
X150695048Y-94687820D01*
X150695047Y-94687820D01*
X150695051Y-94687816D01*
X150791557Y-94498412D01*
X150857246Y-94296243D01*
X150890500Y-94086287D01*
X150890500Y-93873713D01*
X150857246Y-93663757D01*
X150791557Y-93461588D01*
X150695051Y-93272184D01*
X150695049Y-93272181D01*
X150695048Y-93272179D01*
X150570109Y-93100213D01*
X150419786Y-92949890D01*
X150247820Y-92824951D01*
X150247115Y-92824591D01*
X150239054Y-92820485D01*
X150188259Y-92772512D01*
X150171463Y-92704692D01*
X150193999Y-92638556D01*
X150239054Y-92599515D01*
X150247816Y-92595051D01*
X150269789Y-92579086D01*
X150419786Y-92470109D01*
X150419788Y-92470106D01*
X150419792Y-92470104D01*
X150570104Y-92319792D01*
X150570106Y-92319788D01*
X150570109Y-92319786D01*
X150695048Y-92147820D01*
X150695047Y-92147820D01*
X150695051Y-92147816D01*
X150791557Y-91958412D01*
X150857246Y-91756243D01*
X150890500Y-91546287D01*
X150890500Y-91333713D01*
X150857246Y-91123757D01*
X150791557Y-90921588D01*
X150695051Y-90732184D01*
X150695049Y-90732181D01*
X150695048Y-90732179D01*
X150570109Y-90560213D01*
X150419786Y-90409890D01*
X150247820Y-90284951D01*
X150247115Y-90284591D01*
X150239054Y-90280485D01*
X150188259Y-90232512D01*
X150171463Y-90164692D01*
X150193999Y-90098556D01*
X150239054Y-90059515D01*
X150247816Y-90055051D01*
X150269789Y-90039086D01*
X150419786Y-89930109D01*
X150419788Y-89930106D01*
X150419792Y-89930104D01*
X150570104Y-89779792D01*
X150570106Y-89779788D01*
X150570109Y-89779786D01*
X150695048Y-89607820D01*
X150695047Y-89607820D01*
X150695051Y-89607816D01*
X150791557Y-89418412D01*
X150857246Y-89216243D01*
X150890500Y-89006287D01*
X150890500Y-88793713D01*
X150857246Y-88583757D01*
X150791557Y-88381588D01*
X150695051Y-88192184D01*
X150695049Y-88192181D01*
X150695048Y-88192179D01*
X150570109Y-88020213D01*
X150419786Y-87869890D01*
X150247820Y-87744951D01*
X150247115Y-87744591D01*
X150239054Y-87740485D01*
X150188259Y-87692512D01*
X150171463Y-87624692D01*
X150193999Y-87558556D01*
X150239054Y-87519515D01*
X150247816Y-87515051D01*
X150269789Y-87499086D01*
X150419786Y-87390109D01*
X150419788Y-87390106D01*
X150419792Y-87390104D01*
X150570104Y-87239792D01*
X150570106Y-87239788D01*
X150570109Y-87239786D01*
X150695048Y-87067820D01*
X150695047Y-87067820D01*
X150695051Y-87067816D01*
X150791557Y-86878412D01*
X150857246Y-86676243D01*
X150890500Y-86466287D01*
X150890500Y-86253713D01*
X150857246Y-86043757D01*
X150791557Y-85841588D01*
X150695051Y-85652184D01*
X150695049Y-85652181D01*
X150695048Y-85652179D01*
X150570109Y-85480213D01*
X150419786Y-85329890D01*
X150247820Y-85204951D01*
X150247115Y-85204591D01*
X150239054Y-85200485D01*
X150188259Y-85152512D01*
X150171463Y-85084692D01*
X150193999Y-85018556D01*
X150239054Y-84979515D01*
X150247816Y-84975051D01*
X150269789Y-84959086D01*
X150419786Y-84850109D01*
X150419788Y-84850106D01*
X150419792Y-84850104D01*
X150570104Y-84699792D01*
X150570106Y-84699788D01*
X150570109Y-84699786D01*
X150695048Y-84527820D01*
X150695047Y-84527820D01*
X150695051Y-84527816D01*
X150791557Y-84338412D01*
X150857246Y-84136243D01*
X150890500Y-83926287D01*
X150890500Y-83713713D01*
X150857246Y-83503757D01*
X150791557Y-83301588D01*
X150695051Y-83112184D01*
X150695049Y-83112181D01*
X150695048Y-83112179D01*
X150570109Y-82940213D01*
X150419786Y-82789890D01*
X150247820Y-82664951D01*
X150247115Y-82664591D01*
X150239054Y-82660485D01*
X150188259Y-82612512D01*
X150171463Y-82544692D01*
X150193999Y-82478556D01*
X150239054Y-82439515D01*
X150247816Y-82435051D01*
X150269789Y-82419086D01*
X150419786Y-82310109D01*
X150419788Y-82310106D01*
X150419792Y-82310104D01*
X150570104Y-82159792D01*
X150570106Y-82159788D01*
X150570109Y-82159786D01*
X150695048Y-81987820D01*
X150695047Y-81987820D01*
X150695051Y-81987816D01*
X150791557Y-81798412D01*
X150857246Y-81596243D01*
X150890500Y-81386287D01*
X150890500Y-81173713D01*
X150857246Y-80963757D01*
X150791557Y-80761588D01*
X150695051Y-80572184D01*
X150695049Y-80572181D01*
X150695048Y-80572179D01*
X150570109Y-80400213D01*
X150419786Y-80249890D01*
X150247820Y-80124951D01*
X150247115Y-80124591D01*
X150239054Y-80120485D01*
X150188259Y-80072512D01*
X150171463Y-80004692D01*
X150193999Y-79938556D01*
X150239054Y-79899515D01*
X150247816Y-79895051D01*
X150269789Y-79879086D01*
X150419786Y-79770109D01*
X150419788Y-79770106D01*
X150419792Y-79770104D01*
X150570104Y-79619792D01*
X150570106Y-79619788D01*
X150570109Y-79619786D01*
X150695048Y-79447820D01*
X150695047Y-79447820D01*
X150695051Y-79447816D01*
X150791557Y-79258412D01*
X150857246Y-79056243D01*
X150890500Y-78846287D01*
X150890500Y-78633713D01*
X150857246Y-78423757D01*
X150791557Y-78221588D01*
X150695051Y-78032184D01*
X150695049Y-78032181D01*
X150695048Y-78032179D01*
X150570109Y-77860213D01*
X150456569Y-77746673D01*
X150423084Y-77685350D01*
X150428068Y-77615658D01*
X150469940Y-77559725D01*
X150500915Y-77542810D01*
X150632331Y-77493796D01*
X150747546Y-77407546D01*
X150833796Y-77292331D01*
X150884091Y-77157483D01*
X150890500Y-77097873D01*
X150890499Y-75302128D01*
X150884091Y-75242517D01*
X150852280Y-75157228D01*
X150833797Y-75107671D01*
X150833793Y-75107664D01*
X150747547Y-74992455D01*
X150747544Y-74992452D01*
X150632335Y-74906206D01*
X150632328Y-74906202D01*
X150497482Y-74855908D01*
X150497483Y-74855908D01*
X150437883Y-74849501D01*
X150437881Y-74849500D01*
X150437873Y-74849500D01*
X150437864Y-74849500D01*
X148642129Y-74849500D01*
X148642123Y-74849501D01*
X148582516Y-74855908D01*
X148447671Y-74906202D01*
X148447664Y-74906206D01*
X148332455Y-74992452D01*
X148332452Y-74992455D01*
X148246206Y-75107664D01*
X148246202Y-75107671D01*
X148195908Y-75242517D01*
X148189515Y-75301986D01*
X148189501Y-75302123D01*
X148189500Y-75302135D01*
X140627279Y-75302135D01*
X140627171Y-75301987D01*
X140627167Y-75301982D01*
X140482413Y-75157228D01*
X140316814Y-75036915D01*
X140310206Y-75033548D01*
X140224117Y-74989683D01*
X140173323Y-74941711D01*
X140156528Y-74873890D01*
X140179065Y-74807755D01*
X140224117Y-74768716D01*
X140316810Y-74721487D01*
X140337970Y-74706113D01*
X140482413Y-74601171D01*
X140482415Y-74601168D01*
X140482419Y-74601166D01*
X140627166Y-74456419D01*
X140627168Y-74456415D01*
X140627171Y-74456413D01*
X140679932Y-74383790D01*
X140747487Y-74290810D01*
X140840420Y-74108419D01*
X140903677Y-73913734D01*
X140935700Y-73711552D01*
X140935700Y-73506848D01*
X140903677Y-73304666D01*
X140840420Y-73109981D01*
X140840418Y-73109978D01*
X140840418Y-73109976D01*
X140806703Y-73043807D01*
X140747487Y-72927590D01*
X140739756Y-72916949D01*
X140627171Y-72761986D01*
X140482419Y-72617234D01*
X140482411Y-72617228D01*
X140388747Y-72549178D01*
X140346082Y-72493849D01*
X140340103Y-72424236D01*
X140372708Y-72362440D01*
X140422626Y-72331155D01*
X140504534Y-72304014D01*
X140653856Y-72211912D01*
X140777912Y-72087856D01*
X140870014Y-71938534D01*
X140925199Y-71771997D01*
X140935700Y-71669209D01*
X140935699Y-70966848D01*
X152774700Y-70966848D01*
X152774700Y-71171551D01*
X152806722Y-71373734D01*
X152869981Y-71568423D01*
X152962915Y-71750813D01*
X153083228Y-71916413D01*
X153227986Y-72061171D01*
X153382949Y-72173756D01*
X153393590Y-72181487D01*
X153485040Y-72228083D01*
X153486280Y-72228715D01*
X153537076Y-72276690D01*
X153553871Y-72344511D01*
X153531334Y-72410646D01*
X153486280Y-72449685D01*
X153393586Y-72496915D01*
X153227986Y-72617228D01*
X153083228Y-72761986D01*
X152962915Y-72927586D01*
X152869981Y-73109976D01*
X152806722Y-73304665D01*
X152774700Y-73506848D01*
X152774700Y-73711551D01*
X152806722Y-73913734D01*
X152869981Y-74108423D01*
X152962915Y-74290813D01*
X153083228Y-74456413D01*
X153227986Y-74601171D01*
X153382949Y-74713756D01*
X153393590Y-74721487D01*
X153485040Y-74768083D01*
X153486280Y-74768715D01*
X153537076Y-74816690D01*
X153553871Y-74884511D01*
X153531334Y-74950646D01*
X153486280Y-74989685D01*
X153393586Y-75036915D01*
X153227986Y-75157228D01*
X153083228Y-75301986D01*
X152962915Y-75467586D01*
X152869981Y-75649976D01*
X152806722Y-75844665D01*
X152774700Y-76046848D01*
X152774700Y-76251551D01*
X152806722Y-76453734D01*
X152869981Y-76648423D01*
X152962915Y-76830813D01*
X153083228Y-76996413D01*
X153227986Y-77141171D01*
X153382949Y-77253756D01*
X153393590Y-77261487D01*
X153454119Y-77292328D01*
X153486280Y-77308715D01*
X153537076Y-77356690D01*
X153553871Y-77424511D01*
X153531334Y-77490646D01*
X153486280Y-77529685D01*
X153393586Y-77576915D01*
X153227986Y-77697228D01*
X153083228Y-77841986D01*
X152962915Y-78007586D01*
X152869981Y-78189976D01*
X152806722Y-78384665D01*
X152774700Y-78586848D01*
X152774700Y-78791551D01*
X152806722Y-78993734D01*
X152869981Y-79188423D01*
X152962915Y-79370813D01*
X153083228Y-79536413D01*
X153227986Y-79681171D01*
X153382949Y-79793756D01*
X153393590Y-79801487D01*
X153485040Y-79848083D01*
X153486280Y-79848715D01*
X153537076Y-79896690D01*
X153553871Y-79964511D01*
X153531334Y-80030646D01*
X153486280Y-80069685D01*
X153393586Y-80116915D01*
X153227986Y-80237228D01*
X153083228Y-80381986D01*
X152962915Y-80547586D01*
X152869981Y-80729976D01*
X152806722Y-80924665D01*
X152774700Y-81126848D01*
X152774700Y-81331551D01*
X152806722Y-81533734D01*
X152869981Y-81728423D01*
X152962915Y-81910813D01*
X153083228Y-82076413D01*
X153227986Y-82221171D01*
X153382949Y-82333756D01*
X153393590Y-82341487D01*
X153485040Y-82388083D01*
X153486280Y-82388715D01*
X153537076Y-82436690D01*
X153553871Y-82504511D01*
X153531334Y-82570646D01*
X153486280Y-82609685D01*
X153393586Y-82656915D01*
X153227986Y-82777228D01*
X153083228Y-82921986D01*
X152962915Y-83087586D01*
X152869981Y-83269976D01*
X152806722Y-83464665D01*
X152774700Y-83666848D01*
X152774700Y-83871551D01*
X152806722Y-84073734D01*
X152869981Y-84268423D01*
X152962915Y-84450813D01*
X153083228Y-84616413D01*
X153227986Y-84761171D01*
X153382949Y-84873756D01*
X153393590Y-84881487D01*
X153485040Y-84928083D01*
X153486280Y-84928715D01*
X153537076Y-84976690D01*
X153553871Y-85044511D01*
X153531334Y-85110646D01*
X153486280Y-85149685D01*
X153393586Y-85196915D01*
X153227986Y-85317228D01*
X153083228Y-85461986D01*
X152962915Y-85627586D01*
X152869981Y-85809976D01*
X152806722Y-86004665D01*
X152774700Y-86206848D01*
X152774700Y-86411551D01*
X152806722Y-86613734D01*
X152869981Y-86808423D01*
X152962915Y-86990813D01*
X153083228Y-87156413D01*
X153227986Y-87301171D01*
X153382949Y-87413756D01*
X153393590Y-87421487D01*
X153485040Y-87468083D01*
X153486280Y-87468715D01*
X153537076Y-87516690D01*
X153553871Y-87584511D01*
X153531334Y-87650646D01*
X153486280Y-87689685D01*
X153393586Y-87736915D01*
X153227986Y-87857228D01*
X153083228Y-88001986D01*
X152962915Y-88167586D01*
X152869981Y-88349976D01*
X152806722Y-88544665D01*
X152774700Y-88746848D01*
X152774700Y-88951551D01*
X152806722Y-89153734D01*
X152869981Y-89348423D01*
X152962915Y-89530813D01*
X153083228Y-89696413D01*
X153227986Y-89841171D01*
X153382949Y-89953756D01*
X153393590Y-89961487D01*
X153485040Y-90008083D01*
X153486280Y-90008715D01*
X153537076Y-90056690D01*
X153553871Y-90124511D01*
X153531334Y-90190646D01*
X153486280Y-90229685D01*
X153393586Y-90276915D01*
X153227986Y-90397228D01*
X153083228Y-90541986D01*
X152962915Y-90707586D01*
X152869981Y-90889976D01*
X152806722Y-91084665D01*
X152774700Y-91286848D01*
X152774700Y-91491551D01*
X152806722Y-91693734D01*
X152869981Y-91888423D01*
X152962915Y-92070813D01*
X153083228Y-92236413D01*
X153227986Y-92381171D01*
X153382949Y-92493756D01*
X153393590Y-92501487D01*
X153485040Y-92548083D01*
X153486280Y-92548715D01*
X153537076Y-92596690D01*
X153553871Y-92664511D01*
X153531334Y-92730646D01*
X153486280Y-92769685D01*
X153393586Y-92816915D01*
X153227986Y-92937228D01*
X153083228Y-93081986D01*
X152962915Y-93247586D01*
X152869981Y-93429976D01*
X152806722Y-93624665D01*
X152774700Y-93826848D01*
X152774700Y-94031551D01*
X152806722Y-94233734D01*
X152869981Y-94428423D01*
X152962915Y-94610813D01*
X153083228Y-94776413D01*
X153227986Y-94921171D01*
X153382949Y-95033756D01*
X153393590Y-95041487D01*
X153485040Y-95088083D01*
X153486280Y-95088715D01*
X153537076Y-95136690D01*
X153553871Y-95204511D01*
X153531334Y-95270646D01*
X153486280Y-95309685D01*
X153393586Y-95356915D01*
X153227986Y-95477228D01*
X153083228Y-95621986D01*
X152962915Y-95787586D01*
X152869981Y-95969976D01*
X152806722Y-96164665D01*
X152774700Y-96366848D01*
X152774700Y-96571551D01*
X152806722Y-96773734D01*
X152869981Y-96968423D01*
X152962915Y-97150813D01*
X153083228Y-97316413D01*
X153227986Y-97461171D01*
X153382949Y-97573756D01*
X153393590Y-97581487D01*
X153485040Y-97628083D01*
X153486280Y-97628715D01*
X153537076Y-97676690D01*
X153553871Y-97744511D01*
X153531334Y-97810646D01*
X153486280Y-97849685D01*
X153393586Y-97896915D01*
X153227986Y-98017228D01*
X153083228Y-98161986D01*
X152962915Y-98327586D01*
X152869981Y-98509976D01*
X152806722Y-98704665D01*
X152774700Y-98906848D01*
X152774700Y-99111551D01*
X152806722Y-99313734D01*
X152869981Y-99508423D01*
X152962915Y-99690813D01*
X153083228Y-99856413D01*
X153227986Y-100001171D01*
X153382949Y-100113756D01*
X153393590Y-100121487D01*
X153485040Y-100168083D01*
X153486280Y-100168715D01*
X153537076Y-100216690D01*
X153553871Y-100284511D01*
X153531334Y-100350646D01*
X153486280Y-100389685D01*
X153393586Y-100436915D01*
X153227986Y-100557228D01*
X153083228Y-100701986D01*
X152962915Y-100867586D01*
X152869981Y-101049976D01*
X152806722Y-101244665D01*
X152774700Y-101446848D01*
X152774700Y-101651551D01*
X152806722Y-101853734D01*
X152869981Y-102048423D01*
X152917806Y-102142283D01*
X152948173Y-102201882D01*
X152962915Y-102230813D01*
X153083228Y-102396413D01*
X153227986Y-102541171D01*
X153382949Y-102653756D01*
X153393590Y-102661487D01*
X153458470Y-102694545D01*
X153486280Y-102708715D01*
X153537076Y-102756690D01*
X153553871Y-102824511D01*
X153531334Y-102890646D01*
X153486280Y-102929685D01*
X153393586Y-102976915D01*
X153227986Y-103097228D01*
X153083228Y-103241986D01*
X152962915Y-103407586D01*
X152869981Y-103589976D01*
X152806722Y-103784665D01*
X152774700Y-103986848D01*
X152774700Y-104191551D01*
X152806722Y-104393734D01*
X152869981Y-104588423D01*
X152962915Y-104770813D01*
X153083228Y-104936413D01*
X153227986Y-105081171D01*
X153382949Y-105193756D01*
X153393590Y-105201487D01*
X153485040Y-105248083D01*
X153486280Y-105248715D01*
X153537076Y-105296690D01*
X153553871Y-105364511D01*
X153531334Y-105430646D01*
X153486280Y-105469685D01*
X153393586Y-105516915D01*
X153227986Y-105637228D01*
X153083228Y-105781986D01*
X152962915Y-105947586D01*
X152869981Y-106129976D01*
X152806722Y-106324665D01*
X152774700Y-106526848D01*
X152774700Y-106731551D01*
X152806722Y-106933734D01*
X152869981Y-107128423D01*
X152962915Y-107310813D01*
X153083228Y-107476413D01*
X153227986Y-107621171D01*
X153382949Y-107733756D01*
X153393590Y-107741487D01*
X153485040Y-107788083D01*
X153486280Y-107788715D01*
X153537076Y-107836690D01*
X153553871Y-107904511D01*
X153531334Y-107970646D01*
X153486280Y-108009685D01*
X153393586Y-108056915D01*
X153227986Y-108177228D01*
X153083228Y-108321986D01*
X152962915Y-108487586D01*
X152869981Y-108669976D01*
X152806722Y-108864665D01*
X152774700Y-109066848D01*
X152774700Y-109271551D01*
X152806722Y-109473734D01*
X152869981Y-109668423D01*
X152962915Y-109850813D01*
X153083228Y-110016413D01*
X153227986Y-110161171D01*
X153382949Y-110273756D01*
X153393590Y-110281487D01*
X153509807Y-110340703D01*
X153575976Y-110374418D01*
X153575978Y-110374418D01*
X153575981Y-110374420D01*
X153680337Y-110408327D01*
X153770665Y-110437677D01*
X153871757Y-110453688D01*
X153972848Y-110469700D01*
X153972849Y-110469700D01*
X154977551Y-110469700D01*
X154977552Y-110469700D01*
X155179734Y-110437677D01*
X155374419Y-110374420D01*
X155556810Y-110281487D01*
X155649790Y-110213932D01*
X155722413Y-110161171D01*
X155722415Y-110161168D01*
X155722419Y-110161166D01*
X155867166Y-110016419D01*
X155867168Y-110016415D01*
X155867171Y-110016413D01*
X155919932Y-109943790D01*
X155987487Y-109850810D01*
X156080420Y-109668419D01*
X156143677Y-109473734D01*
X156175700Y-109271552D01*
X156175700Y-109066848D01*
X156167457Y-109014806D01*
X156143677Y-108864665D01*
X156080418Y-108669976D01*
X155987619Y-108487850D01*
X155987487Y-108487590D01*
X155979756Y-108476949D01*
X155867171Y-108321986D01*
X155722413Y-108177228D01*
X155556814Y-108056915D01*
X155550206Y-108053548D01*
X155464117Y-108009683D01*
X155413323Y-107961711D01*
X155396528Y-107893890D01*
X155419065Y-107827755D01*
X155464117Y-107788716D01*
X155556810Y-107741487D01*
X155577970Y-107726113D01*
X155722413Y-107621171D01*
X155722415Y-107621168D01*
X155722419Y-107621166D01*
X155867166Y-107476419D01*
X155867168Y-107476415D01*
X155867171Y-107476413D01*
X155919932Y-107403790D01*
X155987487Y-107310810D01*
X156080420Y-107128419D01*
X156143677Y-106933734D01*
X156175700Y-106731552D01*
X156175700Y-106526848D01*
X156143677Y-106324666D01*
X156080420Y-106129981D01*
X156080418Y-106129978D01*
X156080418Y-106129976D01*
X156046703Y-106063807D01*
X155987487Y-105947590D01*
X155979756Y-105936949D01*
X155867171Y-105781986D01*
X155722413Y-105637228D01*
X155556814Y-105516915D01*
X155550206Y-105513548D01*
X155464117Y-105469683D01*
X155413323Y-105421711D01*
X155396528Y-105353890D01*
X155419065Y-105287755D01*
X155464117Y-105248716D01*
X155556810Y-105201487D01*
X155577970Y-105186113D01*
X155722413Y-105081171D01*
X155722415Y-105081168D01*
X155722419Y-105081166D01*
X155867166Y-104936419D01*
X155867168Y-104936415D01*
X155867171Y-104936413D01*
X155931730Y-104847554D01*
X155987487Y-104770810D01*
X156080420Y-104588419D01*
X156143677Y-104393734D01*
X156175700Y-104191552D01*
X156175700Y-103986848D01*
X156143677Y-103784666D01*
X156080420Y-103589981D01*
X156080418Y-103589978D01*
X156080418Y-103589976D01*
X156000153Y-103432449D01*
X155987487Y-103407590D01*
X155966194Y-103378282D01*
X155867171Y-103241986D01*
X155722413Y-103097228D01*
X155556814Y-102976915D01*
X155550206Y-102973548D01*
X155464117Y-102929683D01*
X155413323Y-102881711D01*
X155396528Y-102813890D01*
X155419065Y-102747755D01*
X155464117Y-102708716D01*
X155556810Y-102661487D01*
X155577970Y-102646113D01*
X155722413Y-102541171D01*
X155722415Y-102541168D01*
X155722419Y-102541166D01*
X155867166Y-102396419D01*
X155867168Y-102396415D01*
X155867171Y-102396413D01*
X155931539Y-102307816D01*
X155987487Y-102230810D01*
X156080420Y-102048419D01*
X156143677Y-101853734D01*
X156175700Y-101651552D01*
X156175700Y-101446848D01*
X156143677Y-101244666D01*
X156080420Y-101049981D01*
X156080418Y-101049978D01*
X156080418Y-101049976D01*
X156000018Y-100892184D01*
X155987487Y-100867590D01*
X155979756Y-100856949D01*
X155867171Y-100701986D01*
X155722419Y-100557234D01*
X155722411Y-100557228D01*
X155556810Y-100436913D01*
X155462769Y-100388996D01*
X155461438Y-100388277D01*
X155437679Y-100364714D01*
X155418431Y-100346535D01*
X157374100Y-100346535D01*
X157374100Y-102142270D01*
X157374101Y-102142276D01*
X157380508Y-102201883D01*
X157430802Y-102336728D01*
X157430806Y-102336735D01*
X157517052Y-102451944D01*
X157517055Y-102451947D01*
X157632264Y-102538193D01*
X157632271Y-102538197D01*
X157763682Y-102587210D01*
X157819616Y-102629081D01*
X157844033Y-102694545D01*
X157829182Y-102762818D01*
X157808031Y-102791073D01*
X157694489Y-102904615D01*
X157569551Y-103076579D01*
X157473044Y-103265985D01*
X157407353Y-103468160D01*
X157374100Y-103678113D01*
X157374100Y-103890686D01*
X157403161Y-104074174D01*
X157407354Y-104100643D01*
X157441530Y-104205826D01*
X157473044Y-104302814D01*
X157569551Y-104492220D01*
X157694490Y-104664186D01*
X157844813Y-104814509D01*
X158016779Y-104939448D01*
X158016781Y-104939449D01*
X158016784Y-104939451D01*
X158206188Y-105035957D01*
X158408357Y-105101646D01*
X158618313Y-105134900D01*
X158618314Y-105134900D01*
X158830886Y-105134900D01*
X158830887Y-105134900D01*
X159040843Y-105101646D01*
X159243012Y-105035957D01*
X159432416Y-104939451D01*
X159484354Y-104901716D01*
X159604386Y-104814509D01*
X159604388Y-104814506D01*
X159604392Y-104814504D01*
X159754704Y-104664192D01*
X159754706Y-104664188D01*
X159754709Y-104664186D01*
X159879648Y-104492220D01*
X159879647Y-104492220D01*
X159879651Y-104492216D01*
X159976157Y-104302812D01*
X160041846Y-104100643D01*
X160075100Y-103890687D01*
X160075100Y-103678113D01*
X160041846Y-103468157D01*
X159976157Y-103265988D01*
X159879651Y-103076584D01*
X159879649Y-103076581D01*
X159879648Y-103076579D01*
X159754709Y-102904613D01*
X159641169Y-102791073D01*
X159607684Y-102729750D01*
X159612668Y-102660058D01*
X159654540Y-102604125D01*
X159685515Y-102587210D01*
X159816931Y-102538196D01*
X159932146Y-102451946D01*
X160018396Y-102336731D01*
X160068691Y-102201883D01*
X160075100Y-102142273D01*
X160075099Y-100346528D01*
X160068691Y-100286917D01*
X160063832Y-100273890D01*
X160018397Y-100152071D01*
X160018393Y-100152064D01*
X159932147Y-100036855D01*
X159932144Y-100036852D01*
X159816935Y-99950606D01*
X159816928Y-99950602D01*
X159682082Y-99900308D01*
X159682083Y-99900308D01*
X159622483Y-99893901D01*
X159622481Y-99893900D01*
X159622473Y-99893900D01*
X159622464Y-99893900D01*
X157826729Y-99893900D01*
X157826723Y-99893901D01*
X157767116Y-99900308D01*
X157632271Y-99950602D01*
X157632264Y-99950606D01*
X157517055Y-100036852D01*
X157517052Y-100036855D01*
X157430806Y-100152064D01*
X157430802Y-100152071D01*
X157380508Y-100286917D01*
X157374901Y-100339077D01*
X157374101Y-100346523D01*
X157374100Y-100346535D01*
X155418431Y-100346535D01*
X155413323Y-100341711D01*
X155412944Y-100340183D01*
X155411829Y-100339077D01*
X155404576Y-100306391D01*
X155396528Y-100273890D01*
X155397034Y-100272402D01*
X155396694Y-100270866D01*
X155408269Y-100239433D01*
X155419065Y-100207755D01*
X155420344Y-100206646D01*
X155420840Y-100205301D01*
X155429057Y-100199096D01*
X155464117Y-100168716D01*
X155556810Y-100121487D01*
X155577970Y-100106113D01*
X155722413Y-100001171D01*
X155722415Y-100001168D01*
X155722419Y-100001166D01*
X155867166Y-99856419D01*
X155867168Y-99856415D01*
X155867171Y-99856413D01*
X155931539Y-99767816D01*
X155987487Y-99690810D01*
X156080420Y-99508419D01*
X156143677Y-99313734D01*
X156175700Y-99111552D01*
X156175700Y-98906848D01*
X156143677Y-98704666D01*
X156080420Y-98509981D01*
X156080418Y-98509978D01*
X156080418Y-98509976D01*
X156000018Y-98352184D01*
X155987487Y-98327590D01*
X155979756Y-98316949D01*
X155867171Y-98161986D01*
X155722413Y-98017228D01*
X155556814Y-97896915D01*
X155550206Y-97893548D01*
X155464117Y-97849683D01*
X155413323Y-97801711D01*
X155396528Y-97733890D01*
X155419065Y-97667755D01*
X155464117Y-97628716D01*
X155556810Y-97581487D01*
X155577970Y-97566113D01*
X155722413Y-97461171D01*
X155722415Y-97461168D01*
X155722419Y-97461166D01*
X155867166Y-97316419D01*
X155867168Y-97316415D01*
X155867171Y-97316413D01*
X155931539Y-97227816D01*
X155987487Y-97150810D01*
X156080420Y-96968419D01*
X156143677Y-96773734D01*
X156175700Y-96571552D01*
X156175700Y-96366848D01*
X156143677Y-96164666D01*
X156080420Y-95969981D01*
X156080418Y-95969978D01*
X156080418Y-95969976D01*
X156000018Y-95812184D01*
X155987487Y-95787590D01*
X155979756Y-95776949D01*
X155867171Y-95621986D01*
X155722413Y-95477228D01*
X155556814Y-95356915D01*
X155550206Y-95353548D01*
X155464117Y-95309683D01*
X155413323Y-95261711D01*
X155396528Y-95193890D01*
X155419065Y-95127755D01*
X155464117Y-95088716D01*
X155556810Y-95041487D01*
X155577970Y-95026113D01*
X155722413Y-94921171D01*
X155722415Y-94921168D01*
X155722419Y-94921166D01*
X155867166Y-94776419D01*
X155867168Y-94776415D01*
X155867171Y-94776413D01*
X155931539Y-94687816D01*
X155987487Y-94610810D01*
X156080420Y-94428419D01*
X156143677Y-94233734D01*
X156175700Y-94031552D01*
X156175700Y-93826848D01*
X156143677Y-93624666D01*
X156080420Y-93429981D01*
X156080418Y-93429978D01*
X156080418Y-93429976D01*
X156000018Y-93272184D01*
X155987487Y-93247590D01*
X155979756Y-93236949D01*
X155867171Y-93081986D01*
X155722413Y-92937228D01*
X155556814Y-92816915D01*
X155550206Y-92813548D01*
X155464117Y-92769683D01*
X155413323Y-92721711D01*
X155396528Y-92653890D01*
X155419065Y-92587755D01*
X155464117Y-92548716D01*
X155556810Y-92501487D01*
X155577970Y-92486113D01*
X155722413Y-92381171D01*
X155722415Y-92381168D01*
X155722419Y-92381166D01*
X155867166Y-92236419D01*
X155867168Y-92236415D01*
X155867171Y-92236413D01*
X155931539Y-92147816D01*
X155987487Y-92070810D01*
X156080420Y-91888419D01*
X156143677Y-91693734D01*
X156175700Y-91491552D01*
X156175700Y-91286848D01*
X156143677Y-91084666D01*
X156080420Y-90889981D01*
X156080418Y-90889978D01*
X156080418Y-90889976D01*
X156000018Y-90732184D01*
X155987487Y-90707590D01*
X155979756Y-90696949D01*
X155867171Y-90541986D01*
X155722413Y-90397228D01*
X155556814Y-90276915D01*
X155550206Y-90273548D01*
X155464117Y-90229683D01*
X155413323Y-90181711D01*
X155396528Y-90113890D01*
X155419065Y-90047755D01*
X155464117Y-90008716D01*
X155556810Y-89961487D01*
X155577970Y-89946113D01*
X155722413Y-89841171D01*
X155722415Y-89841168D01*
X155722419Y-89841166D01*
X155867166Y-89696419D01*
X155867168Y-89696415D01*
X155867171Y-89696413D01*
X155931539Y-89607816D01*
X155987487Y-89530810D01*
X156080420Y-89348419D01*
X156143677Y-89153734D01*
X156175700Y-88951552D01*
X156175700Y-88746848D01*
X156143677Y-88544666D01*
X156080420Y-88349981D01*
X156080418Y-88349978D01*
X156080418Y-88349976D01*
X156000018Y-88192184D01*
X155987487Y-88167590D01*
X155979756Y-88156949D01*
X155867171Y-88001986D01*
X155722413Y-87857228D01*
X155556814Y-87736915D01*
X155550206Y-87733548D01*
X155464117Y-87689683D01*
X155413323Y-87641711D01*
X155396528Y-87573890D01*
X155419065Y-87507755D01*
X155464117Y-87468716D01*
X155556810Y-87421487D01*
X155577970Y-87406113D01*
X155722413Y-87301171D01*
X155722415Y-87301168D01*
X155722419Y-87301166D01*
X155867166Y-87156419D01*
X155867168Y-87156415D01*
X155867171Y-87156413D01*
X155931539Y-87067816D01*
X155987487Y-86990810D01*
X156080420Y-86808419D01*
X156143677Y-86613734D01*
X156175700Y-86411552D01*
X156175700Y-86206848D01*
X156143677Y-86004666D01*
X156080420Y-85809981D01*
X156080418Y-85809978D01*
X156080418Y-85809976D01*
X156000018Y-85652184D01*
X155987487Y-85627590D01*
X155979756Y-85616949D01*
X155867171Y-85461986D01*
X155722413Y-85317228D01*
X155556814Y-85196915D01*
X155550206Y-85193548D01*
X155464117Y-85149683D01*
X155413323Y-85101711D01*
X155396528Y-85033890D01*
X155419065Y-84967755D01*
X155464117Y-84928716D01*
X155556810Y-84881487D01*
X155577970Y-84866113D01*
X155722413Y-84761171D01*
X155722415Y-84761168D01*
X155722419Y-84761166D01*
X155867166Y-84616419D01*
X155867168Y-84616415D01*
X155867171Y-84616413D01*
X155931539Y-84527816D01*
X155987487Y-84450810D01*
X156080420Y-84268419D01*
X156143677Y-84073734D01*
X156175700Y-83871552D01*
X156175700Y-83666848D01*
X156143677Y-83464666D01*
X156080420Y-83269981D01*
X156080418Y-83269978D01*
X156080418Y-83269976D01*
X156000018Y-83112184D01*
X155987487Y-83087590D01*
X155979756Y-83076949D01*
X155867171Y-82921986D01*
X155722413Y-82777228D01*
X155556814Y-82656915D01*
X155550206Y-82653548D01*
X155464117Y-82609683D01*
X155413323Y-82561711D01*
X155396528Y-82493890D01*
X155419065Y-82427755D01*
X155464117Y-82388716D01*
X155556810Y-82341487D01*
X155577970Y-82326113D01*
X155722413Y-82221171D01*
X155722415Y-82221168D01*
X155722419Y-82221166D01*
X155867166Y-82076419D01*
X155867168Y-82076415D01*
X155867171Y-82076413D01*
X155931539Y-81987816D01*
X155987487Y-81910810D01*
X156080420Y-81728419D01*
X156143677Y-81533734D01*
X156175700Y-81331552D01*
X156175700Y-81126848D01*
X156143677Y-80924666D01*
X156080420Y-80729981D01*
X156080418Y-80729978D01*
X156080418Y-80729976D01*
X156000018Y-80572184D01*
X155987487Y-80547590D01*
X155979756Y-80536949D01*
X155867171Y-80381986D01*
X155722413Y-80237228D01*
X155556814Y-80116915D01*
X155550206Y-80113548D01*
X155464117Y-80069683D01*
X155413323Y-80021711D01*
X155396528Y-79953890D01*
X155419065Y-79887755D01*
X155464117Y-79848716D01*
X155556810Y-79801487D01*
X155577970Y-79786113D01*
X155722413Y-79681171D01*
X155722415Y-79681168D01*
X155722419Y-79681166D01*
X155867166Y-79536419D01*
X155867168Y-79536415D01*
X155867171Y-79536413D01*
X155931539Y-79447816D01*
X155987487Y-79370810D01*
X156080420Y-79188419D01*
X156143677Y-78993734D01*
X156175700Y-78791552D01*
X156175700Y-78586848D01*
X156143677Y-78384666D01*
X156080420Y-78189981D01*
X156080418Y-78189978D01*
X156080418Y-78189976D01*
X156000018Y-78032184D01*
X155987487Y-78007590D01*
X155979756Y-77996949D01*
X155867171Y-77841986D01*
X155722413Y-77697228D01*
X155556814Y-77576915D01*
X155550206Y-77573548D01*
X155464117Y-77529683D01*
X155413323Y-77481711D01*
X155396528Y-77413890D01*
X155419065Y-77347755D01*
X155464117Y-77308716D01*
X155556810Y-77261487D01*
X155577970Y-77246113D01*
X155722413Y-77141171D01*
X155722415Y-77141168D01*
X155722419Y-77141166D01*
X155867166Y-76996419D01*
X155867168Y-76996415D01*
X155867171Y-76996413D01*
X155919932Y-76923790D01*
X155987487Y-76830810D01*
X156080420Y-76648419D01*
X156143677Y-76453734D01*
X156175700Y-76251552D01*
X156175700Y-76046848D01*
X156143677Y-75844666D01*
X156080420Y-75649981D01*
X156080418Y-75649978D01*
X156080418Y-75649976D01*
X156046703Y-75583807D01*
X155987487Y-75467590D01*
X155979756Y-75456949D01*
X155867171Y-75301986D01*
X155722413Y-75157228D01*
X155556814Y-75036915D01*
X155550206Y-75033548D01*
X155464117Y-74989683D01*
X155413323Y-74941711D01*
X155396528Y-74873890D01*
X155419065Y-74807755D01*
X155464117Y-74768716D01*
X155556810Y-74721487D01*
X155577970Y-74706113D01*
X155722413Y-74601171D01*
X155722415Y-74601168D01*
X155722419Y-74601166D01*
X155867166Y-74456419D01*
X155867168Y-74456415D01*
X155867171Y-74456413D01*
X155919932Y-74383790D01*
X155987487Y-74290810D01*
X156080420Y-74108419D01*
X156143677Y-73913734D01*
X156175700Y-73711552D01*
X156175700Y-73506848D01*
X156143677Y-73304666D01*
X156080420Y-73109981D01*
X156080418Y-73109978D01*
X156080418Y-73109976D01*
X156046703Y-73043807D01*
X155987487Y-72927590D01*
X155979756Y-72916949D01*
X155867171Y-72761986D01*
X155722413Y-72617228D01*
X155556814Y-72496915D01*
X155550206Y-72493548D01*
X155464117Y-72449683D01*
X155413323Y-72401711D01*
X155396528Y-72333890D01*
X155419065Y-72267755D01*
X155464117Y-72228716D01*
X155556810Y-72181487D01*
X155685682Y-72087857D01*
X155722413Y-72061171D01*
X155722415Y-72061168D01*
X155722419Y-72061166D01*
X155867166Y-71916419D01*
X155867168Y-71916415D01*
X155867171Y-71916413D01*
X155972092Y-71771999D01*
X155987487Y-71750810D01*
X156080420Y-71568419D01*
X156143677Y-71373734D01*
X156175700Y-71171552D01*
X156175700Y-70966848D01*
X156143677Y-70764666D01*
X156080420Y-70569981D01*
X156080418Y-70569978D01*
X156080418Y-70569976D01*
X156029065Y-70469191D01*
X155987487Y-70387590D01*
X155972092Y-70366400D01*
X155867171Y-70221986D01*
X155722413Y-70077228D01*
X155556813Y-69956915D01*
X155556812Y-69956914D01*
X155556810Y-69956913D01*
X155497098Y-69926488D01*
X155374423Y-69863981D01*
X155179734Y-69800722D01*
X155005195Y-69773078D01*
X154977552Y-69768700D01*
X153972848Y-69768700D01*
X153948529Y-69772551D01*
X153770665Y-69800722D01*
X153575976Y-69863981D01*
X153393586Y-69956915D01*
X153227986Y-70077228D01*
X153083228Y-70221986D01*
X152962915Y-70387586D01*
X152869981Y-70569976D01*
X152806722Y-70764665D01*
X152774700Y-70966848D01*
X140935699Y-70966848D01*
X140935699Y-70469192D01*
X140925199Y-70366403D01*
X140870014Y-70199866D01*
X140777912Y-70050544D01*
X140653856Y-69926488D01*
X140504534Y-69834386D01*
X140337997Y-69779201D01*
X140337995Y-69779200D01*
X140235210Y-69768700D01*
X138235198Y-69768700D01*
X138235181Y-69768701D01*
X138132403Y-69779200D01*
X138132400Y-69779201D01*
X137965868Y-69834385D01*
X137965863Y-69834387D01*
X137816542Y-69926489D01*
X137692489Y-70050542D01*
X137600387Y-70199863D01*
X137600386Y-70199866D01*
X137545201Y-70366403D01*
X137545201Y-70366404D01*
X137545200Y-70366404D01*
X137534700Y-70469183D01*
X131742300Y-70469183D01*
X131742300Y-68721900D01*
X131761985Y-68654861D01*
X131814789Y-68609106D01*
X131866300Y-68597900D01*
X160538500Y-68597900D01*
X160605539Y-68617585D01*
G37*
%TD.AperFunction*%
%TD*%
M02*
