%TF.GenerationSoftware,KiCad,Pcbnew,9.0.4*%
%TF.CreationDate,2025-11-23T11:21:44+13:00*%
%TF.ProjectId,2364replacement,32333634-7265-4706-9c61-63656d656e74,rev?*%
%TF.SameCoordinates,Original*%
%TF.FileFunction,Copper,L2,Bot*%
%TF.FilePolarity,Positive*%
%FSLAX46Y46*%
G04 Gerber Fmt 4.6, Leading zero omitted, Abs format (unit mm)*
G04 Created by KiCad (PCBNEW 9.0.4) date 2025-11-23 11:21:44*
%MOMM*%
%LPD*%
G01*
G04 APERTURE LIST*
%TA.AperFunction,ComponentPad*%
%ADD10C,1.600000*%
%TD*%
%TA.AperFunction,ComponentPad*%
%ADD11R,1.700000X1.700000*%
%TD*%
%TA.AperFunction,ComponentPad*%
%ADD12C,1.700000*%
%TD*%
%TA.AperFunction,ViaPad*%
%ADD13C,0.600000*%
%TD*%
%TA.AperFunction,Conductor*%
%ADD14C,0.250000*%
%TD*%
G04 APERTURE END LIST*
D10*
%TO.P,R1,1*%
%TO.N,VCC*%
X116890800Y-72847200D03*
%TO.P,R1,2*%
%TO.N,Net-(J3-Pin_1)*%
X127050800Y-72847200D03*
%TD*%
D11*
%TO.P,J3,1,Pin_1*%
%TO.N,A7*%
X114300000Y-76200000D03*
D12*
%TO.P,J3,2,Pin_2*%
%TO.N,A6*%
X114300000Y-78740000D03*
%TO.P,J3,3,Pin_3*%
%TO.N,A5*%
X114300000Y-81280000D03*
%TO.P,J3,4,Pin_4*%
%TO.N,A4*%
X114300000Y-83820000D03*
%TO.P,J3,5,Pin_5*%
%TO.N,A3*%
X114300000Y-86360000D03*
%TO.P,J3,6,Pin_6*%
%TO.N,A2*%
X114300000Y-88900000D03*
%TO.P,J3,7,Pin_7*%
%TO.N,A1*%
X114300000Y-91440000D03*
%TO.P,J3,8,Pin_8*%
%TO.N,A0*%
X114300000Y-93980000D03*
%TO.P,J3,9,Pin_9*%
%TO.N,D0*%
X114300000Y-96520000D03*
%TO.P,J3,10,Pin_10*%
%TO.N,D1*%
X114300000Y-99060000D03*
%TO.P,J3,11,Pin_11*%
%TO.N,D2*%
X114300000Y-101600000D03*
%TO.P,J3,12,Pin_12*%
%TO.N,GND*%
X114300000Y-104140000D03*
%TD*%
D11*
%TO.P,J1,1,Pin_1*%
%TO.N,Net-(J3-Pin_1)*%
X120645000Y-103809800D03*
D12*
%TO.P,J1,2,Pin_2*%
%TO.N,Net-(J3-Pin_2)*%
X123185000Y-103809800D03*
%TD*%
D11*
%TO.P,JP1,1,A*%
%TO.N,Net-(J2-Pin_5)*%
X122966400Y-77774800D03*
D12*
%TO.P,JP1,2,B*%
%TO.N,Net-(J3-Pin_2)*%
X120426400Y-77774800D03*
%TD*%
D11*
%TO.P,J2,1,Pin_1*%
%TO.N,VCC*%
X129540000Y-76200000D03*
D12*
%TO.P,J2,2,Pin_2*%
%TO.N,A8*%
X129540000Y-78740000D03*
%TO.P,J2,3,Pin_3*%
%TO.N,A9*%
X129540000Y-81280000D03*
%TO.P,J2,4,Pin_4*%
%TO.N,A12*%
X129540000Y-83820000D03*
%TO.P,J2,5,Pin_5*%
%TO.N,Net-(J2-Pin_5)*%
X129540000Y-86360000D03*
%TO.P,J2,6,Pin_6*%
%TO.N,A10*%
X129540000Y-88900000D03*
%TO.P,J2,7,Pin_7*%
%TO.N,A11*%
X129540000Y-91440000D03*
%TO.P,J2,8,Pin_8*%
%TO.N,D7*%
X129540000Y-93980000D03*
%TO.P,J2,9,Pin_9*%
%TO.N,D6*%
X129540000Y-96520000D03*
%TO.P,J2,10,Pin_10*%
%TO.N,D5*%
X129540000Y-99060000D03*
%TO.P,J2,11,Pin_11*%
%TO.N,D4*%
X129540000Y-101600000D03*
%TO.P,J2,12,Pin_12*%
%TO.N,D3*%
X129540000Y-104140000D03*
%TD*%
D13*
%TO.N,A3*%
X118237000Y-88900000D03*
%TO.N,A4*%
X118872000Y-87147400D03*
%TO.N,A5*%
X118922800Y-86182200D03*
%TO.N,GND*%
X119913400Y-100126800D03*
%TO.N,A12*%
X127762000Y-79984600D03*
X122490000Y-81621400D03*
%TO.N,A9*%
X125298200Y-84759800D03*
%TO.N,A11*%
X125577600Y-89525000D03*
%TO.N,A10*%
X124714000Y-91440000D03*
%TO.N,Net-(J2-Pin_5)*%
X123494800Y-89154000D03*
%TO.N,Net-(J3-Pin_1)*%
X121285000Y-95250000D03*
X124460000Y-81700600D03*
X125374400Y-80300600D03*
%TO.N,Net-(J3-Pin_2)*%
X122555000Y-87609716D03*
%TD*%
D14*
%TO.N,A3*%
X114300000Y-86360000D02*
X117221000Y-86360000D01*
X117221000Y-86360000D02*
X118237000Y-87376000D01*
X118237000Y-87376000D02*
X118237000Y-88900000D01*
%TO.N,A4*%
X118872000Y-87147400D02*
X118846600Y-87147400D01*
X118846600Y-87147400D02*
X115519200Y-83820000D01*
X115519200Y-83820000D02*
X114300000Y-83820000D01*
%TO.N,A5*%
X114300000Y-81584800D02*
X114300000Y-81280000D01*
X118922800Y-86182200D02*
X118897400Y-86182200D01*
X118897400Y-86182200D02*
X114300000Y-81584800D01*
%TO.N,A12*%
X127304800Y-79527400D02*
X127762000Y-79984600D01*
X125120400Y-79527400D02*
X127304800Y-79527400D01*
X123026400Y-81621400D02*
X125120400Y-79527400D01*
X122490000Y-81621400D02*
X123026400Y-81621400D01*
%TO.N,A9*%
X125298200Y-84759800D02*
X128778000Y-81280000D01*
X128778000Y-81280000D02*
X129540000Y-81280000D01*
%TO.N,A11*%
X125577600Y-89525000D02*
X126380400Y-89525000D01*
X126380400Y-89525000D02*
X128295400Y-91440000D01*
X128295400Y-91440000D02*
X129540000Y-91440000D01*
%TO.N,A10*%
X124637800Y-89255600D02*
X124993400Y-88900000D01*
X124637800Y-91338400D02*
X124637800Y-89255600D01*
X124714000Y-91440000D02*
X124714000Y-91414600D01*
X124993400Y-88900000D02*
X129540000Y-88900000D01*
X124714000Y-91414600D02*
X124637800Y-91338400D01*
%TO.N,Net-(J2-Pin_5)*%
X120446800Y-80264000D02*
X122936000Y-77774800D01*
X122936000Y-77774800D02*
X122966400Y-77774800D01*
X123494800Y-89154000D02*
X123494800Y-85648800D01*
X120446800Y-82600800D02*
X120446800Y-80264000D01*
X123494800Y-85648800D02*
X120446800Y-82600800D01*
X127965200Y-87934800D02*
X129540000Y-86360000D01*
X124714000Y-87934800D02*
X127965200Y-87934800D01*
X123494800Y-89154000D02*
X124714000Y-87934800D01*
%TO.N,Net-(J3-Pin_1)*%
X121285000Y-95250000D02*
X121285000Y-103169800D01*
X121285000Y-103169800D02*
X120645000Y-103809800D01*
X124460000Y-81215000D02*
X124460000Y-81700600D01*
X125374400Y-80300600D02*
X124460000Y-81215000D01*
%TO.N,Net-(J3-Pin_2)*%
X122555000Y-103179800D02*
X123185000Y-103809800D01*
X119608600Y-78592600D02*
X120426400Y-77774800D01*
X122555000Y-87609716D02*
X122529600Y-87584316D01*
X122529600Y-85928200D02*
X119608600Y-83007200D01*
X122529600Y-87584316D02*
X122529600Y-85928200D01*
X119608600Y-83007200D02*
X119608600Y-78592600D01*
X122555000Y-87609716D02*
X122555000Y-103179800D01*
%TD*%
%TA.AperFunction,Conductor*%
%TO.N,GND*%
G36*
X113834075Y-104332993D02*
G01*
X113899901Y-104447007D01*
X113992993Y-104540099D01*
X114107007Y-104605925D01*
X114170590Y-104622962D01*
X113538282Y-105255269D01*
X113538282Y-105255270D01*
X113592449Y-105294624D01*
X113781782Y-105391095D01*
X113978366Y-105454969D01*
X114036041Y-105494406D01*
X114063240Y-105558765D01*
X114051325Y-105627611D01*
X114004081Y-105679087D01*
X113940048Y-105696900D01*
X112892500Y-105696900D01*
X112825461Y-105677215D01*
X112779706Y-105624411D01*
X112768500Y-105572900D01*
X112768500Y-104578125D01*
X112788185Y-104511086D01*
X112840989Y-104465331D01*
X112910147Y-104455387D01*
X112973703Y-104484412D01*
X113010431Y-104539807D01*
X113048904Y-104658217D01*
X113145375Y-104847550D01*
X113184728Y-104901716D01*
X113817037Y-104269408D01*
X113834075Y-104332993D01*
G37*
%TD.AperFunction*%
%TA.AperFunction,Conductor*%
G36*
X116052070Y-71640185D02*
G01*
X116097825Y-71692989D01*
X116107769Y-71762147D01*
X116078744Y-71825703D01*
X116057916Y-71844818D01*
X116043587Y-71855228D01*
X116043582Y-71855232D01*
X115898828Y-71999986D01*
X115778515Y-72165586D01*
X115685581Y-72347976D01*
X115622322Y-72542665D01*
X115590300Y-72744848D01*
X115590300Y-72949551D01*
X115622322Y-73151734D01*
X115685581Y-73346423D01*
X115778515Y-73528813D01*
X115898828Y-73694413D01*
X116043586Y-73839171D01*
X116198549Y-73951756D01*
X116209190Y-73959487D01*
X116325407Y-74018703D01*
X116391576Y-74052418D01*
X116391578Y-74052418D01*
X116391581Y-74052420D01*
X116495937Y-74086327D01*
X116586265Y-74115677D01*
X116687357Y-74131688D01*
X116788448Y-74147700D01*
X116788449Y-74147700D01*
X116993151Y-74147700D01*
X116993152Y-74147700D01*
X117195334Y-74115677D01*
X117390019Y-74052420D01*
X117572410Y-73959487D01*
X117665390Y-73891932D01*
X117738013Y-73839171D01*
X117738015Y-73839168D01*
X117738019Y-73839166D01*
X117882766Y-73694419D01*
X117882768Y-73694415D01*
X117882771Y-73694413D01*
X117935532Y-73621790D01*
X118003087Y-73528810D01*
X118096020Y-73346419D01*
X118159277Y-73151734D01*
X118191300Y-72949552D01*
X118191300Y-72744848D01*
X118159277Y-72542665D01*
X118096018Y-72347976D01*
X118031938Y-72222214D01*
X118003087Y-72165590D01*
X117995356Y-72154949D01*
X117882771Y-71999986D01*
X117738017Y-71855232D01*
X117738012Y-71855228D01*
X117723684Y-71844818D01*
X117681018Y-71789488D01*
X117675039Y-71719875D01*
X117707645Y-71658080D01*
X117768483Y-71623723D01*
X117796569Y-71620500D01*
X126145031Y-71620500D01*
X126212070Y-71640185D01*
X126257825Y-71692989D01*
X126267769Y-71762147D01*
X126238744Y-71825703D01*
X126217916Y-71844818D01*
X126203587Y-71855228D01*
X126203582Y-71855232D01*
X126058828Y-71999986D01*
X125938515Y-72165586D01*
X125845581Y-72347976D01*
X125782322Y-72542665D01*
X125750300Y-72744848D01*
X125750300Y-72949551D01*
X125782322Y-73151734D01*
X125845581Y-73346423D01*
X125938515Y-73528813D01*
X126058828Y-73694413D01*
X126203586Y-73839171D01*
X126358549Y-73951756D01*
X126369190Y-73959487D01*
X126485407Y-74018703D01*
X126551576Y-74052418D01*
X126551578Y-74052418D01*
X126551581Y-74052420D01*
X126655937Y-74086327D01*
X126746265Y-74115677D01*
X126847357Y-74131688D01*
X126948448Y-74147700D01*
X126948449Y-74147700D01*
X127153151Y-74147700D01*
X127153152Y-74147700D01*
X127355334Y-74115677D01*
X127550019Y-74052420D01*
X127732410Y-73959487D01*
X127825390Y-73891932D01*
X127898013Y-73839171D01*
X127898015Y-73839168D01*
X127898019Y-73839166D01*
X128042766Y-73694419D01*
X128042768Y-73694415D01*
X128042771Y-73694413D01*
X128095532Y-73621790D01*
X128163087Y-73528810D01*
X128256020Y-73346419D01*
X128319277Y-73151734D01*
X128351300Y-72949552D01*
X128351300Y-72744848D01*
X128319277Y-72542665D01*
X128256018Y-72347976D01*
X128191938Y-72222214D01*
X128163087Y-72165590D01*
X128155356Y-72154949D01*
X128042771Y-71999986D01*
X127898017Y-71855232D01*
X127898012Y-71855228D01*
X127883684Y-71844818D01*
X127841018Y-71789488D01*
X127835039Y-71719875D01*
X127867645Y-71658080D01*
X127928483Y-71623723D01*
X127956569Y-71620500D01*
X130947500Y-71620500D01*
X131014539Y-71640185D01*
X131060294Y-71692989D01*
X131071500Y-71744500D01*
X131071500Y-75057690D01*
X131051815Y-75124729D01*
X130999011Y-75170484D01*
X130929853Y-75180428D01*
X130866297Y-75151403D01*
X130840428Y-75114153D01*
X130838047Y-75115454D01*
X130833793Y-75107664D01*
X130747547Y-74992455D01*
X130747544Y-74992452D01*
X130632335Y-74906206D01*
X130632328Y-74906202D01*
X130497482Y-74855908D01*
X130497483Y-74855908D01*
X130437883Y-74849501D01*
X130437881Y-74849500D01*
X130437873Y-74849500D01*
X130437864Y-74849500D01*
X128642129Y-74849500D01*
X128642123Y-74849501D01*
X128582516Y-74855908D01*
X128447671Y-74906202D01*
X128447664Y-74906206D01*
X128332455Y-74992452D01*
X128332452Y-74992455D01*
X128246206Y-75107664D01*
X128246202Y-75107671D01*
X128195908Y-75242517D01*
X128189501Y-75302116D01*
X128189501Y-75302123D01*
X128189500Y-75302135D01*
X128189500Y-77097870D01*
X128189501Y-77097876D01*
X128195908Y-77157483D01*
X128246202Y-77292328D01*
X128246206Y-77292335D01*
X128332452Y-77407544D01*
X128332455Y-77407547D01*
X128447664Y-77493793D01*
X128447671Y-77493797D01*
X128579082Y-77542810D01*
X128635016Y-77584681D01*
X128659433Y-77650145D01*
X128644582Y-77718418D01*
X128623431Y-77746673D01*
X128509889Y-77860215D01*
X128384951Y-78032179D01*
X128288444Y-78221585D01*
X128222753Y-78423760D01*
X128189500Y-78633713D01*
X128189500Y-78846286D01*
X128222753Y-79056240D01*
X128222754Y-79056243D01*
X128232431Y-79086027D01*
X128234532Y-79092491D01*
X128234829Y-79102921D01*
X128239225Y-79112387D01*
X128235810Y-79137250D01*
X128236527Y-79162332D01*
X128231138Y-79171267D01*
X128229719Y-79181607D01*
X128213404Y-79200676D01*
X128200447Y-79222165D01*
X128191081Y-79226769D01*
X128184298Y-79234699D01*
X128160265Y-79241921D01*
X128137746Y-79252993D01*
X128125603Y-79252337D01*
X128117385Y-79254807D01*
X128096813Y-79250782D01*
X128082419Y-79250005D01*
X128075654Y-79248065D01*
X127995497Y-79214863D01*
X127879233Y-79191736D01*
X127874294Y-79190320D01*
X127848950Y-79174258D01*
X127822374Y-79160356D01*
X127820795Y-79158805D01*
X127797728Y-79135738D01*
X127797725Y-79135734D01*
X127797725Y-79135735D01*
X127790658Y-79128668D01*
X127790658Y-79128667D01*
X127703533Y-79041542D01*
X127703532Y-79041541D01*
X127703531Y-79041540D01*
X127658125Y-79011201D01*
X127658124Y-79011200D01*
X127652309Y-79007315D01*
X127601086Y-78973088D01*
X127520592Y-78939747D01*
X127505257Y-78933395D01*
X127487253Y-78925937D01*
X127477227Y-78923943D01*
X127426829Y-78913918D01*
X127366410Y-78901900D01*
X127366407Y-78901900D01*
X127366406Y-78901900D01*
X125182007Y-78901900D01*
X125058793Y-78901900D01*
X125058789Y-78901900D01*
X124998371Y-78913918D01*
X124955143Y-78922516D01*
X124937946Y-78925937D01*
X124824116Y-78973087D01*
X124824107Y-78973092D01*
X124721668Y-79041540D01*
X124696263Y-79066946D01*
X124634542Y-79128667D01*
X124634539Y-79128670D01*
X122915054Y-80848154D01*
X122853731Y-80881639D01*
X122784039Y-80876655D01*
X122779921Y-80875034D01*
X122723501Y-80851664D01*
X122723489Y-80851661D01*
X122568845Y-80820900D01*
X122568842Y-80820900D01*
X122411158Y-80820900D01*
X122411155Y-80820900D01*
X122256510Y-80851661D01*
X122256498Y-80851664D01*
X122110827Y-80912002D01*
X122110814Y-80912009D01*
X121979711Y-80999610D01*
X121979707Y-80999613D01*
X121868213Y-81111107D01*
X121868210Y-81111111D01*
X121780609Y-81242214D01*
X121780602Y-81242227D01*
X121720264Y-81387898D01*
X121720261Y-81387910D01*
X121689500Y-81542553D01*
X121689500Y-81700246D01*
X121720261Y-81854889D01*
X121720264Y-81854901D01*
X121780602Y-82000572D01*
X121780609Y-82000585D01*
X121868210Y-82131688D01*
X121868212Y-82131691D01*
X121979707Y-82243186D01*
X121979711Y-82243189D01*
X122110814Y-82330790D01*
X122110827Y-82330797D01*
X122224857Y-82378029D01*
X122256503Y-82391137D01*
X122411153Y-82421899D01*
X122411156Y-82421900D01*
X122411158Y-82421900D01*
X122568844Y-82421900D01*
X122568845Y-82421899D01*
X122723497Y-82391137D01*
X122869179Y-82330794D01*
X122963459Y-82267798D01*
X122976844Y-82262977D01*
X122985446Y-82256113D01*
X123008448Y-82251594D01*
X123019685Y-82247548D01*
X123025996Y-82246900D01*
X123088007Y-82246900D01*
X123148429Y-82234881D01*
X123208852Y-82222863D01*
X123259058Y-82202067D01*
X123322686Y-82175712D01*
X123388569Y-82131689D01*
X123425133Y-82107258D01*
X123512258Y-82020133D01*
X123512259Y-82020131D01*
X123519325Y-82013065D01*
X123519328Y-82013061D01*
X123532102Y-82000286D01*
X123593423Y-81966803D01*
X123663115Y-81971787D01*
X123719048Y-82013659D01*
X123734342Y-82040515D01*
X123750603Y-82079772D01*
X123750606Y-82079778D01*
X123750609Y-82079785D01*
X123838210Y-82210888D01*
X123838213Y-82210892D01*
X123949707Y-82322386D01*
X123949711Y-82322389D01*
X124080814Y-82409990D01*
X124080827Y-82409997D01*
X124226498Y-82470335D01*
X124226503Y-82470337D01*
X124381153Y-82501099D01*
X124381156Y-82501100D01*
X124381158Y-82501100D01*
X124538844Y-82501100D01*
X124538845Y-82501099D01*
X124693497Y-82470337D01*
X124839179Y-82409994D01*
X124970289Y-82322389D01*
X125081789Y-82210889D01*
X125169394Y-82079779D01*
X125229737Y-81934097D01*
X125260500Y-81779442D01*
X125260500Y-81621758D01*
X125260500Y-81621755D01*
X125260499Y-81621753D01*
X125229738Y-81467110D01*
X125229737Y-81467103D01*
X125221243Y-81446598D01*
X125213774Y-81377132D01*
X125245047Y-81314652D01*
X125248095Y-81311493D01*
X125433197Y-81126391D01*
X125494518Y-81092908D01*
X125496528Y-81092489D01*
X125607897Y-81070337D01*
X125753579Y-81009994D01*
X125884689Y-80922389D01*
X125996189Y-80810889D01*
X126083794Y-80679779D01*
X126144137Y-80534097D01*
X126174900Y-80379442D01*
X126174900Y-80276900D01*
X126194585Y-80209861D01*
X126247389Y-80164106D01*
X126298900Y-80152900D01*
X126882403Y-80152900D01*
X126949442Y-80172585D01*
X126995197Y-80225389D01*
X126996964Y-80229447D01*
X127052604Y-80363776D01*
X127052609Y-80363785D01*
X127140210Y-80494888D01*
X127140213Y-80494892D01*
X127251707Y-80606386D01*
X127251711Y-80606389D01*
X127382814Y-80693990D01*
X127382827Y-80693997D01*
X127528498Y-80754335D01*
X127528503Y-80754337D01*
X127678236Y-80784121D01*
X127683153Y-80785099D01*
X127683156Y-80785100D01*
X127683158Y-80785100D01*
X127840844Y-80785100D01*
X127840845Y-80785099D01*
X127995497Y-80754337D01*
X128087453Y-80716248D01*
X128088221Y-80715930D01*
X128105515Y-80714070D01*
X128121540Y-80707299D01*
X128139532Y-80710413D01*
X128157690Y-80708461D01*
X128173247Y-80716248D01*
X128190387Y-80719215D01*
X128203839Y-80731561D01*
X128220169Y-80739736D01*
X128229045Y-80754696D01*
X128241862Y-80766460D01*
X128246503Y-80784121D01*
X128255821Y-80799825D01*
X128255255Y-80817419D01*
X128259622Y-80834034D01*
X128253603Y-80868811D01*
X128238257Y-80916038D01*
X128208008Y-80965399D01*
X125239403Y-83934005D01*
X125178080Y-83967490D01*
X125175914Y-83967941D01*
X125064708Y-83990061D01*
X125064698Y-83990064D01*
X124919027Y-84050402D01*
X124919014Y-84050409D01*
X124787911Y-84138010D01*
X124787907Y-84138013D01*
X124676413Y-84249507D01*
X124676410Y-84249511D01*
X124588809Y-84380614D01*
X124588802Y-84380627D01*
X124528464Y-84526298D01*
X124528461Y-84526310D01*
X124497700Y-84680953D01*
X124497700Y-84838646D01*
X124528461Y-84993289D01*
X124528464Y-84993301D01*
X124588802Y-85138972D01*
X124588809Y-85138985D01*
X124676410Y-85270088D01*
X124676413Y-85270092D01*
X124787907Y-85381586D01*
X124787911Y-85381589D01*
X124919014Y-85469190D01*
X124919027Y-85469197D01*
X125048484Y-85522819D01*
X125064703Y-85529537D01*
X125219353Y-85560299D01*
X125219356Y-85560300D01*
X125219358Y-85560300D01*
X125377044Y-85560300D01*
X125377045Y-85560299D01*
X125531697Y-85529537D01*
X125668659Y-85472806D01*
X125677372Y-85469197D01*
X125677372Y-85469196D01*
X125677379Y-85469194D01*
X125808489Y-85381589D01*
X125919989Y-85270089D01*
X126007594Y-85138979D01*
X126067937Y-84993297D01*
X126090058Y-84882082D01*
X126122440Y-84820175D01*
X126123934Y-84818654D01*
X128569266Y-82373323D01*
X128630587Y-82339840D01*
X128700279Y-82344824D01*
X128729830Y-82360688D01*
X128832182Y-82435050D01*
X128840946Y-82439516D01*
X128891742Y-82487491D01*
X128908536Y-82555312D01*
X128885998Y-82621447D01*
X128840946Y-82660484D01*
X128832182Y-82664949D01*
X128660213Y-82789890D01*
X128509890Y-82940213D01*
X128384951Y-83112179D01*
X128288444Y-83301585D01*
X128222753Y-83503760D01*
X128189500Y-83713713D01*
X128189500Y-83926287D01*
X128222754Y-84136243D01*
X128259557Y-84249511D01*
X128288444Y-84338414D01*
X128384951Y-84527820D01*
X128509890Y-84699786D01*
X128660213Y-84850109D01*
X128832182Y-84975050D01*
X128840946Y-84979516D01*
X128891742Y-85027491D01*
X128908536Y-85095312D01*
X128885998Y-85161447D01*
X128840946Y-85200484D01*
X128832182Y-85204949D01*
X128660213Y-85329890D01*
X128509890Y-85480213D01*
X128384951Y-85652179D01*
X128288444Y-85841585D01*
X128222753Y-86043760D01*
X128189500Y-86253713D01*
X128189500Y-86466286D01*
X128222754Y-86676246D01*
X128222754Y-86676247D01*
X128227821Y-86691842D01*
X128229814Y-86761683D01*
X128197570Y-86817837D01*
X127742427Y-87272982D01*
X127681106Y-87306466D01*
X127654748Y-87309300D01*
X124652389Y-87309300D01*
X124591971Y-87321318D01*
X124548743Y-87329916D01*
X124531546Y-87333337D01*
X124417716Y-87380487D01*
X124417702Y-87380495D01*
X124313190Y-87450328D01*
X124246513Y-87471206D01*
X124179133Y-87452721D01*
X124132443Y-87400742D01*
X124120300Y-87347226D01*
X124120300Y-85587193D01*
X124120299Y-85587189D01*
X124114973Y-85560411D01*
X124096263Y-85466348D01*
X124073943Y-85412463D01*
X124062692Y-85385299D01*
X124049114Y-85352519D01*
X124049109Y-85352510D01*
X124035770Y-85332547D01*
X124035766Y-85332542D01*
X124031887Y-85326737D01*
X123980658Y-85250067D01*
X123893533Y-85162942D01*
X123893529Y-85162939D01*
X121108619Y-82378029D01*
X121075134Y-82316706D01*
X121072300Y-82290348D01*
X121072300Y-80574451D01*
X121091985Y-80507412D01*
X121108614Y-80486775D01*
X122433771Y-79161617D01*
X122495094Y-79128133D01*
X122521452Y-79125299D01*
X123864271Y-79125299D01*
X123864272Y-79125299D01*
X123923883Y-79118891D01*
X124058731Y-79068596D01*
X124173946Y-78982346D01*
X124260196Y-78867131D01*
X124310491Y-78732283D01*
X124316900Y-78672673D01*
X124316899Y-76876928D01*
X124310491Y-76817317D01*
X124309210Y-76813883D01*
X124260197Y-76682471D01*
X124260193Y-76682464D01*
X124173947Y-76567255D01*
X124173944Y-76567252D01*
X124058735Y-76481006D01*
X124058728Y-76481002D01*
X123923882Y-76430708D01*
X123923883Y-76430708D01*
X123864283Y-76424301D01*
X123864281Y-76424300D01*
X123864273Y-76424300D01*
X123864264Y-76424300D01*
X122068529Y-76424300D01*
X122068523Y-76424301D01*
X122008916Y-76430708D01*
X121874071Y-76481002D01*
X121874064Y-76481006D01*
X121758855Y-76567252D01*
X121758852Y-76567255D01*
X121672606Y-76682464D01*
X121672603Y-76682469D01*
X121623589Y-76813883D01*
X121581717Y-76869816D01*
X121516253Y-76894233D01*
X121447980Y-76879381D01*
X121419726Y-76858230D01*
X121306186Y-76744690D01*
X121134220Y-76619751D01*
X120944814Y-76523244D01*
X120944813Y-76523243D01*
X120944812Y-76523243D01*
X120742643Y-76457554D01*
X120742641Y-76457553D01*
X120742640Y-76457553D01*
X120581357Y-76432008D01*
X120532687Y-76424300D01*
X120320113Y-76424300D01*
X120271442Y-76432008D01*
X120110160Y-76457553D01*
X119907985Y-76523244D01*
X119718579Y-76619751D01*
X119546613Y-76744690D01*
X119396290Y-76895013D01*
X119271351Y-77066979D01*
X119174844Y-77256385D01*
X119109153Y-77458560D01*
X119075900Y-77668513D01*
X119075900Y-77881086D01*
X119109154Y-78091044D01*
X119117492Y-78116706D01*
X119117577Y-78119682D01*
X119119142Y-78122216D01*
X119118568Y-78154383D01*
X119119487Y-78186547D01*
X119117933Y-78189998D01*
X119117896Y-78192074D01*
X119102665Y-78223912D01*
X119088517Y-78245087D01*
X119088514Y-78245091D01*
X119054290Y-78296308D01*
X119054288Y-78296313D01*
X119021173Y-78376261D01*
X119007138Y-78410143D01*
X119007138Y-78410145D01*
X119007137Y-78410148D01*
X118983100Y-78530994D01*
X118983100Y-78530996D01*
X118983100Y-83068804D01*
X119005656Y-83182207D01*
X119007138Y-83189654D01*
X119007139Y-83189659D01*
X119054285Y-83303481D01*
X119054288Y-83303486D01*
X119074773Y-83334143D01*
X119122742Y-83405933D01*
X119209867Y-83493058D01*
X119209870Y-83493060D01*
X119217748Y-83500938D01*
X121867781Y-86150971D01*
X121901266Y-86212294D01*
X121904100Y-86238652D01*
X121904100Y-87105379D01*
X121884415Y-87172418D01*
X121883203Y-87174269D01*
X121845608Y-87230533D01*
X121845602Y-87230544D01*
X121785264Y-87376214D01*
X121785261Y-87376226D01*
X121754500Y-87530869D01*
X121754500Y-87688562D01*
X121785261Y-87843205D01*
X121785264Y-87843217D01*
X121845602Y-87988888D01*
X121845609Y-87988900D01*
X121908602Y-88083175D01*
X121929480Y-88149852D01*
X121929500Y-88152066D01*
X121929500Y-94485899D01*
X121909815Y-94552938D01*
X121857011Y-94598693D01*
X121787853Y-94608637D01*
X121736610Y-94589002D01*
X121664183Y-94540608D01*
X121664172Y-94540602D01*
X121518501Y-94480264D01*
X121518489Y-94480261D01*
X121363845Y-94449500D01*
X121363842Y-94449500D01*
X121206158Y-94449500D01*
X121206155Y-94449500D01*
X121051510Y-94480261D01*
X121051498Y-94480264D01*
X120905827Y-94540602D01*
X120905814Y-94540609D01*
X120774711Y-94628210D01*
X120774707Y-94628213D01*
X120663213Y-94739707D01*
X120663210Y-94739711D01*
X120575609Y-94870814D01*
X120575602Y-94870827D01*
X120515264Y-95016498D01*
X120515261Y-95016510D01*
X120484500Y-95171153D01*
X120484500Y-95328846D01*
X120515261Y-95483489D01*
X120515264Y-95483501D01*
X120575602Y-95629172D01*
X120575609Y-95629184D01*
X120638602Y-95723459D01*
X120659480Y-95790136D01*
X120659500Y-95792350D01*
X120659500Y-102335300D01*
X120639815Y-102402339D01*
X120587011Y-102448094D01*
X120535500Y-102459300D01*
X119747129Y-102459300D01*
X119747123Y-102459301D01*
X119687516Y-102465708D01*
X119552671Y-102516002D01*
X119552664Y-102516006D01*
X119437455Y-102602252D01*
X119437452Y-102602255D01*
X119351206Y-102717464D01*
X119351202Y-102717471D01*
X119300908Y-102852317D01*
X119294501Y-102911916D01*
X119294500Y-102911935D01*
X119294500Y-104707670D01*
X119294501Y-104707676D01*
X119300908Y-104767283D01*
X119351202Y-104902128D01*
X119351206Y-104902135D01*
X119437452Y-105017344D01*
X119437455Y-105017347D01*
X119552664Y-105103593D01*
X119552671Y-105103597D01*
X119687517Y-105153891D01*
X119687516Y-105153891D01*
X119694444Y-105154635D01*
X119747127Y-105160300D01*
X121542872Y-105160299D01*
X121602483Y-105153891D01*
X121737331Y-105103596D01*
X121852546Y-105017346D01*
X121938796Y-104902131D01*
X121987810Y-104770716D01*
X122029681Y-104714784D01*
X122095145Y-104690366D01*
X122163418Y-104705217D01*
X122191673Y-104726369D01*
X122305213Y-104839909D01*
X122477179Y-104964848D01*
X122477181Y-104964849D01*
X122477184Y-104964851D01*
X122666588Y-105061357D01*
X122868757Y-105127046D01*
X123078713Y-105160300D01*
X123078714Y-105160300D01*
X123291286Y-105160300D01*
X123291287Y-105160300D01*
X123501243Y-105127046D01*
X123703412Y-105061357D01*
X123892816Y-104964851D01*
X123979138Y-104902135D01*
X124064786Y-104839909D01*
X124064788Y-104839906D01*
X124064792Y-104839904D01*
X124215104Y-104689592D01*
X124215106Y-104689588D01*
X124215109Y-104689586D01*
X124340048Y-104517620D01*
X124340047Y-104517620D01*
X124340051Y-104517616D01*
X124436557Y-104328212D01*
X124502246Y-104126043D01*
X124535500Y-103916087D01*
X124535500Y-103703513D01*
X124502246Y-103493557D01*
X124436557Y-103291388D01*
X124340051Y-103101984D01*
X124340049Y-103101981D01*
X124340048Y-103101979D01*
X124215109Y-102930013D01*
X124064786Y-102779690D01*
X123892820Y-102654751D01*
X123703414Y-102558244D01*
X123703413Y-102558243D01*
X123703412Y-102558243D01*
X123501243Y-102492554D01*
X123501241Y-102492553D01*
X123501240Y-102492553D01*
X123334544Y-102466151D01*
X123291287Y-102459300D01*
X123291286Y-102459300D01*
X123286475Y-102458538D01*
X123286789Y-102456550D01*
X123229415Y-102434639D01*
X123187983Y-102378379D01*
X123180500Y-102335956D01*
X123180500Y-90058758D01*
X123200185Y-89991719D01*
X123252989Y-89945964D01*
X123322147Y-89936020D01*
X123328664Y-89937136D01*
X123398492Y-89951025D01*
X123415957Y-89954500D01*
X123415958Y-89954500D01*
X123573644Y-89954500D01*
X123573645Y-89954499D01*
X123728297Y-89923737D01*
X123840849Y-89877116D01*
X123910317Y-89869648D01*
X123972796Y-89900923D01*
X124008448Y-89961012D01*
X124012300Y-89991678D01*
X124012300Y-91017581D01*
X124002861Y-91065033D01*
X123944264Y-91206498D01*
X123944261Y-91206510D01*
X123913500Y-91361153D01*
X123913500Y-91518846D01*
X123944261Y-91673489D01*
X123944264Y-91673501D01*
X124004602Y-91819172D01*
X124004609Y-91819185D01*
X124092210Y-91950288D01*
X124092213Y-91950292D01*
X124203707Y-92061786D01*
X124203711Y-92061789D01*
X124334814Y-92149390D01*
X124334827Y-92149397D01*
X124480498Y-92209735D01*
X124480503Y-92209737D01*
X124635153Y-92240499D01*
X124635156Y-92240500D01*
X124635158Y-92240500D01*
X124792844Y-92240500D01*
X124792845Y-92240499D01*
X124947497Y-92209737D01*
X125093179Y-92149394D01*
X125224289Y-92061789D01*
X125335789Y-91950289D01*
X125423394Y-91819179D01*
X125483737Y-91673497D01*
X125514500Y-91518842D01*
X125514500Y-91361158D01*
X125514500Y-91361155D01*
X125514499Y-91361153D01*
X125483738Y-91206510D01*
X125483737Y-91206503D01*
X125444401Y-91111536D01*
X125423397Y-91060827D01*
X125423390Y-91060814D01*
X125335789Y-90929711D01*
X125335786Y-90929707D01*
X125299619Y-90893540D01*
X125266134Y-90832217D01*
X125263300Y-90805859D01*
X125263300Y-90429758D01*
X125282985Y-90362719D01*
X125335789Y-90316964D01*
X125404947Y-90307020D01*
X125411464Y-90308136D01*
X125481292Y-90322025D01*
X125498757Y-90325500D01*
X125498758Y-90325500D01*
X125656444Y-90325500D01*
X125656445Y-90325499D01*
X125811097Y-90294737D01*
X125923766Y-90248067D01*
X125956772Y-90234397D01*
X125956772Y-90234396D01*
X125956779Y-90234394D01*
X126021085Y-90191425D01*
X126087762Y-90170548D01*
X126155142Y-90189032D01*
X126177657Y-90206847D01*
X127809539Y-91838729D01*
X127809542Y-91838733D01*
X127896667Y-91925858D01*
X127953601Y-91963900D01*
X127999115Y-91994312D01*
X128052598Y-92016465D01*
X128112948Y-92041463D01*
X128173371Y-92053481D01*
X128233793Y-92065500D01*
X128233794Y-92065500D01*
X128274568Y-92065500D01*
X128282062Y-92066416D01*
X128307491Y-92077384D01*
X128334058Y-92085185D01*
X128339485Y-92091183D01*
X128346219Y-92094088D01*
X128358141Y-92111803D01*
X128377503Y-92133203D01*
X128384950Y-92147819D01*
X128509890Y-92319786D01*
X128660213Y-92470109D01*
X128832182Y-92595050D01*
X128840946Y-92599516D01*
X128891742Y-92647491D01*
X128908536Y-92715312D01*
X128885998Y-92781447D01*
X128840946Y-92820484D01*
X128832182Y-92824949D01*
X128660213Y-92949890D01*
X128509890Y-93100213D01*
X128384951Y-93272179D01*
X128288444Y-93461585D01*
X128222753Y-93663760D01*
X128189500Y-93873713D01*
X128189500Y-94086287D01*
X128222754Y-94296243D01*
X128284377Y-94485899D01*
X128288444Y-94498414D01*
X128384951Y-94687820D01*
X128509890Y-94859786D01*
X128660213Y-95010109D01*
X128832182Y-95135050D01*
X128840946Y-95139516D01*
X128891742Y-95187491D01*
X128908536Y-95255312D01*
X128885998Y-95321447D01*
X128840946Y-95360484D01*
X128832182Y-95364949D01*
X128660213Y-95489890D01*
X128509890Y-95640213D01*
X128384951Y-95812179D01*
X128288444Y-96001585D01*
X128222753Y-96203760D01*
X128189500Y-96413713D01*
X128189500Y-96626287D01*
X128222754Y-96836243D01*
X128250430Y-96921422D01*
X128288444Y-97038414D01*
X128384951Y-97227820D01*
X128509890Y-97399786D01*
X128660213Y-97550109D01*
X128832182Y-97675050D01*
X128840946Y-97679516D01*
X128891742Y-97727491D01*
X128908536Y-97795312D01*
X128885998Y-97861447D01*
X128840946Y-97900484D01*
X128832182Y-97904949D01*
X128660213Y-98029890D01*
X128509890Y-98180213D01*
X128384951Y-98352179D01*
X128288444Y-98541585D01*
X128222753Y-98743760D01*
X128189500Y-98953713D01*
X128189500Y-99166287D01*
X128222754Y-99376243D01*
X128250430Y-99461422D01*
X128288444Y-99578414D01*
X128384951Y-99767820D01*
X128509890Y-99939786D01*
X128660213Y-100090109D01*
X128832182Y-100215050D01*
X128840946Y-100219516D01*
X128891742Y-100267491D01*
X128908536Y-100335312D01*
X128885998Y-100401447D01*
X128840946Y-100440484D01*
X128832182Y-100444949D01*
X128660213Y-100569890D01*
X128509890Y-100720213D01*
X128384951Y-100892179D01*
X128288444Y-101081585D01*
X128222753Y-101283760D01*
X128189500Y-101493713D01*
X128189500Y-101706287D01*
X128222754Y-101916243D01*
X128250430Y-102001422D01*
X128288444Y-102118414D01*
X128384951Y-102307820D01*
X128509890Y-102479786D01*
X128660213Y-102630109D01*
X128832182Y-102755050D01*
X128840946Y-102759516D01*
X128891742Y-102807491D01*
X128908536Y-102875312D01*
X128885998Y-102941447D01*
X128840946Y-102980484D01*
X128832182Y-102984949D01*
X128660213Y-103109890D01*
X128509890Y-103260213D01*
X128384951Y-103432179D01*
X128288444Y-103621585D01*
X128222753Y-103823760D01*
X128189500Y-104033713D01*
X128189500Y-104246286D01*
X128222735Y-104456127D01*
X128222754Y-104456243D01*
X128250430Y-104541422D01*
X128288444Y-104658414D01*
X128384951Y-104847820D01*
X128509890Y-105019786D01*
X128660213Y-105170109D01*
X128832179Y-105295048D01*
X128832181Y-105295049D01*
X128832184Y-105295051D01*
X129021588Y-105391557D01*
X129216750Y-105454969D01*
X129274426Y-105494407D01*
X129301624Y-105558765D01*
X129289709Y-105627612D01*
X129242465Y-105679087D01*
X129178432Y-105696900D01*
X114659952Y-105696900D01*
X114592913Y-105677215D01*
X114547158Y-105624411D01*
X114537214Y-105555253D01*
X114566239Y-105491697D01*
X114621634Y-105454969D01*
X114818217Y-105391095D01*
X115007554Y-105294622D01*
X115061716Y-105255270D01*
X115061717Y-105255270D01*
X114429408Y-104622962D01*
X114492993Y-104605925D01*
X114607007Y-104540099D01*
X114700099Y-104447007D01*
X114765925Y-104332993D01*
X114782962Y-104269408D01*
X115415270Y-104901717D01*
X115415270Y-104901716D01*
X115454622Y-104847554D01*
X115551095Y-104658217D01*
X115616757Y-104456130D01*
X115616757Y-104456127D01*
X115650000Y-104246246D01*
X115650000Y-104033753D01*
X115616757Y-103823872D01*
X115616757Y-103823869D01*
X115551095Y-103621782D01*
X115454624Y-103432449D01*
X115415270Y-103378282D01*
X115415269Y-103378282D01*
X114782962Y-104010590D01*
X114765925Y-103947007D01*
X114700099Y-103832993D01*
X114607007Y-103739901D01*
X114492993Y-103674075D01*
X114429409Y-103657037D01*
X115061716Y-103024728D01*
X115007547Y-102985373D01*
X115007547Y-102985372D01*
X114998500Y-102980763D01*
X114947706Y-102932788D01*
X114930912Y-102864966D01*
X114953451Y-102798832D01*
X114998508Y-102759793D01*
X115007816Y-102755051D01*
X115111570Y-102679670D01*
X115179786Y-102630109D01*
X115179788Y-102630106D01*
X115179792Y-102630104D01*
X115330104Y-102479792D01*
X115330106Y-102479788D01*
X115330109Y-102479786D01*
X115455048Y-102307820D01*
X115455047Y-102307820D01*
X115455051Y-102307816D01*
X115551557Y-102118412D01*
X115617246Y-101916243D01*
X115650500Y-101706287D01*
X115650500Y-101493713D01*
X115617246Y-101283757D01*
X115551557Y-101081588D01*
X115455051Y-100892184D01*
X115455049Y-100892181D01*
X115455048Y-100892179D01*
X115330109Y-100720213D01*
X115179786Y-100569890D01*
X115007820Y-100444951D01*
X115007115Y-100444591D01*
X114999054Y-100440485D01*
X114948259Y-100392512D01*
X114931463Y-100324692D01*
X114953999Y-100258556D01*
X114999054Y-100219515D01*
X115007816Y-100215051D01*
X115029789Y-100199086D01*
X115179786Y-100090109D01*
X115179788Y-100090106D01*
X115179792Y-100090104D01*
X115330104Y-99939792D01*
X115330106Y-99939788D01*
X115330109Y-99939786D01*
X115455048Y-99767820D01*
X115455047Y-99767820D01*
X115455051Y-99767816D01*
X115551557Y-99578412D01*
X115617246Y-99376243D01*
X115650500Y-99166287D01*
X115650500Y-98953713D01*
X115617246Y-98743757D01*
X115551557Y-98541588D01*
X115455051Y-98352184D01*
X115455049Y-98352181D01*
X115455048Y-98352179D01*
X115330109Y-98180213D01*
X115179786Y-98029890D01*
X115007820Y-97904951D01*
X115007115Y-97904591D01*
X114999054Y-97900485D01*
X114948259Y-97852512D01*
X114931463Y-97784692D01*
X114953999Y-97718556D01*
X114999054Y-97679515D01*
X115007816Y-97675051D01*
X115029789Y-97659086D01*
X115179786Y-97550109D01*
X115179788Y-97550106D01*
X115179792Y-97550104D01*
X115330104Y-97399792D01*
X115330106Y-97399788D01*
X115330109Y-97399786D01*
X115455048Y-97227820D01*
X115455047Y-97227820D01*
X115455051Y-97227816D01*
X115551557Y-97038412D01*
X115617246Y-96836243D01*
X115650500Y-96626287D01*
X115650500Y-96413713D01*
X115617246Y-96203757D01*
X115551557Y-96001588D01*
X115455051Y-95812184D01*
X115455049Y-95812181D01*
X115455048Y-95812179D01*
X115330109Y-95640213D01*
X115179786Y-95489890D01*
X115007820Y-95364951D01*
X115007115Y-95364591D01*
X114999054Y-95360485D01*
X114948259Y-95312512D01*
X114931463Y-95244692D01*
X114953999Y-95178556D01*
X114999054Y-95139515D01*
X115007816Y-95135051D01*
X115029789Y-95119086D01*
X115179786Y-95010109D01*
X115179788Y-95010106D01*
X115179792Y-95010104D01*
X115330104Y-94859792D01*
X115330106Y-94859788D01*
X115330109Y-94859786D01*
X115455048Y-94687820D01*
X115455047Y-94687820D01*
X115455051Y-94687816D01*
X115551557Y-94498412D01*
X115617246Y-94296243D01*
X115650500Y-94086287D01*
X115650500Y-93873713D01*
X115617246Y-93663757D01*
X115551557Y-93461588D01*
X115455051Y-93272184D01*
X115455049Y-93272181D01*
X115455048Y-93272179D01*
X115330109Y-93100213D01*
X115179786Y-92949890D01*
X115007820Y-92824951D01*
X115007115Y-92824591D01*
X114999054Y-92820485D01*
X114948259Y-92772512D01*
X114931463Y-92704692D01*
X114953999Y-92638556D01*
X114999054Y-92599515D01*
X115007816Y-92595051D01*
X115029789Y-92579086D01*
X115179786Y-92470109D01*
X115179788Y-92470106D01*
X115179792Y-92470104D01*
X115330104Y-92319792D01*
X115330106Y-92319788D01*
X115330109Y-92319786D01*
X115453902Y-92149397D01*
X115455051Y-92147816D01*
X115551557Y-91958412D01*
X115617246Y-91756243D01*
X115650500Y-91546287D01*
X115650500Y-91333713D01*
X115617246Y-91123757D01*
X115551557Y-90921588D01*
X115455051Y-90732184D01*
X115455049Y-90732181D01*
X115455048Y-90732179D01*
X115330109Y-90560213D01*
X115179786Y-90409890D01*
X115007820Y-90284951D01*
X115007115Y-90284591D01*
X114999054Y-90280485D01*
X114948259Y-90232512D01*
X114931463Y-90164692D01*
X114953999Y-90098556D01*
X114999054Y-90059515D01*
X115007816Y-90055051D01*
X115095042Y-89991678D01*
X115179786Y-89930109D01*
X115179788Y-89930106D01*
X115179792Y-89930104D01*
X115330104Y-89779792D01*
X115330106Y-89779788D01*
X115330109Y-89779786D01*
X115453902Y-89609397D01*
X115455051Y-89607816D01*
X115551557Y-89418412D01*
X115617246Y-89216243D01*
X115650500Y-89006287D01*
X115650500Y-88793713D01*
X115617246Y-88583757D01*
X115551557Y-88381588D01*
X115455051Y-88192184D01*
X115455049Y-88192181D01*
X115455048Y-88192179D01*
X115330109Y-88020213D01*
X115179786Y-87869890D01*
X115007820Y-87744951D01*
X115007115Y-87744591D01*
X114999054Y-87740485D01*
X114948259Y-87692512D01*
X114931463Y-87624692D01*
X114953999Y-87558556D01*
X114999054Y-87519515D01*
X115007816Y-87515051D01*
X115068164Y-87471206D01*
X115179786Y-87390109D01*
X115179788Y-87390106D01*
X115179792Y-87390104D01*
X115330104Y-87239792D01*
X115330106Y-87239788D01*
X115330109Y-87239786D01*
X115455049Y-87067819D01*
X115462497Y-87053203D01*
X115510473Y-87002408D01*
X115572981Y-86985500D01*
X116910548Y-86985500D01*
X116977587Y-87005185D01*
X116998229Y-87021819D01*
X117575181Y-87598771D01*
X117608666Y-87660094D01*
X117611500Y-87686452D01*
X117611500Y-88357650D01*
X117591815Y-88424689D01*
X117590602Y-88426541D01*
X117527609Y-88520815D01*
X117527602Y-88520828D01*
X117467264Y-88666498D01*
X117467261Y-88666510D01*
X117436500Y-88821153D01*
X117436500Y-88978846D01*
X117467261Y-89133489D01*
X117467264Y-89133501D01*
X117527602Y-89279172D01*
X117527609Y-89279185D01*
X117615210Y-89410288D01*
X117615213Y-89410292D01*
X117726707Y-89521786D01*
X117726711Y-89521789D01*
X117857814Y-89609390D01*
X117857827Y-89609397D01*
X118003498Y-89669735D01*
X118003503Y-89669737D01*
X118158153Y-89700499D01*
X118158156Y-89700500D01*
X118158158Y-89700500D01*
X118315844Y-89700500D01*
X118315845Y-89700499D01*
X118470497Y-89669737D01*
X118616179Y-89609394D01*
X118747289Y-89521789D01*
X118858789Y-89410289D01*
X118946394Y-89279179D01*
X119006737Y-89133497D01*
X119037500Y-88978842D01*
X119037500Y-88821158D01*
X119037500Y-88821155D01*
X119037499Y-88821153D01*
X119006738Y-88666510D01*
X119006737Y-88666503D01*
X118961070Y-88556253D01*
X118946397Y-88520828D01*
X118946396Y-88520827D01*
X118946394Y-88520821D01*
X118883397Y-88426539D01*
X118862520Y-88359863D01*
X118862500Y-88357650D01*
X118862500Y-88067236D01*
X118882185Y-88000197D01*
X118934989Y-87954442D01*
X118962309Y-87945619D01*
X119105497Y-87917137D01*
X119251179Y-87856794D01*
X119382289Y-87769189D01*
X119493789Y-87657689D01*
X119581394Y-87526579D01*
X119641737Y-87380897D01*
X119672500Y-87226242D01*
X119672500Y-87068558D01*
X119672500Y-87068555D01*
X119672499Y-87068553D01*
X119659342Y-87002408D01*
X119641737Y-86913903D01*
X119627036Y-86878412D01*
X119581396Y-86768225D01*
X119578525Y-86762854D01*
X119580607Y-86761740D01*
X119562843Y-86705060D01*
X119581310Y-86637675D01*
X119583722Y-86633922D01*
X119632189Y-86561387D01*
X119632190Y-86561384D01*
X119632194Y-86561379D01*
X119692537Y-86415697D01*
X119723300Y-86261042D01*
X119723300Y-86103358D01*
X119723300Y-86103355D01*
X119723299Y-86103353D01*
X119711445Y-86043760D01*
X119692537Y-85948703D01*
X119648168Y-85841585D01*
X119632197Y-85803027D01*
X119632190Y-85803014D01*
X119544589Y-85671911D01*
X119544586Y-85671907D01*
X119433092Y-85560413D01*
X119433088Y-85560410D01*
X119301985Y-85472809D01*
X119301972Y-85472802D01*
X119156301Y-85412464D01*
X119156291Y-85412461D01*
X119013377Y-85384033D01*
X118951466Y-85351648D01*
X118949888Y-85350097D01*
X115563497Y-81963707D01*
X115530012Y-81902384D01*
X115534996Y-81832692D01*
X115540685Y-81819747D01*
X115551557Y-81798412D01*
X115617246Y-81596243D01*
X115650500Y-81386287D01*
X115650500Y-81173713D01*
X115617246Y-80963757D01*
X115551557Y-80761588D01*
X115455051Y-80572184D01*
X115455049Y-80572181D01*
X115455048Y-80572179D01*
X115330109Y-80400213D01*
X115179786Y-80249890D01*
X115007820Y-80124951D01*
X115007115Y-80124591D01*
X114999054Y-80120485D01*
X114948259Y-80072512D01*
X114931463Y-80004692D01*
X114953999Y-79938556D01*
X114999054Y-79899515D01*
X115007816Y-79895051D01*
X115029789Y-79879086D01*
X115179786Y-79770109D01*
X115179788Y-79770106D01*
X115179792Y-79770104D01*
X115330104Y-79619792D01*
X115330106Y-79619788D01*
X115330109Y-79619786D01*
X115455048Y-79447820D01*
X115455047Y-79447820D01*
X115455051Y-79447816D01*
X115551557Y-79258412D01*
X115617246Y-79056243D01*
X115650500Y-78846287D01*
X115650500Y-78633713D01*
X115617246Y-78423757D01*
X115551557Y-78221588D01*
X115455051Y-78032184D01*
X115455049Y-78032181D01*
X115455048Y-78032179D01*
X115330109Y-77860213D01*
X115216569Y-77746673D01*
X115183084Y-77685350D01*
X115188068Y-77615658D01*
X115229940Y-77559725D01*
X115260915Y-77542810D01*
X115392331Y-77493796D01*
X115507546Y-77407546D01*
X115593796Y-77292331D01*
X115644091Y-77157483D01*
X115650500Y-77097873D01*
X115650499Y-75302128D01*
X115644091Y-75242517D01*
X115620933Y-75180428D01*
X115593797Y-75107671D01*
X115593793Y-75107664D01*
X115507547Y-74992455D01*
X115507544Y-74992452D01*
X115392335Y-74906206D01*
X115392328Y-74906202D01*
X115257482Y-74855908D01*
X115257483Y-74855908D01*
X115197883Y-74849501D01*
X115197881Y-74849500D01*
X115197873Y-74849500D01*
X115197864Y-74849500D01*
X113402129Y-74849500D01*
X113402123Y-74849501D01*
X113342516Y-74855908D01*
X113207671Y-74906202D01*
X113207664Y-74906206D01*
X113092455Y-74992452D01*
X113092452Y-74992455D01*
X113006206Y-75107664D01*
X113001953Y-75115454D01*
X112999064Y-75113876D01*
X112966792Y-75156971D01*
X112901323Y-75181376D01*
X112833052Y-75166511D01*
X112783657Y-75117096D01*
X112768500Y-75057690D01*
X112768500Y-72674075D01*
X112788185Y-72607036D01*
X112804819Y-72586394D01*
X113734394Y-71656819D01*
X113795717Y-71623334D01*
X113822075Y-71620500D01*
X115985031Y-71620500D01*
X116052070Y-71640185D01*
G37*
%TD.AperFunction*%
%TA.AperFunction,Conductor*%
G36*
X112973703Y-101946027D02*
G01*
X113010429Y-102001420D01*
X113022881Y-102039740D01*
X113048444Y-102118414D01*
X113144951Y-102307820D01*
X113269890Y-102479786D01*
X113420213Y-102630109D01*
X113592179Y-102755048D01*
X113592181Y-102755049D01*
X113592184Y-102755051D01*
X113601493Y-102759794D01*
X113652290Y-102807766D01*
X113669087Y-102875587D01*
X113646552Y-102941722D01*
X113601505Y-102980760D01*
X113592446Y-102985376D01*
X113592440Y-102985380D01*
X113538282Y-103024727D01*
X113538282Y-103024728D01*
X114170591Y-103657037D01*
X114107007Y-103674075D01*
X113992993Y-103739901D01*
X113899901Y-103832993D01*
X113834075Y-103947007D01*
X113817037Y-104010591D01*
X113184728Y-103378282D01*
X113184727Y-103378282D01*
X113145380Y-103432439D01*
X113048904Y-103621783D01*
X113010431Y-103740192D01*
X112970994Y-103797868D01*
X112906635Y-103825066D01*
X112837789Y-103813151D01*
X112786313Y-103765907D01*
X112768500Y-103701874D01*
X112768500Y-102039740D01*
X112788185Y-101972701D01*
X112840989Y-101926946D01*
X112910147Y-101917002D01*
X112973703Y-101946027D01*
G37*
%TD.AperFunction*%
%TD*%
M02*
