%TF.GenerationSoftware,KiCad,Pcbnew,9.0.4*%
%TF.CreationDate,2025-11-23T11:21:44+13:00*%
%TF.ProjectId,2364replacement,32333634-7265-4706-9c61-63656d656e74,rev?*%
%TF.SameCoordinates,Original*%
%TF.FileFunction,Legend,Top*%
%TF.FilePolarity,Positive*%
%FSLAX46Y46*%
G04 Gerber Fmt 4.6, Leading zero omitted, Abs format (unit mm)*
G04 Created by KiCad (PCBNEW 9.0.4) date 2025-11-23 11:21:44*
%MOMM*%
%LPD*%
G01*
G04 APERTURE LIST*
%ADD10C,0.400000*%
%ADD11C,0.200000*%
%ADD12C,0.500000*%
%ADD13C,0.150000*%
%ADD14C,0.120000*%
G04 APERTURE END LIST*
D10*
X125993014Y-103893619D02*
X126278728Y-103988857D01*
X126278728Y-103988857D02*
X126373966Y-104084095D01*
X126373966Y-104084095D02*
X126469204Y-104274571D01*
X126469204Y-104274571D02*
X126469204Y-104560285D01*
X126469204Y-104560285D02*
X126373966Y-104750761D01*
X126373966Y-104750761D02*
X126278728Y-104846000D01*
X126278728Y-104846000D02*
X126088252Y-104941238D01*
X126088252Y-104941238D02*
X125326347Y-104941238D01*
X125326347Y-104941238D02*
X125326347Y-102941238D01*
X125326347Y-102941238D02*
X125993014Y-102941238D01*
X125993014Y-102941238D02*
X126183490Y-103036476D01*
X126183490Y-103036476D02*
X126278728Y-103131714D01*
X126278728Y-103131714D02*
X126373966Y-103322190D01*
X126373966Y-103322190D02*
X126373966Y-103512666D01*
X126373966Y-103512666D02*
X126278728Y-103703142D01*
X126278728Y-103703142D02*
X126183490Y-103798380D01*
X126183490Y-103798380D02*
X125993014Y-103893619D01*
X125993014Y-103893619D02*
X125326347Y-103893619D01*
D11*
X117247749Y-74737019D02*
X117438225Y-74737019D01*
X117438225Y-74737019D02*
X117533463Y-74784638D01*
X117533463Y-74784638D02*
X117628701Y-74879876D01*
X117628701Y-74879876D02*
X117676320Y-75070352D01*
X117676320Y-75070352D02*
X117676320Y-75403685D01*
X117676320Y-75403685D02*
X117628701Y-75594161D01*
X117628701Y-75594161D02*
X117533463Y-75689400D01*
X117533463Y-75689400D02*
X117438225Y-75737019D01*
X117438225Y-75737019D02*
X117247749Y-75737019D01*
X117247749Y-75737019D02*
X117152511Y-75689400D01*
X117152511Y-75689400D02*
X117057273Y-75594161D01*
X117057273Y-75594161D02*
X117009654Y-75403685D01*
X117009654Y-75403685D02*
X117009654Y-75070352D01*
X117009654Y-75070352D02*
X117057273Y-74879876D01*
X117057273Y-74879876D02*
X117152511Y-74784638D01*
X117152511Y-74784638D02*
X117247749Y-74737019D01*
X118104892Y-75737019D02*
X118104892Y-74737019D01*
X118104892Y-74737019D02*
X118676320Y-75737019D01*
X118676320Y-75737019D02*
X118676320Y-74737019D01*
X120247749Y-75213209D02*
X119914416Y-75213209D01*
X119914416Y-75737019D02*
X119914416Y-74737019D01*
X119914416Y-74737019D02*
X120390606Y-74737019D01*
X120962035Y-74737019D02*
X121152511Y-74737019D01*
X121152511Y-74737019D02*
X121247749Y-74784638D01*
X121247749Y-74784638D02*
X121342987Y-74879876D01*
X121342987Y-74879876D02*
X121390606Y-75070352D01*
X121390606Y-75070352D02*
X121390606Y-75403685D01*
X121390606Y-75403685D02*
X121342987Y-75594161D01*
X121342987Y-75594161D02*
X121247749Y-75689400D01*
X121247749Y-75689400D02*
X121152511Y-75737019D01*
X121152511Y-75737019D02*
X120962035Y-75737019D01*
X120962035Y-75737019D02*
X120866797Y-75689400D01*
X120866797Y-75689400D02*
X120771559Y-75594161D01*
X120771559Y-75594161D02*
X120723940Y-75403685D01*
X120723940Y-75403685D02*
X120723940Y-75070352D01*
X120723940Y-75070352D02*
X120771559Y-74879876D01*
X120771559Y-74879876D02*
X120866797Y-74784638D01*
X120866797Y-74784638D02*
X120962035Y-74737019D01*
X122390606Y-75737019D02*
X122057273Y-75260828D01*
X121819178Y-75737019D02*
X121819178Y-74737019D01*
X121819178Y-74737019D02*
X122200130Y-74737019D01*
X122200130Y-74737019D02*
X122295368Y-74784638D01*
X122295368Y-74784638D02*
X122342987Y-74832257D01*
X122342987Y-74832257D02*
X122390606Y-74927495D01*
X122390606Y-74927495D02*
X122390606Y-75070352D01*
X122390606Y-75070352D02*
X122342987Y-75165590D01*
X122342987Y-75165590D02*
X122295368Y-75213209D01*
X122295368Y-75213209D02*
X122200130Y-75260828D01*
X122200130Y-75260828D02*
X121819178Y-75260828D01*
X124152511Y-75737019D02*
X123819178Y-75260828D01*
X123581083Y-75737019D02*
X123581083Y-74737019D01*
X123581083Y-74737019D02*
X123962035Y-74737019D01*
X123962035Y-74737019D02*
X124057273Y-74784638D01*
X124057273Y-74784638D02*
X124104892Y-74832257D01*
X124104892Y-74832257D02*
X124152511Y-74927495D01*
X124152511Y-74927495D02*
X124152511Y-75070352D01*
X124152511Y-75070352D02*
X124104892Y-75165590D01*
X124104892Y-75165590D02*
X124057273Y-75213209D01*
X124057273Y-75213209D02*
X123962035Y-75260828D01*
X123962035Y-75260828D02*
X123581083Y-75260828D01*
X124581083Y-75213209D02*
X124914416Y-75213209D01*
X125057273Y-75737019D02*
X124581083Y-75737019D01*
X124581083Y-75737019D02*
X124581083Y-74737019D01*
X124581083Y-74737019D02*
X125057273Y-74737019D01*
X125438226Y-75451304D02*
X125914416Y-75451304D01*
X125342988Y-75737019D02*
X125676321Y-74737019D01*
X125676321Y-74737019D02*
X126009654Y-75737019D01*
X126342988Y-75737019D02*
X126342988Y-74737019D01*
X126342988Y-74737019D02*
X126581083Y-74737019D01*
X126581083Y-74737019D02*
X126723940Y-74784638D01*
X126723940Y-74784638D02*
X126819178Y-74879876D01*
X126819178Y-74879876D02*
X126866797Y-74975114D01*
X126866797Y-74975114D02*
X126914416Y-75165590D01*
X126914416Y-75165590D02*
X126914416Y-75308447D01*
X126914416Y-75308447D02*
X126866797Y-75498923D01*
X126866797Y-75498923D02*
X126819178Y-75594161D01*
X126819178Y-75594161D02*
X126723940Y-75689400D01*
X126723940Y-75689400D02*
X126581083Y-75737019D01*
X126581083Y-75737019D02*
X126342988Y-75737019D01*
D10*
X114740766Y-73800838D02*
X113597909Y-73800838D01*
X114169337Y-73800838D02*
X114169337Y-71800838D01*
X114169337Y-71800838D02*
X113978861Y-72086552D01*
X113978861Y-72086552D02*
X113788385Y-72277028D01*
X113788385Y-72277028D02*
X113597909Y-72372266D01*
X117509509Y-104395209D02*
X118461890Y-104395209D01*
X117319033Y-104966638D02*
X117985699Y-102966638D01*
X117985699Y-102966638D02*
X118652366Y-104966638D01*
D12*
X118591299Y-99341914D02*
X118686537Y-99246676D01*
X118686537Y-99246676D02*
X118877013Y-99151438D01*
X118877013Y-99151438D02*
X119353204Y-99151438D01*
X119353204Y-99151438D02*
X119543680Y-99246676D01*
X119543680Y-99246676D02*
X119638918Y-99341914D01*
X119638918Y-99341914D02*
X119734156Y-99532390D01*
X119734156Y-99532390D02*
X119734156Y-99722866D01*
X119734156Y-99722866D02*
X119638918Y-100008580D01*
X119638918Y-100008580D02*
X118496061Y-101151438D01*
X118496061Y-101151438D02*
X119734156Y-101151438D01*
X120400823Y-99151438D02*
X121638918Y-99151438D01*
X121638918Y-99151438D02*
X120972251Y-99913342D01*
X120972251Y-99913342D02*
X121257966Y-99913342D01*
X121257966Y-99913342D02*
X121448442Y-100008580D01*
X121448442Y-100008580D02*
X121543680Y-100103819D01*
X121543680Y-100103819D02*
X121638918Y-100294295D01*
X121638918Y-100294295D02*
X121638918Y-100770485D01*
X121638918Y-100770485D02*
X121543680Y-100960961D01*
X121543680Y-100960961D02*
X121448442Y-101056200D01*
X121448442Y-101056200D02*
X121257966Y-101151438D01*
X121257966Y-101151438D02*
X120686537Y-101151438D01*
X120686537Y-101151438D02*
X120496061Y-101056200D01*
X120496061Y-101056200D02*
X120400823Y-100960961D01*
X123353204Y-99151438D02*
X122972251Y-99151438D01*
X122972251Y-99151438D02*
X122781775Y-99246676D01*
X122781775Y-99246676D02*
X122686537Y-99341914D01*
X122686537Y-99341914D02*
X122496061Y-99627628D01*
X122496061Y-99627628D02*
X122400823Y-100008580D01*
X122400823Y-100008580D02*
X122400823Y-100770485D01*
X122400823Y-100770485D02*
X122496061Y-100960961D01*
X122496061Y-100960961D02*
X122591299Y-101056200D01*
X122591299Y-101056200D02*
X122781775Y-101151438D01*
X122781775Y-101151438D02*
X123162728Y-101151438D01*
X123162728Y-101151438D02*
X123353204Y-101056200D01*
X123353204Y-101056200D02*
X123448442Y-100960961D01*
X123448442Y-100960961D02*
X123543680Y-100770485D01*
X123543680Y-100770485D02*
X123543680Y-100294295D01*
X123543680Y-100294295D02*
X123448442Y-100103819D01*
X123448442Y-100103819D02*
X123353204Y-100008580D01*
X123353204Y-100008580D02*
X123162728Y-99913342D01*
X123162728Y-99913342D02*
X122781775Y-99913342D01*
X122781775Y-99913342D02*
X122591299Y-100008580D01*
X122591299Y-100008580D02*
X122496061Y-100103819D01*
X122496061Y-100103819D02*
X122400823Y-100294295D01*
X125257966Y-99818104D02*
X125257966Y-101151438D01*
X124781775Y-99056200D02*
X124305585Y-100484771D01*
X124305585Y-100484771D02*
X125543680Y-100484771D01*
D13*
X121880333Y-73302019D02*
X121547000Y-72825828D01*
X121308905Y-73302019D02*
X121308905Y-72302019D01*
X121308905Y-72302019D02*
X121689857Y-72302019D01*
X121689857Y-72302019D02*
X121785095Y-72349638D01*
X121785095Y-72349638D02*
X121832714Y-72397257D01*
X121832714Y-72397257D02*
X121880333Y-72492495D01*
X121880333Y-72492495D02*
X121880333Y-72635352D01*
X121880333Y-72635352D02*
X121832714Y-72730590D01*
X121832714Y-72730590D02*
X121785095Y-72778209D01*
X121785095Y-72778209D02*
X121689857Y-72825828D01*
X121689857Y-72825828D02*
X121308905Y-72825828D01*
X122832714Y-73302019D02*
X122261286Y-73302019D01*
X122547000Y-73302019D02*
X122547000Y-72302019D01*
X122547000Y-72302019D02*
X122451762Y-72444876D01*
X122451762Y-72444876D02*
X122356524Y-72540114D01*
X122356524Y-72540114D02*
X122261286Y-72587733D01*
D11*
X125150666Y-76363419D02*
X125150666Y-77077704D01*
X125150666Y-77077704D02*
X125103047Y-77220561D01*
X125103047Y-77220561D02*
X125007809Y-77315800D01*
X125007809Y-77315800D02*
X124864952Y-77363419D01*
X124864952Y-77363419D02*
X124769714Y-77363419D01*
X125626857Y-77363419D02*
X125626857Y-76363419D01*
X125626857Y-76363419D02*
X126007809Y-76363419D01*
X126007809Y-76363419D02*
X126103047Y-76411038D01*
X126103047Y-76411038D02*
X126150666Y-76458657D01*
X126150666Y-76458657D02*
X126198285Y-76553895D01*
X126198285Y-76553895D02*
X126198285Y-76696752D01*
X126198285Y-76696752D02*
X126150666Y-76791990D01*
X126150666Y-76791990D02*
X126103047Y-76839609D01*
X126103047Y-76839609D02*
X126007809Y-76887228D01*
X126007809Y-76887228D02*
X125626857Y-76887228D01*
X127150666Y-77363419D02*
X126579238Y-77363419D01*
X126864952Y-77363419D02*
X126864952Y-76363419D01*
X126864952Y-76363419D02*
X126769714Y-76506276D01*
X126769714Y-76506276D02*
X126674476Y-76601514D01*
X126674476Y-76601514D02*
X126579238Y-76649133D01*
D13*
X121539095Y-81014219D02*
X121539095Y-81823742D01*
X121539095Y-81823742D02*
X121586714Y-81918980D01*
X121586714Y-81918980D02*
X121634333Y-81966600D01*
X121634333Y-81966600D02*
X121729571Y-82014219D01*
X121729571Y-82014219D02*
X121920047Y-82014219D01*
X121920047Y-82014219D02*
X122015285Y-81966600D01*
X122015285Y-81966600D02*
X122062904Y-81918980D01*
X122062904Y-81918980D02*
X122110523Y-81823742D01*
X122110523Y-81823742D02*
X122110523Y-81014219D01*
X123110523Y-82014219D02*
X122539095Y-82014219D01*
X122824809Y-82014219D02*
X122824809Y-81014219D01*
X122824809Y-81014219D02*
X122729571Y-81157076D01*
X122729571Y-81157076D02*
X122634333Y-81252314D01*
X122634333Y-81252314D02*
X122539095Y-81299933D01*
D14*
%TO.C,R1*%
X117930800Y-72847200D02*
X118700800Y-72847200D01*
X126010800Y-72847200D02*
X125240800Y-72847200D01*
X118700800Y-71477200D02*
X125240800Y-71477200D01*
X125240800Y-74217200D01*
X118700800Y-74217200D01*
X118700800Y-71477200D01*
%TO.C,J3*%
X112920000Y-74820000D02*
X114300000Y-74820000D01*
X112920000Y-76200000D02*
X112920000Y-74820000D01*
X112920000Y-77470000D02*
X112920000Y-105520000D01*
X112920000Y-77470000D02*
X115680000Y-77470000D01*
X112920000Y-105520000D02*
X115680000Y-105520000D01*
X115680000Y-77470000D02*
X115680000Y-105520000D01*
%TO.C,J1*%
X119265000Y-105189800D02*
X119265000Y-103809800D01*
X120645000Y-105189800D02*
X119265000Y-105189800D01*
X121915000Y-102429800D02*
X124565000Y-102429800D01*
X121915000Y-105189800D02*
X121915000Y-102429800D01*
X121915000Y-105189800D02*
X124565000Y-105189800D01*
X124565000Y-105189800D02*
X124565000Y-102429800D01*
%TO.C,JP1*%
X119046400Y-76394800D02*
X119046400Y-79154800D01*
X121696400Y-76394800D02*
X119046400Y-76394800D01*
X121696400Y-76394800D02*
X121696400Y-79154800D01*
X121696400Y-79154800D02*
X119046400Y-79154800D01*
X122966400Y-76394800D02*
X124346400Y-76394800D01*
X124346400Y-76394800D02*
X124346400Y-77774800D01*
%TO.C,J2*%
X128160000Y-74820000D02*
X129540000Y-74820000D01*
X128160000Y-76200000D02*
X128160000Y-74820000D01*
X128160000Y-77470000D02*
X128160000Y-105520000D01*
X128160000Y-77470000D02*
X130920000Y-77470000D01*
X128160000Y-105520000D02*
X130920000Y-105520000D01*
X130920000Y-77470000D02*
X130920000Y-105520000D01*
%TO.C,U1*%
X116095000Y-84247218D02*
X116095000Y-84530000D01*
X116095000Y-97265000D02*
X116095000Y-95810000D01*
X117267218Y-83075000D02*
X116095000Y-84247218D01*
X117550000Y-83075000D02*
X117267218Y-83075000D01*
X117550000Y-97265000D02*
X116095000Y-97265000D01*
X126290000Y-83075000D02*
X127745000Y-83075000D01*
X126290000Y-97265000D02*
X127745000Y-97265000D01*
X127745000Y-83075000D02*
X127745000Y-84530000D01*
X127745000Y-97265000D02*
X127745000Y-95810000D01*
%TD*%
M02*
