M48
; DRILL file {KiCad 9.0.4} date 2025-11-23T11:21:47+1300
; FORMAT={-:-/ absolute / metric / decimal}
; #@! TF.CreationDate,2025-11-23T11:21:47+13:00
; #@! TF.GenerationSoftware,Kicad,Pcbnew,9.0.4
; #@! TF.FileFunction,Plated,1,2,PTH
FMAT,2
METRIC
; #@! TA.AperFunction,Plated,PTH,ViaDrill
T1C0.300
; #@! TA.AperFunction,Plated,PTH,ComponentDrill
T2C0.800
; #@! TA.AperFunction,Plated,PTH,ComponentDrill
T3C1.000
%
G90
G05
T1
X118.237Y-88.9
X118.872Y-87.147
X118.923Y-86.182
X119.913Y-100.127
X121.285Y-95.25
X122.49Y-81.621
X122.555Y-87.61
X123.495Y-89.154
X124.46Y-81.701
X124.714Y-91.44
X125.298Y-84.76
X125.374Y-80.301
X125.578Y-89.525
X127.762Y-79.985
T2
X116.891Y-72.847
X127.051Y-72.847
T3
X114.3Y-76.2
X114.3Y-78.74
X114.3Y-81.28
X114.3Y-83.82
X114.3Y-86.36
X114.3Y-88.9
X114.3Y-91.44
X114.3Y-93.98
X114.3Y-96.52
X114.3Y-99.06
X114.3Y-101.6
X114.3Y-104.14
X120.426Y-77.775
X120.645Y-103.81
X122.966Y-77.775
X123.185Y-103.81
X129.54Y-76.2
X129.54Y-78.74
X129.54Y-81.28
X129.54Y-83.82
X129.54Y-86.36
X129.54Y-88.9
X129.54Y-91.44
X129.54Y-93.98
X129.54Y-96.52
X129.54Y-99.06
X129.54Y-101.6
X129.54Y-104.14
M30
