%TF.GenerationSoftware,KiCad,Pcbnew,9.0.4*%
%TF.CreationDate,2025-11-22T21:52:34+13:00*%
%TF.ProjectId,2364replacement,32333634-7265-4706-9c61-63656d656e74,rev?*%
%TF.SameCoordinates,Original*%
%TF.FileFunction,Copper,L1,Top*%
%TF.FilePolarity,Positive*%
%FSLAX46Y46*%
G04 Gerber Fmt 4.6, Leading zero omitted, Abs format (unit mm)*
G04 Created by KiCad (PCBNEW 9.0.4) date 2025-11-22 21:52:34*
%MOMM*%
%LPD*%
G01*
G04 APERTURE LIST*
G04 Aperture macros list*
%AMRoundRect*
0 Rectangle with rounded corners*
0 $1 Rounding radius*
0 $2 $3 $4 $5 $6 $7 $8 $9 X,Y pos of 4 corners*
0 Add a 4 corners polygon primitive as box body*
4,1,4,$2,$3,$4,$5,$6,$7,$8,$9,$2,$3,0*
0 Add four circle primitives for the rounded corners*
1,1,$1+$1,$2,$3*
1,1,$1+$1,$4,$5*
1,1,$1+$1,$6,$7*
1,1,$1+$1,$8,$9*
0 Add four rect primitives between the rounded corners*
20,1,$1+$1,$2,$3,$4,$5,0*
20,1,$1+$1,$4,$5,$6,$7,0*
20,1,$1+$1,$6,$7,$8,$9,0*
20,1,$1+$1,$8,$9,$2,$3,0*%
G04 Aperture macros list end*
%TA.AperFunction,SMDPad,CuDef*%
%ADD10RoundRect,0.250000X0.350000X0.450000X-0.350000X0.450000X-0.350000X-0.450000X0.350000X-0.450000X0*%
%TD*%
%TA.AperFunction,ComponentPad*%
%ADD11R,1.700000X1.700000*%
%TD*%
%TA.AperFunction,ComponentPad*%
%ADD12C,1.700000*%
%TD*%
%TA.AperFunction,SMDPad,CuDef*%
%ADD13RoundRect,0.150000X-0.150000X-0.587500X0.150000X-0.587500X0.150000X0.587500X-0.150000X0.587500X0*%
%TD*%
%TA.AperFunction,SMDPad,CuDef*%
%ADD14RoundRect,0.150000X-0.587500X-0.150000X0.587500X-0.150000X0.587500X0.150000X-0.587500X0.150000X0*%
%TD*%
%TA.AperFunction,ViaPad*%
%ADD15C,0.600000*%
%TD*%
%TA.AperFunction,Conductor*%
%ADD16C,0.250000*%
%TD*%
%TA.AperFunction,Conductor*%
%ADD17C,0.400000*%
%TD*%
G04 APERTURE END LIST*
D10*
%TO.P,R1,1*%
%TO.N,VCC*%
X123275600Y-76631800D03*
%TO.P,R1,2*%
%TO.N,Net-(JP2-A)*%
X121275600Y-76631800D03*
%TD*%
D11*
%TO.P,J3,1,Pin_1*%
%TO.N,A7*%
X114300000Y-76200000D03*
D12*
%TO.P,J3,2,Pin_2*%
%TO.N,A6*%
X114300000Y-78740000D03*
%TO.P,J3,3,Pin_3*%
%TO.N,A5*%
X114300000Y-81280000D03*
%TO.P,J3,4,Pin_4*%
%TO.N,A4*%
X114300000Y-83820000D03*
%TO.P,J3,5,Pin_5*%
%TO.N,A3*%
X114300000Y-86360000D03*
%TO.P,J3,6,Pin_6*%
%TO.N,A2*%
X114300000Y-88900000D03*
%TO.P,J3,7,Pin_7*%
%TO.N,A1*%
X114300000Y-91440000D03*
%TO.P,J3,8,Pin_8*%
%TO.N,A0*%
X114300000Y-93980000D03*
%TO.P,J3,9,Pin_9*%
%TO.N,D0*%
X114300000Y-96520000D03*
%TO.P,J3,10,Pin_10*%
%TO.N,D1*%
X114300000Y-99060000D03*
%TO.P,J3,11,Pin_11*%
%TO.N,D2*%
X114300000Y-101600000D03*
%TO.P,J3,12,Pin_12*%
%TO.N,GND*%
X114300000Y-104140000D03*
%TD*%
D11*
%TO.P,J1,1,Pin_1*%
%TO.N,Net-(J1-Pin_1)*%
X120599200Y-100838000D03*
D12*
%TO.P,J1,2,Pin_2*%
%TO.N,Net-(J1-Pin_2)*%
X123139200Y-100838000D03*
%TD*%
D11*
%TO.P,J2,1,Pin_1*%
%TO.N,VCC*%
X129540000Y-76200000D03*
D12*
%TO.P,J2,2,Pin_2*%
%TO.N,A8*%
X129540000Y-78740000D03*
%TO.P,J2,3,Pin_3*%
%TO.N,A9*%
X129540000Y-81280000D03*
%TO.P,J2,4,Pin_4*%
%TO.N,A12*%
X129540000Y-83820000D03*
%TO.P,J2,5,Pin_5*%
%TO.N,Net-(J2-Pin_5)*%
X129540000Y-86360000D03*
%TO.P,J2,6,Pin_6*%
%TO.N,A10*%
X129540000Y-88900000D03*
%TO.P,J2,7,Pin_7*%
%TO.N,A11*%
X129540000Y-91440000D03*
%TO.P,J2,8,Pin_8*%
%TO.N,D7*%
X129540000Y-93980000D03*
%TO.P,J2,9,Pin_9*%
%TO.N,D6*%
X129540000Y-96520000D03*
%TO.P,J2,10,Pin_10*%
%TO.N,D5*%
X129540000Y-99060000D03*
%TO.P,J2,11,Pin_11*%
%TO.N,D4*%
X129540000Y-101600000D03*
%TO.P,J2,12,Pin_12*%
%TO.N,D3*%
X129540000Y-104140000D03*
%TD*%
D13*
%TO.P,U1,1,NC*%
%TO.N,unconnected-(U1-NC-Pad1)*%
X121920000Y-83332500D03*
%TO.P,U1,2*%
%TO.N,N/C*%
X120650000Y-83332500D03*
%TO.P,U1,3,A12*%
%TO.N,A12*%
X119380000Y-83332500D03*
%TO.P,U1,4,A7*%
%TO.N,A7*%
X118110000Y-83332500D03*
D14*
%TO.P,U1,5,A6*%
%TO.N,A6*%
X116357500Y-85090000D03*
%TO.P,U1,6,A5*%
%TO.N,A5*%
X116357500Y-86360000D03*
%TO.P,U1,7,A4*%
%TO.N,A4*%
X116357500Y-87630000D03*
%TO.P,U1,8,A3*%
%TO.N,A3*%
X116357500Y-88900000D03*
%TO.P,U1,9,A2*%
%TO.N,A2*%
X116357500Y-90170000D03*
%TO.P,U1,10,A1*%
%TO.N,A1*%
X116357500Y-91440000D03*
%TO.P,U1,11,A0*%
%TO.N,A0*%
X116357500Y-92710000D03*
%TO.P,U1,12,NC*%
%TO.N,unconnected-(U1-NC-Pad12)*%
X116357500Y-93980000D03*
%TO.P,U1,13,O0*%
%TO.N,D0*%
X116357500Y-95250000D03*
D13*
%TO.P,U1,14,O1*%
%TO.N,D1*%
X118110000Y-97007500D03*
%TO.P,U1,15,O2*%
%TO.N,D2*%
X119380000Y-97007500D03*
%TO.P,U1,16,GND*%
%TO.N,GND*%
X120650000Y-97007500D03*
%TO.P,U1,17,NC*%
%TO.N,unconnected-(U1-NC-Pad17)*%
X121920000Y-97007500D03*
%TO.P,U1,18,O3*%
%TO.N,D3*%
X123190000Y-97007500D03*
%TO.P,U1,19,O4*%
%TO.N,D4*%
X124460000Y-97007500D03*
%TO.P,U1,20,O5*%
%TO.N,D5*%
X125730000Y-97007500D03*
D14*
%TO.P,U1,21,O6*%
%TO.N,D6*%
X127482500Y-95250000D03*
%TO.P,U1,22,O7*%
%TO.N,D7*%
X127482500Y-93980000D03*
%TO.P,U1,23,~{CE}*%
%TO.N,Net-(J2-Pin_5)*%
X127482500Y-92710000D03*
%TO.P,U1,24,A10*%
%TO.N,A10*%
X127482500Y-91440000D03*
%TO.P,U1,25,~{OE}*%
%TO.N,Net-(J1-Pin_2)*%
X127482500Y-90170000D03*
%TO.P,U1,26,NC*%
%TO.N,unconnected-(U1-NC-Pad26)*%
X127482500Y-88900000D03*
%TO.P,U1,27,A11*%
%TO.N,A11*%
X127482500Y-87630000D03*
%TO.P,U1,28,A9*%
%TO.N,A9*%
X127482500Y-86360000D03*
%TO.P,U1,29,A8*%
%TO.N,A8*%
X127482500Y-85090000D03*
D13*
%TO.P,U1,30*%
%TO.N,N/C*%
X125730000Y-83332500D03*
%TO.P,U1,31,~{WE}*%
%TO.N,Net-(J1-Pin_1)*%
X124460000Y-83332500D03*
%TO.P,U1,32,VCC*%
%TO.N,VCC*%
X123190000Y-83332500D03*
%TD*%
D15*
%TO.N,Net-(JP2-A)*%
X121005600Y-73279000D03*
%TO.N,A3*%
X118237000Y-88900000D03*
%TO.N,A4*%
X118872000Y-87147400D03*
%TO.N,A5*%
X118922800Y-86182200D03*
%TO.N,GND*%
X120650000Y-98983800D03*
%TO.N,A12*%
X127762000Y-79984600D03*
X122377200Y-80518000D03*
%TO.N,A9*%
X125298200Y-84759800D03*
%TO.N,A11*%
X125577600Y-89525000D03*
%TO.N,A10*%
X124714000Y-91440000D03*
%TO.N,Net-(J2-Pin_5)*%
X123494800Y-89154000D03*
%TO.N,Net-(J1-Pin_1)*%
X121285000Y-95250000D03*
X124460000Y-81700600D03*
%TO.N,Net-(J1-Pin_2)*%
X122555000Y-87609716D03*
%TD*%
D16*
%TO.N,D3*%
X123190000Y-98983800D02*
X128346200Y-104140000D01*
X128346200Y-104140000D02*
X129540000Y-104140000D01*
X123190000Y-97007500D02*
X123190000Y-98983800D01*
D17*
%TO.N,GND*%
X120650000Y-98983800D02*
X120650000Y-97007500D01*
%TO.N,Net-(JP2-A)*%
X120954800Y-76311000D02*
X121275600Y-76631800D01*
X120954800Y-73329800D02*
X120954800Y-76311000D01*
X121005600Y-73279000D02*
X120954800Y-73329800D01*
%TO.N,VCC*%
X123190000Y-76682600D02*
X123240800Y-76631800D01*
X123190000Y-81051400D02*
X123190000Y-76682600D01*
X123240800Y-76631800D02*
X123275600Y-76631800D01*
D16*
%TO.N,A12*%
X119380000Y-81559400D02*
X119380000Y-83332500D01*
X119888000Y-81051400D02*
X119380000Y-81559400D01*
X121920000Y-81051400D02*
X119888000Y-81051400D01*
X122377200Y-80594200D02*
X121920000Y-81051400D01*
X122377200Y-80518000D02*
X122377200Y-80594200D01*
D17*
%TO.N,Net-(JP2-A)*%
X121005600Y-73228200D02*
X121005600Y-73279000D01*
D16*
%TO.N,D0*%
X114300000Y-95859600D02*
X114300000Y-96520000D01*
X116357500Y-95250000D02*
X114909600Y-95250000D01*
X114909600Y-95250000D02*
X114300000Y-95859600D01*
%TO.N,A3*%
X116357500Y-88900000D02*
X118237000Y-88900000D01*
%TO.N,A0*%
X115087400Y-92710000D02*
X114300000Y-93497400D01*
X116357500Y-92710000D02*
X115087400Y-92710000D01*
X114300000Y-93497400D02*
X114300000Y-93980000D01*
%TO.N,A2*%
X114300000Y-89585800D02*
X114300000Y-88900000D01*
X114884200Y-90170000D02*
X114300000Y-89585800D01*
X116357500Y-90170000D02*
X114884200Y-90170000D01*
%TO.N,A6*%
X117322600Y-84861400D02*
X117322600Y-84378800D01*
X116357500Y-85090000D02*
X117094000Y-85090000D01*
X114884200Y-78740000D02*
X114300000Y-78740000D01*
X116751100Y-80606900D02*
X114884200Y-78740000D01*
X117322600Y-84378800D02*
X117297200Y-84378800D01*
X117297200Y-84378800D02*
X116751100Y-83832700D01*
X116751100Y-83832700D02*
X116751100Y-80606900D01*
X117094000Y-85090000D02*
X117322600Y-84861400D01*
%TO.N,A4*%
X116357500Y-87630000D02*
X118541800Y-87630000D01*
X118872000Y-87299800D02*
X118872000Y-87147400D01*
X118541800Y-87630000D02*
X118872000Y-87299800D01*
%TO.N,A5*%
X118745000Y-86360000D02*
X118922800Y-86182200D01*
X116357500Y-86360000D02*
X118745000Y-86360000D01*
%TO.N,A7*%
X114300000Y-76377800D02*
X114300000Y-76200000D01*
X118110000Y-83332500D02*
X118110000Y-80187800D01*
X118110000Y-80187800D02*
X114300000Y-76377800D01*
%TO.N,D1*%
X118110000Y-97007500D02*
X118110000Y-98501200D01*
X118110000Y-98501200D02*
X117551200Y-99060000D01*
X117551200Y-99060000D02*
X114300000Y-99060000D01*
%TO.N,A1*%
X116357500Y-91440000D02*
X114300000Y-91440000D01*
%TO.N,D2*%
X119380000Y-97007500D02*
X119380000Y-99212400D01*
X116992400Y-101600000D02*
X114300000Y-101600000D01*
X119380000Y-99212400D02*
X116992400Y-101600000D01*
%TO.N,A8*%
X127482500Y-85090000D02*
X126365000Y-85090000D01*
X126949200Y-79298800D02*
X127508000Y-78740000D01*
X126161800Y-84886800D02*
X126161800Y-84531200D01*
X126365000Y-85090000D02*
X126161800Y-84886800D01*
X126161800Y-84531200D02*
X126949200Y-83743800D01*
X127508000Y-78740000D02*
X129540000Y-78740000D01*
X126949200Y-83743800D02*
X126949200Y-79298800D01*
%TO.N,A12*%
X129540000Y-83820000D02*
X127736600Y-82016600D01*
X127736600Y-80010000D02*
X127762000Y-79984600D01*
X127736600Y-82016600D02*
X127736600Y-80010000D01*
%TO.N,A9*%
X125298200Y-85826600D02*
X125831600Y-86360000D01*
X125831600Y-86360000D02*
X127482500Y-86360000D01*
X125298200Y-84759800D02*
X125298200Y-85826600D01*
D17*
%TO.N,VCC*%
X126238000Y-77241400D02*
X127279400Y-76200000D01*
X123190000Y-83332500D02*
X123190000Y-81051400D01*
X127279400Y-76200000D02*
X129540000Y-76200000D01*
X125831600Y-81000600D02*
X126238000Y-80594200D01*
X123240800Y-81000600D02*
X125831600Y-81000600D01*
X126238000Y-80594200D02*
X126238000Y-77241400D01*
X123190000Y-81051400D02*
X123240800Y-81000600D01*
D16*
%TO.N,A11*%
X125577600Y-89525000D02*
X125465717Y-89525000D01*
X125465717Y-89525000D02*
X125247400Y-89306683D01*
X125247400Y-89306683D02*
X125247400Y-88138000D01*
X125755400Y-87630000D02*
X127482500Y-87630000D01*
X125247400Y-88138000D02*
X125755400Y-87630000D01*
%TO.N,A10*%
X124714000Y-91440000D02*
X127482500Y-91440000D01*
%TO.N,D6*%
X129006600Y-95250000D02*
X129540000Y-95783400D01*
X127482500Y-95250000D02*
X129006600Y-95250000D01*
X129540000Y-95783400D02*
X129540000Y-96520000D01*
%TO.N,D7*%
X127482500Y-93980000D02*
X129540000Y-93980000D01*
%TO.N,Net-(J2-Pin_5)*%
X124206000Y-92710000D02*
X127482500Y-92710000D01*
X123494800Y-89154000D02*
X123494800Y-91998800D01*
X123494800Y-91998800D02*
X124206000Y-92710000D01*
%TO.N,D5*%
X126187200Y-99060000D02*
X129540000Y-99060000D01*
X125730000Y-98602800D02*
X126187200Y-99060000D01*
X125730000Y-97007500D02*
X125730000Y-98602800D01*
%TO.N,D4*%
X124460000Y-97007500D02*
X124460000Y-99110800D01*
X126949200Y-101600000D02*
X129540000Y-101600000D01*
X124460000Y-99110800D02*
X126949200Y-101600000D01*
%TO.N,Net-(J1-Pin_1)*%
X124460000Y-83332500D02*
X124460000Y-81700600D01*
X124460000Y-83332500D02*
X124460000Y-84582000D01*
X121310400Y-95224600D02*
X121335800Y-95250000D01*
X124460000Y-84582000D02*
X121310400Y-87731600D01*
X121335800Y-95250000D02*
X121285000Y-95250000D01*
X121310400Y-87731600D02*
X121310400Y-95224600D01*
%TO.N,Net-(J1-Pin_2)*%
X123499916Y-87609716D02*
X124180600Y-88290400D01*
X124790200Y-90170000D02*
X127482500Y-90170000D01*
X122555000Y-87609716D02*
X123499916Y-87609716D01*
X124180600Y-89560400D02*
X124790200Y-90170000D01*
X124180600Y-88290400D02*
X124180600Y-89560400D01*
%TD*%
M02*
