%TF.GenerationSoftware,KiCad,Pcbnew,9.0.4*%
%TF.CreationDate,2025-11-22T21:52:34+13:00*%
%TF.ProjectId,2364replacement,32333634-7265-4706-9c61-63656d656e74,rev?*%
%TF.SameCoordinates,Original*%
%TF.FileFunction,Copper,L2,Bot*%
%TF.FilePolarity,Positive*%
%FSLAX46Y46*%
G04 Gerber Fmt 4.6, Leading zero omitted, Abs format (unit mm)*
G04 Created by KiCad (PCBNEW 9.0.4) date 2025-11-22 21:52:34*
%MOMM*%
%LPD*%
G01*
G04 APERTURE LIST*
G04 Aperture macros list*
%AMFreePoly0*
4,1,23,0.500000,-0.750000,0.000000,-0.750000,0.000000,-0.745722,-0.065263,-0.745722,-0.191342,-0.711940,-0.304381,-0.646677,-0.396677,-0.554381,-0.461940,-0.441342,-0.495722,-0.315263,-0.495722,-0.250000,-0.500000,-0.250000,-0.500000,0.250000,-0.495722,0.250000,-0.495722,0.315263,-0.461940,0.441342,-0.396677,0.554381,-0.304381,0.646677,-0.191342,0.711940,-0.065263,0.745722,0.000000,0.745722,
0.000000,0.750000,0.500000,0.750000,0.500000,-0.750000,0.500000,-0.750000,$1*%
%AMFreePoly1*
4,1,23,0.000000,0.745722,0.065263,0.745722,0.191342,0.711940,0.304381,0.646677,0.396677,0.554381,0.461940,0.441342,0.495722,0.315263,0.495722,0.250000,0.500000,0.250000,0.500000,-0.250000,0.495722,-0.250000,0.495722,-0.315263,0.461940,-0.441342,0.396677,-0.554381,0.304381,-0.646677,0.191342,-0.711940,0.065263,-0.745722,0.000000,-0.745722,0.000000,-0.750000,-0.500000,-0.750000,
-0.500000,0.750000,0.000000,0.750000,0.000000,0.745722,0.000000,0.745722,$1*%
G04 Aperture macros list end*
%TA.AperFunction,SMDPad,CuDef*%
%ADD10FreePoly0,0.000000*%
%TD*%
%TA.AperFunction,SMDPad,CuDef*%
%ADD11FreePoly1,0.000000*%
%TD*%
%TA.AperFunction,SMDPad,CuDef*%
%ADD12FreePoly0,180.000000*%
%TD*%
%TA.AperFunction,SMDPad,CuDef*%
%ADD13FreePoly1,180.000000*%
%TD*%
%TA.AperFunction,ComponentPad*%
%ADD14R,1.700000X1.700000*%
%TD*%
%TA.AperFunction,ComponentPad*%
%ADD15C,1.700000*%
%TD*%
%TA.AperFunction,ViaPad*%
%ADD16C,0.600000*%
%TD*%
%TA.AperFunction,Conductor*%
%ADD17C,0.250000*%
%TD*%
%TA.AperFunction,Conductor*%
%ADD18C,0.400000*%
%TD*%
G04 APERTURE END LIST*
D10*
%TO.P,JP2,1,A*%
%TO.N,Net-(JP2-A)*%
X122550400Y-72974200D03*
D11*
%TO.P,JP2,2,B*%
%TO.N,Net-(J1-Pin_1)*%
X123850400Y-72974200D03*
%TD*%
D12*
%TO.P,JP1,1,A*%
%TO.N,Net-(J2-Pin_5)*%
X123804200Y-76784200D03*
D13*
%TO.P,JP1,2,B*%
%TO.N,Net-(J1-Pin_2)*%
X122504200Y-76784200D03*
%TD*%
D14*
%TO.P,J3,1,Pin_1*%
%TO.N,A7*%
X114300000Y-76200000D03*
D15*
%TO.P,J3,2,Pin_2*%
%TO.N,A6*%
X114300000Y-78740000D03*
%TO.P,J3,3,Pin_3*%
%TO.N,A5*%
X114300000Y-81280000D03*
%TO.P,J3,4,Pin_4*%
%TO.N,A4*%
X114300000Y-83820000D03*
%TO.P,J3,5,Pin_5*%
%TO.N,A3*%
X114300000Y-86360000D03*
%TO.P,J3,6,Pin_6*%
%TO.N,A2*%
X114300000Y-88900000D03*
%TO.P,J3,7,Pin_7*%
%TO.N,A1*%
X114300000Y-91440000D03*
%TO.P,J3,8,Pin_8*%
%TO.N,A0*%
X114300000Y-93980000D03*
%TO.P,J3,9,Pin_9*%
%TO.N,D0*%
X114300000Y-96520000D03*
%TO.P,J3,10,Pin_10*%
%TO.N,D1*%
X114300000Y-99060000D03*
%TO.P,J3,11,Pin_11*%
%TO.N,D2*%
X114300000Y-101600000D03*
%TO.P,J3,12,Pin_12*%
%TO.N,GND*%
X114300000Y-104140000D03*
%TD*%
D14*
%TO.P,J1,1,Pin_1*%
%TO.N,Net-(J1-Pin_1)*%
X120599200Y-100838000D03*
D15*
%TO.P,J1,2,Pin_2*%
%TO.N,Net-(J1-Pin_2)*%
X123139200Y-100838000D03*
%TD*%
D14*
%TO.P,J2,1,Pin_1*%
%TO.N,VCC*%
X129540000Y-76200000D03*
D15*
%TO.P,J2,2,Pin_2*%
%TO.N,A8*%
X129540000Y-78740000D03*
%TO.P,J2,3,Pin_3*%
%TO.N,A9*%
X129540000Y-81280000D03*
%TO.P,J2,4,Pin_4*%
%TO.N,A12*%
X129540000Y-83820000D03*
%TO.P,J2,5,Pin_5*%
%TO.N,Net-(J2-Pin_5)*%
X129540000Y-86360000D03*
%TO.P,J2,6,Pin_6*%
%TO.N,A10*%
X129540000Y-88900000D03*
%TO.P,J2,7,Pin_7*%
%TO.N,A11*%
X129540000Y-91440000D03*
%TO.P,J2,8,Pin_8*%
%TO.N,D7*%
X129540000Y-93980000D03*
%TO.P,J2,9,Pin_9*%
%TO.N,D6*%
X129540000Y-96520000D03*
%TO.P,J2,10,Pin_10*%
%TO.N,D5*%
X129540000Y-99060000D03*
%TO.P,J2,11,Pin_11*%
%TO.N,D4*%
X129540000Y-101600000D03*
%TO.P,J2,12,Pin_12*%
%TO.N,D3*%
X129540000Y-104140000D03*
%TD*%
D16*
%TO.N,Net-(JP2-A)*%
X121005600Y-73279000D03*
%TO.N,A3*%
X118237000Y-88900000D03*
%TO.N,A4*%
X118872000Y-87147400D03*
%TO.N,A5*%
X118922800Y-86182200D03*
%TO.N,GND*%
X120650000Y-98983800D03*
%TO.N,A12*%
X127762000Y-79984600D03*
X122377200Y-80518000D03*
%TO.N,A9*%
X125298200Y-84759800D03*
%TO.N,A11*%
X125577600Y-89525000D03*
%TO.N,A10*%
X124714000Y-91440000D03*
%TO.N,Net-(J2-Pin_5)*%
X123494800Y-89154000D03*
%TO.N,Net-(J1-Pin_1)*%
X121285000Y-95250000D03*
X124460000Y-81700600D03*
%TO.N,Net-(J1-Pin_2)*%
X122555000Y-87609716D03*
%TD*%
D17*
%TO.N,Net-(J1-Pin_2)*%
X122555000Y-87609716D02*
X122555000Y-100253800D01*
X122555000Y-100253800D02*
X123139200Y-100838000D01*
%TO.N,Net-(J1-Pin_1)*%
X121285000Y-100152200D02*
X120599200Y-100838000D01*
X121285000Y-95250000D02*
X121285000Y-100152200D01*
X126136400Y-73812400D02*
X125298200Y-72974200D01*
X121869200Y-79121000D02*
X125349000Y-79121000D01*
X125349000Y-79121000D02*
X126136400Y-78333600D01*
X121513600Y-79476600D02*
X121869200Y-79121000D01*
X121513600Y-80975200D02*
X121513600Y-79476600D01*
X122239000Y-81700600D02*
X121513600Y-80975200D01*
X126136400Y-78333600D02*
X126136400Y-73812400D01*
X124460000Y-81700600D02*
X122239000Y-81700600D01*
%TO.N,A12*%
X127457200Y-79679800D02*
X127762000Y-79984600D01*
X125638898Y-79679800D02*
X127457200Y-79679800D01*
X125633698Y-79674600D02*
X125638898Y-79679800D01*
X125109902Y-79679800D02*
X125115102Y-79674600D01*
X122377200Y-80137000D02*
X122834400Y-79679800D01*
X125115102Y-79674600D02*
X125633698Y-79674600D01*
X122377200Y-80518000D02*
X122377200Y-80137000D01*
X122834400Y-79679800D02*
X125109902Y-79679800D01*
D18*
%TO.N,Net-(JP2-A)*%
X121005600Y-73279000D02*
X122245600Y-73279000D01*
X122245600Y-73279000D02*
X122550400Y-72974200D01*
D17*
%TO.N,Net-(J1-Pin_1)*%
X125298200Y-72974200D02*
X123850400Y-72974200D01*
%TO.N,Net-(J1-Pin_2)*%
X119608600Y-77546200D02*
X120370600Y-76784200D01*
X120370600Y-76784200D02*
X122504200Y-76784200D01*
X122529600Y-85928200D02*
X119608600Y-83007200D01*
X122529600Y-87584316D02*
X122529600Y-85928200D01*
X119608600Y-83007200D02*
X119608600Y-77546200D01*
X122555000Y-87609716D02*
X122529600Y-87584316D01*
%TO.N,Net-(J2-Pin_5)*%
X125298200Y-76784200D02*
X123804200Y-76784200D01*
X125552200Y-77038200D02*
X125298200Y-76784200D01*
X125552200Y-78105000D02*
X125552200Y-77038200D01*
X125145800Y-78511400D02*
X125552200Y-78105000D01*
X120446800Y-82600800D02*
X120446800Y-79171800D01*
X120446800Y-79171800D02*
X121107200Y-78511400D01*
X123494800Y-85648800D02*
X120446800Y-82600800D01*
X121107200Y-78511400D02*
X125145800Y-78511400D01*
X123494800Y-89154000D02*
X123494800Y-85648800D01*
%TO.N,A3*%
X114300000Y-86360000D02*
X117221000Y-86360000D01*
X117221000Y-86360000D02*
X118237000Y-87376000D01*
X118237000Y-87376000D02*
X118237000Y-88900000D01*
%TO.N,A4*%
X118872000Y-87147400D02*
X118846600Y-87147400D01*
X118846600Y-87147400D02*
X115519200Y-83820000D01*
X115519200Y-83820000D02*
X114300000Y-83820000D01*
%TO.N,A5*%
X114300000Y-81584800D02*
X114300000Y-81280000D01*
X118922800Y-86182200D02*
X118897400Y-86182200D01*
X118897400Y-86182200D02*
X114300000Y-81584800D01*
%TO.N,A9*%
X125298200Y-84759800D02*
X128778000Y-81280000D01*
X128778000Y-81280000D02*
X129540000Y-81280000D01*
%TO.N,A11*%
X125577600Y-89525000D02*
X126380400Y-89525000D01*
X126380400Y-89525000D02*
X128295400Y-91440000D01*
X128295400Y-91440000D02*
X129540000Y-91440000D01*
%TO.N,A10*%
X124637800Y-89255600D02*
X124993400Y-88900000D01*
X124637800Y-91338400D02*
X124637800Y-89255600D01*
X124714000Y-91440000D02*
X124714000Y-91414600D01*
X124993400Y-88900000D02*
X129540000Y-88900000D01*
X124714000Y-91414600D02*
X124637800Y-91338400D01*
%TO.N,Net-(J2-Pin_5)*%
X127965200Y-87934800D02*
X129540000Y-86360000D01*
X124714000Y-87934800D02*
X127965200Y-87934800D01*
X123494800Y-89154000D02*
X124714000Y-87934800D01*
%TD*%
%TA.AperFunction,Conductor*%
%TO.N,GND*%
G36*
X113834075Y-104332993D02*
G01*
X113899901Y-104447007D01*
X113992993Y-104540099D01*
X114107007Y-104605925D01*
X114170590Y-104622962D01*
X113538282Y-105255269D01*
X113538282Y-105255270D01*
X113592449Y-105294624D01*
X113781782Y-105391095D01*
X113978366Y-105454969D01*
X114036041Y-105494406D01*
X114063240Y-105558765D01*
X114051325Y-105627611D01*
X114004081Y-105679087D01*
X113940048Y-105696900D01*
X112892500Y-105696900D01*
X112825461Y-105677215D01*
X112779706Y-105624411D01*
X112768500Y-105572900D01*
X112768500Y-104578125D01*
X112788185Y-104511086D01*
X112840989Y-104465331D01*
X112910147Y-104455387D01*
X112973703Y-104484412D01*
X113010431Y-104539807D01*
X113048904Y-104658217D01*
X113145375Y-104847550D01*
X113184728Y-104901716D01*
X113817037Y-104269408D01*
X113834075Y-104332993D01*
G37*
%TD.AperFunction*%
%TA.AperFunction,Conductor*%
G36*
X122055330Y-71640185D02*
G01*
X122101085Y-71692989D01*
X122111029Y-71762147D01*
X122082004Y-71825703D01*
X122050291Y-71851887D01*
X121990650Y-71886320D01*
X121990632Y-71886332D01*
X121885955Y-71966655D01*
X121885945Y-71966664D01*
X121792864Y-72059745D01*
X121792855Y-72059755D01*
X121712532Y-72164432D01*
X121712520Y-72164450D01*
X121646703Y-72278448D01*
X121646702Y-72278449D01*
X121602750Y-72384559D01*
X121596200Y-72400371D01*
X121573095Y-72486596D01*
X121558602Y-72510373D01*
X121547035Y-72535703D01*
X121540669Y-72539793D01*
X121536732Y-72546254D01*
X121511684Y-72558421D01*
X121488257Y-72573477D01*
X121477509Y-72575022D01*
X121473885Y-72576783D01*
X121453322Y-72578500D01*
X121430916Y-72578500D01*
X121383464Y-72569061D01*
X121239101Y-72509264D01*
X121239089Y-72509261D01*
X121084445Y-72478500D01*
X121084442Y-72478500D01*
X120926758Y-72478500D01*
X120926755Y-72478500D01*
X120772110Y-72509261D01*
X120772098Y-72509264D01*
X120626427Y-72569602D01*
X120626414Y-72569609D01*
X120495311Y-72657210D01*
X120495307Y-72657213D01*
X120383813Y-72768707D01*
X120383810Y-72768711D01*
X120296209Y-72899814D01*
X120296202Y-72899827D01*
X120235864Y-73045498D01*
X120235861Y-73045510D01*
X120205100Y-73200153D01*
X120205100Y-73357846D01*
X120235861Y-73512489D01*
X120235864Y-73512501D01*
X120296202Y-73658172D01*
X120296209Y-73658185D01*
X120383810Y-73789288D01*
X120383813Y-73789292D01*
X120495307Y-73900786D01*
X120495311Y-73900789D01*
X120626414Y-73988390D01*
X120626427Y-73988397D01*
X120772098Y-74048735D01*
X120772103Y-74048737D01*
X120926753Y-74079499D01*
X120926756Y-74079500D01*
X120926758Y-74079500D01*
X121084444Y-74079500D01*
X121084445Y-74079499D01*
X121239097Y-74048737D01*
X121314563Y-74017478D01*
X121383464Y-73988939D01*
X121430916Y-73979500D01*
X121840938Y-73979500D01*
X121907977Y-73999185D01*
X121916425Y-74005125D01*
X121990632Y-74062067D01*
X121990636Y-74062069D01*
X121990643Y-74062075D01*
X121990650Y-74062079D01*
X122104648Y-74127896D01*
X122104649Y-74127897D01*
X122104652Y-74127898D01*
X122104657Y-74127901D01*
X122226571Y-74178400D01*
X122353738Y-74212475D01*
X122484574Y-74229700D01*
X122484581Y-74229700D01*
X123050400Y-74229700D01*
X123122340Y-74224555D01*
X123159659Y-74213596D01*
X123212241Y-74209836D01*
X123350400Y-74229700D01*
X123350403Y-74229700D01*
X123916219Y-74229700D01*
X123916226Y-74229700D01*
X124047062Y-74212475D01*
X124174229Y-74178400D01*
X124296143Y-74127901D01*
X124410157Y-74062075D01*
X124514849Y-73981741D01*
X124607941Y-73888649D01*
X124688275Y-73783957D01*
X124754101Y-73669943D01*
X124754106Y-73669929D01*
X124754631Y-73668867D01*
X124754877Y-73668598D01*
X124756131Y-73666428D01*
X124756616Y-73666708D01*
X124765479Y-73657072D01*
X124772136Y-73642497D01*
X124788644Y-73631887D01*
X124801931Y-73617443D01*
X124818109Y-73612952D01*
X124830914Y-73604723D01*
X124865849Y-73599700D01*
X124987748Y-73599700D01*
X125054787Y-73619385D01*
X125075429Y-73636019D01*
X125474581Y-74035171D01*
X125508066Y-74096494D01*
X125510900Y-74122852D01*
X125510900Y-76037659D01*
X125491215Y-76104698D01*
X125438411Y-76150453D01*
X125369253Y-76160397D01*
X125362719Y-76159278D01*
X125359815Y-76158700D01*
X125359807Y-76158700D01*
X125359806Y-76158700D01*
X124819649Y-76158700D01*
X124752610Y-76139015D01*
X124710378Y-76091713D01*
X124709931Y-76091972D01*
X124708690Y-76089824D01*
X124708431Y-76089533D01*
X124707904Y-76088464D01*
X124707901Y-76088457D01*
X124707896Y-76088450D01*
X124707894Y-76088444D01*
X124642079Y-75974450D01*
X124642075Y-75974443D01*
X124561741Y-75869751D01*
X124468649Y-75776659D01*
X124468644Y-75776655D01*
X124363967Y-75696332D01*
X124363949Y-75696320D01*
X124249951Y-75630503D01*
X124249950Y-75630502D01*
X124128029Y-75580000D01*
X124035289Y-75555150D01*
X124000862Y-75545925D01*
X124000861Y-75545924D01*
X124000858Y-75545924D01*
X123870033Y-75528700D01*
X123870026Y-75528700D01*
X123304200Y-75528700D01*
X123304197Y-75528700D01*
X123232261Y-75533844D01*
X123232256Y-75533845D01*
X123194935Y-75544803D01*
X123142358Y-75548563D01*
X123004201Y-75528700D01*
X123004200Y-75528700D01*
X122438374Y-75528700D01*
X122438366Y-75528700D01*
X122307541Y-75545924D01*
X122180370Y-75580000D01*
X122058449Y-75630502D01*
X122058448Y-75630503D01*
X121944450Y-75696320D01*
X121944432Y-75696332D01*
X121839755Y-75776655D01*
X121839745Y-75776664D01*
X121746664Y-75869745D01*
X121746655Y-75869755D01*
X121666332Y-75974432D01*
X121666320Y-75974450D01*
X121600505Y-76088444D01*
X121599969Y-76089533D01*
X121599722Y-76089801D01*
X121598469Y-76091972D01*
X121597983Y-76091691D01*
X121552669Y-76140957D01*
X121488751Y-76158700D01*
X120308989Y-76158700D01*
X120188153Y-76182735D01*
X120188141Y-76182739D01*
X120157899Y-76195266D01*
X120140997Y-76202267D01*
X120118769Y-76211474D01*
X120074313Y-76229888D01*
X120064157Y-76236675D01*
X120064049Y-76236747D01*
X119971868Y-76298340D01*
X119928305Y-76341903D01*
X119884742Y-76385467D01*
X119122744Y-77147464D01*
X119122738Y-77147472D01*
X119088514Y-77198689D01*
X119088515Y-77198690D01*
X119054291Y-77249908D01*
X119054284Y-77249920D01*
X119036719Y-77292330D01*
X119036719Y-77292331D01*
X119007138Y-77363745D01*
X119007135Y-77363755D01*
X118983100Y-77484589D01*
X118983100Y-83068804D01*
X119005656Y-83182207D01*
X119007138Y-83189654D01*
X119007139Y-83189659D01*
X119054285Y-83303481D01*
X119054288Y-83303486D01*
X119074773Y-83334143D01*
X119122742Y-83405933D01*
X119209867Y-83493058D01*
X119209870Y-83493060D01*
X119217748Y-83500938D01*
X121867781Y-86150971D01*
X121901266Y-86212294D01*
X121904100Y-86238652D01*
X121904100Y-87105379D01*
X121884415Y-87172418D01*
X121883203Y-87174269D01*
X121845608Y-87230533D01*
X121845602Y-87230544D01*
X121785264Y-87376214D01*
X121785261Y-87376226D01*
X121754500Y-87530869D01*
X121754500Y-87688562D01*
X121785261Y-87843205D01*
X121785264Y-87843217D01*
X121845602Y-87988888D01*
X121845609Y-87988900D01*
X121908602Y-88083175D01*
X121929480Y-88149852D01*
X121929500Y-88152066D01*
X121929500Y-94485899D01*
X121909815Y-94552938D01*
X121857011Y-94598693D01*
X121787853Y-94608637D01*
X121736610Y-94589002D01*
X121664183Y-94540608D01*
X121664172Y-94540602D01*
X121518501Y-94480264D01*
X121518489Y-94480261D01*
X121363845Y-94449500D01*
X121363842Y-94449500D01*
X121206158Y-94449500D01*
X121206155Y-94449500D01*
X121051510Y-94480261D01*
X121051498Y-94480264D01*
X120905827Y-94540602D01*
X120905814Y-94540609D01*
X120774711Y-94628210D01*
X120774707Y-94628213D01*
X120663213Y-94739707D01*
X120663210Y-94739711D01*
X120575609Y-94870814D01*
X120575602Y-94870827D01*
X120515264Y-95016498D01*
X120515261Y-95016510D01*
X120484500Y-95171153D01*
X120484500Y-95328846D01*
X120515261Y-95483489D01*
X120515264Y-95483501D01*
X120575602Y-95629172D01*
X120575609Y-95629184D01*
X120638602Y-95723459D01*
X120659480Y-95790136D01*
X120659500Y-95792350D01*
X120659500Y-99363500D01*
X120639815Y-99430539D01*
X120587011Y-99476294D01*
X120535500Y-99487500D01*
X119701329Y-99487500D01*
X119701323Y-99487501D01*
X119641716Y-99493908D01*
X119506871Y-99544202D01*
X119506864Y-99544206D01*
X119391655Y-99630452D01*
X119391652Y-99630455D01*
X119305406Y-99745664D01*
X119305402Y-99745671D01*
X119255108Y-99880517D01*
X119248701Y-99940116D01*
X119248700Y-99940135D01*
X119248700Y-101735870D01*
X119248701Y-101735876D01*
X119255108Y-101795483D01*
X119305402Y-101930328D01*
X119305406Y-101930335D01*
X119391652Y-102045544D01*
X119391655Y-102045547D01*
X119506864Y-102131793D01*
X119506871Y-102131797D01*
X119641717Y-102182091D01*
X119641716Y-102182091D01*
X119648644Y-102182835D01*
X119701327Y-102188500D01*
X121497072Y-102188499D01*
X121556683Y-102182091D01*
X121691531Y-102131796D01*
X121806746Y-102045546D01*
X121892996Y-101930331D01*
X121942010Y-101798916D01*
X121983881Y-101742984D01*
X122049345Y-101718566D01*
X122117618Y-101733417D01*
X122145873Y-101754569D01*
X122259413Y-101868109D01*
X122431379Y-101993048D01*
X122431381Y-101993049D01*
X122431384Y-101993051D01*
X122620788Y-102089557D01*
X122822957Y-102155246D01*
X123032913Y-102188500D01*
X123032914Y-102188500D01*
X123245486Y-102188500D01*
X123245487Y-102188500D01*
X123455443Y-102155246D01*
X123657612Y-102089557D01*
X123847016Y-101993051D01*
X123875026Y-101972701D01*
X124018986Y-101868109D01*
X124018988Y-101868106D01*
X124018992Y-101868104D01*
X124169304Y-101717792D01*
X124169306Y-101717788D01*
X124169309Y-101717786D01*
X124294248Y-101545820D01*
X124294247Y-101545820D01*
X124294251Y-101545816D01*
X124390757Y-101356412D01*
X124456446Y-101154243D01*
X124489700Y-100944287D01*
X124489700Y-100731713D01*
X124456446Y-100521757D01*
X124390757Y-100319588D01*
X124294251Y-100130184D01*
X124294249Y-100130181D01*
X124294248Y-100130179D01*
X124169309Y-99958213D01*
X124018986Y-99807890D01*
X123847020Y-99682951D01*
X123657614Y-99586444D01*
X123657613Y-99586443D01*
X123657612Y-99586443D01*
X123455443Y-99520754D01*
X123455441Y-99520753D01*
X123455439Y-99520753D01*
X123285102Y-99493774D01*
X123221967Y-99463845D01*
X123185036Y-99404533D01*
X123180500Y-99371301D01*
X123180500Y-90058758D01*
X123200185Y-89991719D01*
X123252989Y-89945964D01*
X123322147Y-89936020D01*
X123328664Y-89937136D01*
X123398492Y-89951025D01*
X123415957Y-89954500D01*
X123415958Y-89954500D01*
X123573644Y-89954500D01*
X123573645Y-89954499D01*
X123728297Y-89923737D01*
X123840849Y-89877116D01*
X123910317Y-89869648D01*
X123972796Y-89900923D01*
X124008448Y-89961012D01*
X124012300Y-89991678D01*
X124012300Y-91017581D01*
X124002861Y-91065033D01*
X123944264Y-91206498D01*
X123944261Y-91206510D01*
X123913500Y-91361153D01*
X123913500Y-91518846D01*
X123944261Y-91673489D01*
X123944264Y-91673501D01*
X124004602Y-91819172D01*
X124004609Y-91819185D01*
X124092210Y-91950288D01*
X124092213Y-91950292D01*
X124203707Y-92061786D01*
X124203711Y-92061789D01*
X124334814Y-92149390D01*
X124334827Y-92149397D01*
X124480498Y-92209735D01*
X124480503Y-92209737D01*
X124635153Y-92240499D01*
X124635156Y-92240500D01*
X124635158Y-92240500D01*
X124792844Y-92240500D01*
X124792845Y-92240499D01*
X124947497Y-92209737D01*
X125093179Y-92149394D01*
X125224289Y-92061789D01*
X125335789Y-91950289D01*
X125423394Y-91819179D01*
X125483737Y-91673497D01*
X125514500Y-91518842D01*
X125514500Y-91361158D01*
X125514500Y-91361155D01*
X125514499Y-91361153D01*
X125483738Y-91206510D01*
X125483737Y-91206503D01*
X125444401Y-91111536D01*
X125423397Y-91060827D01*
X125423390Y-91060814D01*
X125335789Y-90929711D01*
X125335786Y-90929707D01*
X125299619Y-90893540D01*
X125266134Y-90832217D01*
X125263300Y-90805859D01*
X125263300Y-90429758D01*
X125282985Y-90362719D01*
X125335789Y-90316964D01*
X125404947Y-90307020D01*
X125411464Y-90308136D01*
X125481292Y-90322025D01*
X125498757Y-90325500D01*
X125498758Y-90325500D01*
X125656444Y-90325500D01*
X125656445Y-90325499D01*
X125811097Y-90294737D01*
X125923766Y-90248067D01*
X125956772Y-90234397D01*
X125956772Y-90234396D01*
X125956779Y-90234394D01*
X126021085Y-90191425D01*
X126087762Y-90170548D01*
X126155142Y-90189032D01*
X126177657Y-90206847D01*
X127809539Y-91838729D01*
X127809542Y-91838733D01*
X127896667Y-91925858D01*
X127953601Y-91963900D01*
X127999115Y-91994312D01*
X128052598Y-92016465D01*
X128112948Y-92041463D01*
X128173371Y-92053481D01*
X128233793Y-92065500D01*
X128233794Y-92065500D01*
X128274568Y-92065500D01*
X128282062Y-92066416D01*
X128307491Y-92077384D01*
X128334058Y-92085185D01*
X128339485Y-92091183D01*
X128346219Y-92094088D01*
X128358141Y-92111803D01*
X128377503Y-92133203D01*
X128384950Y-92147819D01*
X128509890Y-92319786D01*
X128660213Y-92470109D01*
X128832182Y-92595050D01*
X128840946Y-92599516D01*
X128891742Y-92647491D01*
X128908536Y-92715312D01*
X128885998Y-92781447D01*
X128840946Y-92820484D01*
X128832182Y-92824949D01*
X128660213Y-92949890D01*
X128509890Y-93100213D01*
X128384951Y-93272179D01*
X128288444Y-93461585D01*
X128222753Y-93663760D01*
X128189500Y-93873713D01*
X128189500Y-94086287D01*
X128222754Y-94296243D01*
X128284377Y-94485899D01*
X128288444Y-94498414D01*
X128384951Y-94687820D01*
X128509890Y-94859786D01*
X128660213Y-95010109D01*
X128832182Y-95135050D01*
X128840946Y-95139516D01*
X128891742Y-95187491D01*
X128908536Y-95255312D01*
X128885998Y-95321447D01*
X128840946Y-95360484D01*
X128832182Y-95364949D01*
X128660213Y-95489890D01*
X128509890Y-95640213D01*
X128384951Y-95812179D01*
X128288444Y-96001585D01*
X128222753Y-96203760D01*
X128189500Y-96413713D01*
X128189500Y-96626287D01*
X128222754Y-96836243D01*
X128250430Y-96921422D01*
X128288444Y-97038414D01*
X128384951Y-97227820D01*
X128509890Y-97399786D01*
X128660213Y-97550109D01*
X128832182Y-97675050D01*
X128840946Y-97679516D01*
X128891742Y-97727491D01*
X128908536Y-97795312D01*
X128885998Y-97861447D01*
X128840946Y-97900484D01*
X128832182Y-97904949D01*
X128660213Y-98029890D01*
X128509890Y-98180213D01*
X128384951Y-98352179D01*
X128288444Y-98541585D01*
X128222753Y-98743760D01*
X128189500Y-98953713D01*
X128189500Y-99166286D01*
X128220735Y-99363500D01*
X128222754Y-99376243D01*
X128277327Y-99544202D01*
X128288444Y-99578414D01*
X128384951Y-99767820D01*
X128509890Y-99939786D01*
X128660213Y-100090109D01*
X128832182Y-100215050D01*
X128840946Y-100219516D01*
X128891742Y-100267491D01*
X128908536Y-100335312D01*
X128885998Y-100401447D01*
X128840946Y-100440484D01*
X128832182Y-100444949D01*
X128660213Y-100569890D01*
X128509890Y-100720213D01*
X128384951Y-100892179D01*
X128288444Y-101081585D01*
X128222753Y-101283760D01*
X128211246Y-101356412D01*
X128189500Y-101493713D01*
X128189500Y-101706287D01*
X128222754Y-101916243D01*
X128279067Y-102089557D01*
X128288444Y-102118414D01*
X128384951Y-102307820D01*
X128509890Y-102479786D01*
X128660213Y-102630109D01*
X128832182Y-102755050D01*
X128840946Y-102759516D01*
X128891742Y-102807491D01*
X128908536Y-102875312D01*
X128885998Y-102941447D01*
X128840946Y-102980484D01*
X128832182Y-102984949D01*
X128660213Y-103109890D01*
X128509890Y-103260213D01*
X128384951Y-103432179D01*
X128288444Y-103621585D01*
X128222753Y-103823760D01*
X128189500Y-104033713D01*
X128189500Y-104246286D01*
X128222735Y-104456127D01*
X128222754Y-104456243D01*
X128250430Y-104541422D01*
X128288444Y-104658414D01*
X128384951Y-104847820D01*
X128509890Y-105019786D01*
X128660213Y-105170109D01*
X128832179Y-105295048D01*
X128832181Y-105295049D01*
X128832184Y-105295051D01*
X129021588Y-105391557D01*
X129216750Y-105454969D01*
X129274426Y-105494407D01*
X129301624Y-105558765D01*
X129289709Y-105627612D01*
X129242465Y-105679087D01*
X129178432Y-105696900D01*
X114659952Y-105696900D01*
X114592913Y-105677215D01*
X114547158Y-105624411D01*
X114537214Y-105555253D01*
X114566239Y-105491697D01*
X114621634Y-105454969D01*
X114818217Y-105391095D01*
X115007554Y-105294622D01*
X115061716Y-105255270D01*
X115061717Y-105255270D01*
X114429408Y-104622962D01*
X114492993Y-104605925D01*
X114607007Y-104540099D01*
X114700099Y-104447007D01*
X114765925Y-104332993D01*
X114782962Y-104269408D01*
X115415270Y-104901717D01*
X115415270Y-104901716D01*
X115454622Y-104847554D01*
X115551095Y-104658217D01*
X115616757Y-104456130D01*
X115616757Y-104456127D01*
X115650000Y-104246246D01*
X115650000Y-104033753D01*
X115616757Y-103823872D01*
X115616757Y-103823869D01*
X115551095Y-103621782D01*
X115454624Y-103432449D01*
X115415270Y-103378282D01*
X115415269Y-103378282D01*
X114782962Y-104010590D01*
X114765925Y-103947007D01*
X114700099Y-103832993D01*
X114607007Y-103739901D01*
X114492993Y-103674075D01*
X114429409Y-103657037D01*
X115061716Y-103024728D01*
X115007547Y-102985373D01*
X115007547Y-102985372D01*
X114998500Y-102980763D01*
X114947706Y-102932788D01*
X114930912Y-102864966D01*
X114953451Y-102798832D01*
X114998508Y-102759793D01*
X115007816Y-102755051D01*
X115087007Y-102697515D01*
X115179786Y-102630109D01*
X115179788Y-102630106D01*
X115179792Y-102630104D01*
X115330104Y-102479792D01*
X115330106Y-102479788D01*
X115330109Y-102479786D01*
X115455048Y-102307820D01*
X115455047Y-102307820D01*
X115455051Y-102307816D01*
X115551557Y-102118412D01*
X115617246Y-101916243D01*
X115650500Y-101706287D01*
X115650500Y-101493713D01*
X115617246Y-101283757D01*
X115551557Y-101081588D01*
X115455051Y-100892184D01*
X115455049Y-100892181D01*
X115455048Y-100892179D01*
X115330109Y-100720213D01*
X115179786Y-100569890D01*
X115007820Y-100444951D01*
X115007115Y-100444591D01*
X114999054Y-100440485D01*
X114948259Y-100392512D01*
X114931463Y-100324692D01*
X114953999Y-100258556D01*
X114999054Y-100219515D01*
X115007816Y-100215051D01*
X115029789Y-100199086D01*
X115179786Y-100090109D01*
X115179788Y-100090106D01*
X115179792Y-100090104D01*
X115330104Y-99939792D01*
X115330106Y-99939788D01*
X115330109Y-99939786D01*
X115455048Y-99767820D01*
X115455047Y-99767820D01*
X115455051Y-99767816D01*
X115551557Y-99578412D01*
X115617246Y-99376243D01*
X115650500Y-99166287D01*
X115650500Y-98953713D01*
X115617246Y-98743757D01*
X115551557Y-98541588D01*
X115455051Y-98352184D01*
X115455049Y-98352181D01*
X115455048Y-98352179D01*
X115330109Y-98180213D01*
X115179786Y-98029890D01*
X115007820Y-97904951D01*
X115007115Y-97904591D01*
X114999054Y-97900485D01*
X114948259Y-97852512D01*
X114931463Y-97784692D01*
X114953999Y-97718556D01*
X114999054Y-97679515D01*
X115007816Y-97675051D01*
X115029789Y-97659086D01*
X115179786Y-97550109D01*
X115179788Y-97550106D01*
X115179792Y-97550104D01*
X115330104Y-97399792D01*
X115330106Y-97399788D01*
X115330109Y-97399786D01*
X115455048Y-97227820D01*
X115455047Y-97227820D01*
X115455051Y-97227816D01*
X115551557Y-97038412D01*
X115617246Y-96836243D01*
X115650500Y-96626287D01*
X115650500Y-96413713D01*
X115617246Y-96203757D01*
X115551557Y-96001588D01*
X115455051Y-95812184D01*
X115455049Y-95812181D01*
X115455048Y-95812179D01*
X115330109Y-95640213D01*
X115179786Y-95489890D01*
X115007820Y-95364951D01*
X115007115Y-95364591D01*
X114999054Y-95360485D01*
X114948259Y-95312512D01*
X114931463Y-95244692D01*
X114953999Y-95178556D01*
X114999054Y-95139515D01*
X115007816Y-95135051D01*
X115029789Y-95119086D01*
X115179786Y-95010109D01*
X115179788Y-95010106D01*
X115179792Y-95010104D01*
X115330104Y-94859792D01*
X115330106Y-94859788D01*
X115330109Y-94859786D01*
X115455048Y-94687820D01*
X115455047Y-94687820D01*
X115455051Y-94687816D01*
X115551557Y-94498412D01*
X115617246Y-94296243D01*
X115650500Y-94086287D01*
X115650500Y-93873713D01*
X115617246Y-93663757D01*
X115551557Y-93461588D01*
X115455051Y-93272184D01*
X115455049Y-93272181D01*
X115455048Y-93272179D01*
X115330109Y-93100213D01*
X115179786Y-92949890D01*
X115007820Y-92824951D01*
X115007115Y-92824591D01*
X114999054Y-92820485D01*
X114948259Y-92772512D01*
X114931463Y-92704692D01*
X114953999Y-92638556D01*
X114999054Y-92599515D01*
X115007816Y-92595051D01*
X115029789Y-92579086D01*
X115179786Y-92470109D01*
X115179788Y-92470106D01*
X115179792Y-92470104D01*
X115330104Y-92319792D01*
X115330106Y-92319788D01*
X115330109Y-92319786D01*
X115453902Y-92149397D01*
X115455051Y-92147816D01*
X115551557Y-91958412D01*
X115617246Y-91756243D01*
X115650500Y-91546287D01*
X115650500Y-91333713D01*
X115617246Y-91123757D01*
X115551557Y-90921588D01*
X115455051Y-90732184D01*
X115455049Y-90732181D01*
X115455048Y-90732179D01*
X115330109Y-90560213D01*
X115179786Y-90409890D01*
X115007820Y-90284951D01*
X115007115Y-90284591D01*
X114999054Y-90280485D01*
X114948259Y-90232512D01*
X114931463Y-90164692D01*
X114953999Y-90098556D01*
X114999054Y-90059515D01*
X115007816Y-90055051D01*
X115095042Y-89991678D01*
X115179786Y-89930109D01*
X115179788Y-89930106D01*
X115179792Y-89930104D01*
X115330104Y-89779792D01*
X115330106Y-89779788D01*
X115330109Y-89779786D01*
X115453902Y-89609397D01*
X115455051Y-89607816D01*
X115551557Y-89418412D01*
X115617246Y-89216243D01*
X115650500Y-89006287D01*
X115650500Y-88793713D01*
X115617246Y-88583757D01*
X115551557Y-88381588D01*
X115455051Y-88192184D01*
X115455049Y-88192181D01*
X115455048Y-88192179D01*
X115330109Y-88020213D01*
X115179786Y-87869890D01*
X115007820Y-87744951D01*
X115007115Y-87744591D01*
X114999054Y-87740485D01*
X114948259Y-87692512D01*
X114931463Y-87624692D01*
X114953999Y-87558556D01*
X114999054Y-87519515D01*
X115007816Y-87515051D01*
X115068164Y-87471206D01*
X115179786Y-87390109D01*
X115179788Y-87390106D01*
X115179792Y-87390104D01*
X115330104Y-87239792D01*
X115330106Y-87239788D01*
X115330109Y-87239786D01*
X115455049Y-87067819D01*
X115462497Y-87053203D01*
X115510473Y-87002408D01*
X115572981Y-86985500D01*
X116910548Y-86985500D01*
X116977587Y-87005185D01*
X116998229Y-87021819D01*
X117575181Y-87598771D01*
X117608666Y-87660094D01*
X117611500Y-87686452D01*
X117611500Y-88357650D01*
X117591815Y-88424689D01*
X117590602Y-88426541D01*
X117527609Y-88520815D01*
X117527602Y-88520828D01*
X117467264Y-88666498D01*
X117467261Y-88666510D01*
X117436500Y-88821153D01*
X117436500Y-88978846D01*
X117467261Y-89133489D01*
X117467264Y-89133501D01*
X117527602Y-89279172D01*
X117527609Y-89279185D01*
X117615210Y-89410288D01*
X117615213Y-89410292D01*
X117726707Y-89521786D01*
X117726711Y-89521789D01*
X117857814Y-89609390D01*
X117857827Y-89609397D01*
X118003498Y-89669735D01*
X118003503Y-89669737D01*
X118158153Y-89700499D01*
X118158156Y-89700500D01*
X118158158Y-89700500D01*
X118315844Y-89700500D01*
X118315845Y-89700499D01*
X118470497Y-89669737D01*
X118616179Y-89609394D01*
X118747289Y-89521789D01*
X118858789Y-89410289D01*
X118946394Y-89279179D01*
X119006737Y-89133497D01*
X119037500Y-88978842D01*
X119037500Y-88821158D01*
X119037500Y-88821155D01*
X119037499Y-88821153D01*
X119006738Y-88666510D01*
X119006737Y-88666503D01*
X118961070Y-88556253D01*
X118946397Y-88520828D01*
X118946396Y-88520827D01*
X118946394Y-88520821D01*
X118883397Y-88426539D01*
X118862520Y-88359863D01*
X118862500Y-88357650D01*
X118862500Y-88067236D01*
X118882185Y-88000197D01*
X118934989Y-87954442D01*
X118962309Y-87945619D01*
X119105497Y-87917137D01*
X119251179Y-87856794D01*
X119382289Y-87769189D01*
X119493789Y-87657689D01*
X119581394Y-87526579D01*
X119641737Y-87380897D01*
X119672500Y-87226242D01*
X119672500Y-87068558D01*
X119672500Y-87068555D01*
X119672499Y-87068553D01*
X119659342Y-87002408D01*
X119641737Y-86913903D01*
X119627036Y-86878412D01*
X119581396Y-86768225D01*
X119578525Y-86762854D01*
X119580607Y-86761740D01*
X119562843Y-86705060D01*
X119581310Y-86637675D01*
X119583722Y-86633922D01*
X119632189Y-86561387D01*
X119632190Y-86561384D01*
X119632194Y-86561379D01*
X119692537Y-86415697D01*
X119723300Y-86261042D01*
X119723300Y-86103358D01*
X119723300Y-86103355D01*
X119723299Y-86103353D01*
X119711445Y-86043760D01*
X119692537Y-85948703D01*
X119648168Y-85841585D01*
X119632197Y-85803027D01*
X119632190Y-85803014D01*
X119544589Y-85671911D01*
X119544586Y-85671907D01*
X119433092Y-85560413D01*
X119433088Y-85560410D01*
X119301985Y-85472809D01*
X119301972Y-85472802D01*
X119156301Y-85412464D01*
X119156291Y-85412461D01*
X119013377Y-85384033D01*
X118951466Y-85351648D01*
X118949888Y-85350097D01*
X115563497Y-81963707D01*
X115530012Y-81902384D01*
X115534996Y-81832692D01*
X115540685Y-81819747D01*
X115551557Y-81798412D01*
X115617246Y-81596243D01*
X115650500Y-81386287D01*
X115650500Y-81173713D01*
X115617246Y-80963757D01*
X115551557Y-80761588D01*
X115455051Y-80572184D01*
X115455049Y-80572181D01*
X115455048Y-80572179D01*
X115330109Y-80400213D01*
X115179786Y-80249890D01*
X115007820Y-80124951D01*
X115007115Y-80124591D01*
X114999054Y-80120485D01*
X114948259Y-80072512D01*
X114931463Y-80004692D01*
X114953999Y-79938556D01*
X114999054Y-79899515D01*
X115007816Y-79895051D01*
X115029789Y-79879086D01*
X115179786Y-79770109D01*
X115179788Y-79770106D01*
X115179792Y-79770104D01*
X115330104Y-79619792D01*
X115330106Y-79619788D01*
X115330109Y-79619786D01*
X115455048Y-79447820D01*
X115455047Y-79447820D01*
X115455051Y-79447816D01*
X115551557Y-79258412D01*
X115617246Y-79056243D01*
X115650500Y-78846287D01*
X115650500Y-78633713D01*
X115617246Y-78423757D01*
X115551557Y-78221588D01*
X115455051Y-78032184D01*
X115455049Y-78032181D01*
X115455048Y-78032179D01*
X115330109Y-77860213D01*
X115216569Y-77746673D01*
X115183084Y-77685350D01*
X115188068Y-77615658D01*
X115229940Y-77559725D01*
X115260915Y-77542810D01*
X115392331Y-77493796D01*
X115507546Y-77407546D01*
X115593796Y-77292331D01*
X115644091Y-77157483D01*
X115650500Y-77097873D01*
X115650499Y-75302128D01*
X115644091Y-75242517D01*
X115620933Y-75180428D01*
X115593797Y-75107671D01*
X115593793Y-75107664D01*
X115507547Y-74992455D01*
X115507544Y-74992452D01*
X115392335Y-74906206D01*
X115392328Y-74906202D01*
X115257482Y-74855908D01*
X115257483Y-74855908D01*
X115197883Y-74849501D01*
X115197881Y-74849500D01*
X115197873Y-74849500D01*
X115197864Y-74849500D01*
X113402129Y-74849500D01*
X113402123Y-74849501D01*
X113342516Y-74855908D01*
X113207671Y-74906202D01*
X113207664Y-74906206D01*
X113092455Y-74992452D01*
X113092452Y-74992455D01*
X113006206Y-75107664D01*
X113001953Y-75115454D01*
X112999064Y-75113876D01*
X112966792Y-75156971D01*
X112901323Y-75181376D01*
X112833052Y-75166511D01*
X112783657Y-75117096D01*
X112768500Y-75057690D01*
X112768500Y-72674075D01*
X112788185Y-72607036D01*
X112804819Y-72586394D01*
X113734394Y-71656819D01*
X113795717Y-71623334D01*
X113822075Y-71620500D01*
X121988291Y-71620500D01*
X122055330Y-71640185D01*
G37*
%TD.AperFunction*%
%TA.AperFunction,Conductor*%
G36*
X112973703Y-101946027D02*
G01*
X113010429Y-102001420D01*
X113048443Y-102118412D01*
X113048444Y-102118414D01*
X113144951Y-102307820D01*
X113269890Y-102479786D01*
X113420213Y-102630109D01*
X113592179Y-102755048D01*
X113592181Y-102755049D01*
X113592184Y-102755051D01*
X113601493Y-102759794D01*
X113652290Y-102807766D01*
X113669087Y-102875587D01*
X113646552Y-102941722D01*
X113601505Y-102980760D01*
X113592446Y-102985376D01*
X113592440Y-102985380D01*
X113538282Y-103024727D01*
X113538282Y-103024728D01*
X114170591Y-103657037D01*
X114107007Y-103674075D01*
X113992993Y-103739901D01*
X113899901Y-103832993D01*
X113834075Y-103947007D01*
X113817037Y-104010591D01*
X113184728Y-103378282D01*
X113184727Y-103378282D01*
X113145380Y-103432439D01*
X113048904Y-103621783D01*
X113010431Y-103740192D01*
X112970994Y-103797868D01*
X112906635Y-103825066D01*
X112837789Y-103813151D01*
X112786313Y-103765907D01*
X112768500Y-103701874D01*
X112768500Y-102039740D01*
X112788185Y-101972701D01*
X112840989Y-101926946D01*
X112910147Y-101917002D01*
X112973703Y-101946027D01*
G37*
%TD.AperFunction*%
%TD*%
M02*
