%TF.GenerationSoftware,KiCad,Pcbnew,9.0.4*%
%TF.CreationDate,2025-11-22T21:52:34+13:00*%
%TF.ProjectId,2364replacement,32333634-7265-4706-9c61-63656d656e74,rev?*%
%TF.SameCoordinates,Original*%
%TF.FileFunction,Legend,Top*%
%TF.FilePolarity,Positive*%
%FSLAX46Y46*%
G04 Gerber Fmt 4.6, Leading zero omitted, Abs format (unit mm)*
G04 Created by KiCad (PCBNEW 9.0.4) date 2025-11-22 21:52:34*
%MOMM*%
%LPD*%
G01*
G04 APERTURE LIST*
%ADD10C,0.160000*%
%ADD11C,0.400000*%
%ADD12C,0.500000*%
%ADD13C,0.150000*%
%ADD14C,0.120000*%
G04 APERTURE END LIST*
D10*
X117285095Y-103838020D02*
X117285095Y-103038020D01*
X117285095Y-103038020D02*
X117589857Y-103038020D01*
X117589857Y-103038020D02*
X117666047Y-103076115D01*
X117666047Y-103076115D02*
X117704142Y-103114210D01*
X117704142Y-103114210D02*
X117742238Y-103190401D01*
X117742238Y-103190401D02*
X117742238Y-103304686D01*
X117742238Y-103304686D02*
X117704142Y-103380877D01*
X117704142Y-103380877D02*
X117666047Y-103418972D01*
X117666047Y-103418972D02*
X117589857Y-103457067D01*
X117589857Y-103457067D02*
X117285095Y-103457067D01*
X118542238Y-103838020D02*
X118275571Y-103457067D01*
X118085095Y-103838020D02*
X118085095Y-103038020D01*
X118085095Y-103038020D02*
X118389857Y-103038020D01*
X118389857Y-103038020D02*
X118466047Y-103076115D01*
X118466047Y-103076115D02*
X118504142Y-103114210D01*
X118504142Y-103114210D02*
X118542238Y-103190401D01*
X118542238Y-103190401D02*
X118542238Y-103304686D01*
X118542238Y-103304686D02*
X118504142Y-103380877D01*
X118504142Y-103380877D02*
X118466047Y-103418972D01*
X118466047Y-103418972D02*
X118389857Y-103457067D01*
X118389857Y-103457067D02*
X118085095Y-103457067D01*
X119037476Y-103038020D02*
X119189857Y-103038020D01*
X119189857Y-103038020D02*
X119266047Y-103076115D01*
X119266047Y-103076115D02*
X119342238Y-103152305D01*
X119342238Y-103152305D02*
X119380333Y-103304686D01*
X119380333Y-103304686D02*
X119380333Y-103571353D01*
X119380333Y-103571353D02*
X119342238Y-103723734D01*
X119342238Y-103723734D02*
X119266047Y-103799925D01*
X119266047Y-103799925D02*
X119189857Y-103838020D01*
X119189857Y-103838020D02*
X119037476Y-103838020D01*
X119037476Y-103838020D02*
X118961285Y-103799925D01*
X118961285Y-103799925D02*
X118885095Y-103723734D01*
X118885095Y-103723734D02*
X118846999Y-103571353D01*
X118846999Y-103571353D02*
X118846999Y-103304686D01*
X118846999Y-103304686D02*
X118885095Y-103152305D01*
X118885095Y-103152305D02*
X118961285Y-103076115D01*
X118961285Y-103076115D02*
X119037476Y-103038020D01*
X120142237Y-103076115D02*
X120066047Y-103038020D01*
X120066047Y-103038020D02*
X119951761Y-103038020D01*
X119951761Y-103038020D02*
X119837475Y-103076115D01*
X119837475Y-103076115D02*
X119761285Y-103152305D01*
X119761285Y-103152305D02*
X119723190Y-103228496D01*
X119723190Y-103228496D02*
X119685094Y-103380877D01*
X119685094Y-103380877D02*
X119685094Y-103495163D01*
X119685094Y-103495163D02*
X119723190Y-103647544D01*
X119723190Y-103647544D02*
X119761285Y-103723734D01*
X119761285Y-103723734D02*
X119837475Y-103799925D01*
X119837475Y-103799925D02*
X119951761Y-103838020D01*
X119951761Y-103838020D02*
X120027952Y-103838020D01*
X120027952Y-103838020D02*
X120142237Y-103799925D01*
X120142237Y-103799925D02*
X120180333Y-103761829D01*
X120180333Y-103761829D02*
X120180333Y-103495163D01*
X120180333Y-103495163D02*
X120027952Y-103495163D01*
X121361285Y-103038020D02*
X121361285Y-103609448D01*
X121361285Y-103609448D02*
X121323190Y-103723734D01*
X121323190Y-103723734D02*
X121246999Y-103799925D01*
X121246999Y-103799925D02*
X121132714Y-103838020D01*
X121132714Y-103838020D02*
X121056523Y-103838020D01*
X121742238Y-103038020D02*
X121742238Y-103685639D01*
X121742238Y-103685639D02*
X121780333Y-103761829D01*
X121780333Y-103761829D02*
X121818428Y-103799925D01*
X121818428Y-103799925D02*
X121894619Y-103838020D01*
X121894619Y-103838020D02*
X122047000Y-103838020D01*
X122047000Y-103838020D02*
X122123190Y-103799925D01*
X122123190Y-103799925D02*
X122161285Y-103761829D01*
X122161285Y-103761829D02*
X122199381Y-103685639D01*
X122199381Y-103685639D02*
X122199381Y-103038020D01*
X122580333Y-103838020D02*
X122580333Y-103038020D01*
X122580333Y-103038020D02*
X122846999Y-103609448D01*
X122846999Y-103609448D02*
X123113666Y-103038020D01*
X123113666Y-103038020D02*
X123113666Y-103838020D01*
X123494619Y-103838020D02*
X123494619Y-103038020D01*
X123494619Y-103038020D02*
X123799381Y-103038020D01*
X123799381Y-103038020D02*
X123875571Y-103076115D01*
X123875571Y-103076115D02*
X123913666Y-103114210D01*
X123913666Y-103114210D02*
X123951762Y-103190401D01*
X123951762Y-103190401D02*
X123951762Y-103304686D01*
X123951762Y-103304686D02*
X123913666Y-103380877D01*
X123913666Y-103380877D02*
X123875571Y-103418972D01*
X123875571Y-103418972D02*
X123799381Y-103457067D01*
X123799381Y-103457067D02*
X123494619Y-103457067D01*
X124294619Y-103418972D02*
X124561285Y-103418972D01*
X124675571Y-103838020D02*
X124294619Y-103838020D01*
X124294619Y-103838020D02*
X124294619Y-103038020D01*
X124294619Y-103038020D02*
X124675571Y-103038020D01*
X125475572Y-103838020D02*
X125208905Y-103457067D01*
X125018429Y-103838020D02*
X125018429Y-103038020D01*
X125018429Y-103038020D02*
X125323191Y-103038020D01*
X125323191Y-103038020D02*
X125399381Y-103076115D01*
X125399381Y-103076115D02*
X125437476Y-103114210D01*
X125437476Y-103114210D02*
X125475572Y-103190401D01*
X125475572Y-103190401D02*
X125475572Y-103304686D01*
X125475572Y-103304686D02*
X125437476Y-103380877D01*
X125437476Y-103380877D02*
X125399381Y-103418972D01*
X125399381Y-103418972D02*
X125323191Y-103457067D01*
X125323191Y-103457067D02*
X125018429Y-103457067D01*
X125780333Y-103799925D02*
X125894619Y-103838020D01*
X125894619Y-103838020D02*
X126085095Y-103838020D01*
X126085095Y-103838020D02*
X126161286Y-103799925D01*
X126161286Y-103799925D02*
X126199381Y-103761829D01*
X126199381Y-103761829D02*
X126237476Y-103685639D01*
X126237476Y-103685639D02*
X126237476Y-103609448D01*
X126237476Y-103609448D02*
X126199381Y-103533258D01*
X126199381Y-103533258D02*
X126161286Y-103495163D01*
X126161286Y-103495163D02*
X126085095Y-103457067D01*
X126085095Y-103457067D02*
X125932714Y-103418972D01*
X125932714Y-103418972D02*
X125856524Y-103380877D01*
X125856524Y-103380877D02*
X125818429Y-103342782D01*
X125818429Y-103342782D02*
X125780333Y-103266591D01*
X125780333Y-103266591D02*
X125780333Y-103190401D01*
X125780333Y-103190401D02*
X125818429Y-103114210D01*
X125818429Y-103114210D02*
X125856524Y-103076115D01*
X125856524Y-103076115D02*
X125932714Y-103038020D01*
X125932714Y-103038020D02*
X126123191Y-103038020D01*
X126123191Y-103038020D02*
X126237476Y-103076115D01*
X119742238Y-104325975D02*
X119894619Y-104325975D01*
X119894619Y-104325975D02*
X119970809Y-104364070D01*
X119970809Y-104364070D02*
X120047000Y-104440260D01*
X120047000Y-104440260D02*
X120085095Y-104592641D01*
X120085095Y-104592641D02*
X120085095Y-104859308D01*
X120085095Y-104859308D02*
X120047000Y-105011689D01*
X120047000Y-105011689D02*
X119970809Y-105087880D01*
X119970809Y-105087880D02*
X119894619Y-105125975D01*
X119894619Y-105125975D02*
X119742238Y-105125975D01*
X119742238Y-105125975D02*
X119666047Y-105087880D01*
X119666047Y-105087880D02*
X119589857Y-105011689D01*
X119589857Y-105011689D02*
X119551761Y-104859308D01*
X119551761Y-104859308D02*
X119551761Y-104592641D01*
X119551761Y-104592641D02*
X119589857Y-104440260D01*
X119589857Y-104440260D02*
X119666047Y-104364070D01*
X119666047Y-104364070D02*
X119742238Y-104325975D01*
X120427952Y-105125975D02*
X120427952Y-104325975D01*
X120427952Y-104325975D02*
X120885095Y-105125975D01*
X120885095Y-105125975D02*
X120885095Y-104325975D01*
X122332714Y-105125975D02*
X122066047Y-104745022D01*
X121875571Y-105125975D02*
X121875571Y-104325975D01*
X121875571Y-104325975D02*
X122180333Y-104325975D01*
X122180333Y-104325975D02*
X122256523Y-104364070D01*
X122256523Y-104364070D02*
X122294618Y-104402165D01*
X122294618Y-104402165D02*
X122332714Y-104478356D01*
X122332714Y-104478356D02*
X122332714Y-104592641D01*
X122332714Y-104592641D02*
X122294618Y-104668832D01*
X122294618Y-104668832D02*
X122256523Y-104706927D01*
X122256523Y-104706927D02*
X122180333Y-104745022D01*
X122180333Y-104745022D02*
X121875571Y-104745022D01*
X122675571Y-104706927D02*
X122942237Y-104706927D01*
X123056523Y-105125975D02*
X122675571Y-105125975D01*
X122675571Y-105125975D02*
X122675571Y-104325975D01*
X122675571Y-104325975D02*
X123056523Y-104325975D01*
X123361285Y-104897403D02*
X123742238Y-104897403D01*
X123285095Y-105125975D02*
X123551762Y-104325975D01*
X123551762Y-104325975D02*
X123818428Y-105125975D01*
X124542238Y-105125975D02*
X124275571Y-104745022D01*
X124085095Y-105125975D02*
X124085095Y-104325975D01*
X124085095Y-104325975D02*
X124389857Y-104325975D01*
X124389857Y-104325975D02*
X124466047Y-104364070D01*
X124466047Y-104364070D02*
X124504142Y-104402165D01*
X124504142Y-104402165D02*
X124542238Y-104478356D01*
X124542238Y-104478356D02*
X124542238Y-104592641D01*
X124542238Y-104592641D02*
X124504142Y-104668832D01*
X124504142Y-104668832D02*
X124466047Y-104706927D01*
X124466047Y-104706927D02*
X124389857Y-104745022D01*
X124389857Y-104745022D02*
X124085095Y-104745022D01*
D11*
X126348614Y-100845619D02*
X126634328Y-100940857D01*
X126634328Y-100940857D02*
X126729566Y-101036095D01*
X126729566Y-101036095D02*
X126824804Y-101226571D01*
X126824804Y-101226571D02*
X126824804Y-101512285D01*
X126824804Y-101512285D02*
X126729566Y-101702761D01*
X126729566Y-101702761D02*
X126634328Y-101798000D01*
X126634328Y-101798000D02*
X126443852Y-101893238D01*
X126443852Y-101893238D02*
X125681947Y-101893238D01*
X125681947Y-101893238D02*
X125681947Y-99893238D01*
X125681947Y-99893238D02*
X126348614Y-99893238D01*
X126348614Y-99893238D02*
X126539090Y-99988476D01*
X126539090Y-99988476D02*
X126634328Y-100083714D01*
X126634328Y-100083714D02*
X126729566Y-100274190D01*
X126729566Y-100274190D02*
X126729566Y-100464666D01*
X126729566Y-100464666D02*
X126634328Y-100655142D01*
X126634328Y-100655142D02*
X126539090Y-100750380D01*
X126539090Y-100750380D02*
X126348614Y-100845619D01*
X126348614Y-100845619D02*
X125681947Y-100845619D01*
X114740766Y-73800838D02*
X113597909Y-73800838D01*
X114169337Y-73800838D02*
X114169337Y-71800838D01*
X114169337Y-71800838D02*
X113978861Y-72086552D01*
X113978861Y-72086552D02*
X113788385Y-72277028D01*
X113788385Y-72277028D02*
X113597909Y-72372266D01*
X117052309Y-101169409D02*
X118004690Y-101169409D01*
X116861833Y-101740838D02*
X117528499Y-99740838D01*
X117528499Y-99740838D02*
X118195166Y-101740838D01*
D12*
X118743699Y-72138514D02*
X118838937Y-72043276D01*
X118838937Y-72043276D02*
X119029413Y-71948038D01*
X119029413Y-71948038D02*
X119505604Y-71948038D01*
X119505604Y-71948038D02*
X119696080Y-72043276D01*
X119696080Y-72043276D02*
X119791318Y-72138514D01*
X119791318Y-72138514D02*
X119886556Y-72328990D01*
X119886556Y-72328990D02*
X119886556Y-72519466D01*
X119886556Y-72519466D02*
X119791318Y-72805180D01*
X119791318Y-72805180D02*
X118648461Y-73948038D01*
X118648461Y-73948038D02*
X119886556Y-73948038D01*
X120553223Y-71948038D02*
X121791318Y-71948038D01*
X121791318Y-71948038D02*
X121124651Y-72709942D01*
X121124651Y-72709942D02*
X121410366Y-72709942D01*
X121410366Y-72709942D02*
X121600842Y-72805180D01*
X121600842Y-72805180D02*
X121696080Y-72900419D01*
X121696080Y-72900419D02*
X121791318Y-73090895D01*
X121791318Y-73090895D02*
X121791318Y-73567085D01*
X121791318Y-73567085D02*
X121696080Y-73757561D01*
X121696080Y-73757561D02*
X121600842Y-73852800D01*
X121600842Y-73852800D02*
X121410366Y-73948038D01*
X121410366Y-73948038D02*
X120838937Y-73948038D01*
X120838937Y-73948038D02*
X120648461Y-73852800D01*
X120648461Y-73852800D02*
X120553223Y-73757561D01*
X123505604Y-71948038D02*
X123124651Y-71948038D01*
X123124651Y-71948038D02*
X122934175Y-72043276D01*
X122934175Y-72043276D02*
X122838937Y-72138514D01*
X122838937Y-72138514D02*
X122648461Y-72424228D01*
X122648461Y-72424228D02*
X122553223Y-72805180D01*
X122553223Y-72805180D02*
X122553223Y-73567085D01*
X122553223Y-73567085D02*
X122648461Y-73757561D01*
X122648461Y-73757561D02*
X122743699Y-73852800D01*
X122743699Y-73852800D02*
X122934175Y-73948038D01*
X122934175Y-73948038D02*
X123315128Y-73948038D01*
X123315128Y-73948038D02*
X123505604Y-73852800D01*
X123505604Y-73852800D02*
X123600842Y-73757561D01*
X123600842Y-73757561D02*
X123696080Y-73567085D01*
X123696080Y-73567085D02*
X123696080Y-73090895D01*
X123696080Y-73090895D02*
X123600842Y-72900419D01*
X123600842Y-72900419D02*
X123505604Y-72805180D01*
X123505604Y-72805180D02*
X123315128Y-72709942D01*
X123315128Y-72709942D02*
X122934175Y-72709942D01*
X122934175Y-72709942D02*
X122743699Y-72805180D01*
X122743699Y-72805180D02*
X122648461Y-72900419D01*
X122648461Y-72900419D02*
X122553223Y-73090895D01*
X125410366Y-72614704D02*
X125410366Y-73948038D01*
X124934175Y-71852800D02*
X124457985Y-73281371D01*
X124457985Y-73281371D02*
X125696080Y-73281371D01*
D13*
X119195867Y-77527495D02*
X118929200Y-77146542D01*
X118738724Y-77527495D02*
X118738724Y-76727495D01*
X118738724Y-76727495D02*
X119043486Y-76727495D01*
X119043486Y-76727495D02*
X119119676Y-76765590D01*
X119119676Y-76765590D02*
X119157771Y-76803685D01*
X119157771Y-76803685D02*
X119195867Y-76879876D01*
X119195867Y-76879876D02*
X119195867Y-76994161D01*
X119195867Y-76994161D02*
X119157771Y-77070352D01*
X119157771Y-77070352D02*
X119119676Y-77108447D01*
X119119676Y-77108447D02*
X119043486Y-77146542D01*
X119043486Y-77146542D02*
X118738724Y-77146542D01*
X119957771Y-77527495D02*
X119500628Y-77527495D01*
X119729200Y-77527495D02*
X119729200Y-76727495D01*
X119729200Y-76727495D02*
X119653009Y-76841780D01*
X119653009Y-76841780D02*
X119576819Y-76917971D01*
X119576819Y-76917971D02*
X119500628Y-76956066D01*
X118726028Y-75851161D02*
X118726028Y-76384495D01*
X118535552Y-75546400D02*
X118345075Y-76117828D01*
X118345075Y-76117828D02*
X118840314Y-76117828D01*
X119145076Y-76384495D02*
X119145076Y-75584495D01*
X119602219Y-76384495D02*
X119259361Y-75927352D01*
X119602219Y-75584495D02*
X119145076Y-76041638D01*
X119868885Y-75584495D02*
X120402219Y-75584495D01*
X120402219Y-75584495D02*
X120059361Y-76384495D01*
X121539095Y-81014219D02*
X121539095Y-81823742D01*
X121539095Y-81823742D02*
X121586714Y-81918980D01*
X121586714Y-81918980D02*
X121634333Y-81966600D01*
X121634333Y-81966600D02*
X121729571Y-82014219D01*
X121729571Y-82014219D02*
X121920047Y-82014219D01*
X121920047Y-82014219D02*
X122015285Y-81966600D01*
X122015285Y-81966600D02*
X122062904Y-81918980D01*
X122062904Y-81918980D02*
X122110523Y-81823742D01*
X122110523Y-81823742D02*
X122110523Y-81014219D01*
X123110523Y-82014219D02*
X122539095Y-82014219D01*
X122824809Y-82014219D02*
X122824809Y-81014219D01*
X122824809Y-81014219D02*
X122729571Y-81157076D01*
X122729571Y-81157076D02*
X122634333Y-81252314D01*
X122634333Y-81252314D02*
X122539095Y-81299933D01*
D14*
%TO.C,R1*%
X122502664Y-77366800D02*
X122048536Y-77366800D01*
X122502664Y-75896800D02*
X122048536Y-75896800D01*
%TO.C,J3*%
X112920000Y-74820000D02*
X114300000Y-74820000D01*
X112920000Y-76200000D02*
X112920000Y-74820000D01*
X112920000Y-77470000D02*
X112920000Y-105520000D01*
X112920000Y-77470000D02*
X115680000Y-77470000D01*
X112920000Y-105520000D02*
X115680000Y-105520000D01*
X115680000Y-77470000D02*
X115680000Y-105520000D01*
%TO.C,J1*%
X119219200Y-102218000D02*
X119219200Y-100838000D01*
X120599200Y-102218000D02*
X119219200Y-102218000D01*
X121869200Y-99458000D02*
X124519200Y-99458000D01*
X121869200Y-102218000D02*
X121869200Y-99458000D01*
X121869200Y-102218000D02*
X124519200Y-102218000D01*
X124519200Y-102218000D02*
X124519200Y-99458000D01*
%TO.C,J2*%
X128160000Y-74820000D02*
X129540000Y-74820000D01*
X128160000Y-76200000D02*
X128160000Y-74820000D01*
X128160000Y-77470000D02*
X128160000Y-105520000D01*
X128160000Y-77470000D02*
X130920000Y-77470000D01*
X128160000Y-105520000D02*
X130920000Y-105520000D01*
X130920000Y-77470000D02*
X130920000Y-105520000D01*
%TO.C,U1*%
X116095000Y-84247218D02*
X116095000Y-84530000D01*
X116095000Y-97265000D02*
X116095000Y-95810000D01*
X117267218Y-83075000D02*
X116095000Y-84247218D01*
X117550000Y-83075000D02*
X117267218Y-83075000D01*
X117550000Y-97265000D02*
X116095000Y-97265000D01*
X126290000Y-83075000D02*
X127745000Y-83075000D01*
X126290000Y-97265000D02*
X127745000Y-97265000D01*
X127745000Y-83075000D02*
X127745000Y-84530000D01*
X127745000Y-97265000D02*
X127745000Y-95810000D01*
%TD*%
M02*
