%TF.GenerationSoftware,KiCad,Pcbnew,9.0.4*%
%TF.CreationDate,2025-11-22T21:52:34+13:00*%
%TF.ProjectId,2364replacement,32333634-7265-4706-9c61-63656d656e74,rev?*%
%TF.SameCoordinates,Original*%
%TF.FileFunction,Soldermask,Top*%
%TF.FilePolarity,Negative*%
%FSLAX46Y46*%
G04 Gerber Fmt 4.6, Leading zero omitted, Abs format (unit mm)*
G04 Created by KiCad (PCBNEW 9.0.4) date 2025-11-22 21:52:34*
%MOMM*%
%LPD*%
G01*
G04 APERTURE LIST*
G04 Aperture macros list*
%AMRoundRect*
0 Rectangle with rounded corners*
0 $1 Rounding radius*
0 $2 $3 $4 $5 $6 $7 $8 $9 X,Y pos of 4 corners*
0 Add a 4 corners polygon primitive as box body*
4,1,4,$2,$3,$4,$5,$6,$7,$8,$9,$2,$3,0*
0 Add four circle primitives for the rounded corners*
1,1,$1+$1,$2,$3*
1,1,$1+$1,$4,$5*
1,1,$1+$1,$6,$7*
1,1,$1+$1,$8,$9*
0 Add four rect primitives between the rounded corners*
20,1,$1+$1,$2,$3,$4,$5,0*
20,1,$1+$1,$4,$5,$6,$7,0*
20,1,$1+$1,$6,$7,$8,$9,0*
20,1,$1+$1,$8,$9,$2,$3,0*%
G04 Aperture macros list end*
%ADD10RoundRect,0.250000X0.350000X0.450000X-0.350000X0.450000X-0.350000X-0.450000X0.350000X-0.450000X0*%
%ADD11R,1.700000X1.700000*%
%ADD12C,1.700000*%
%ADD13RoundRect,0.150000X-0.150000X-0.587500X0.150000X-0.587500X0.150000X0.587500X-0.150000X0.587500X0*%
%ADD14RoundRect,0.150000X-0.587500X-0.150000X0.587500X-0.150000X0.587500X0.150000X-0.587500X0.150000X0*%
G04 APERTURE END LIST*
D10*
%TO.C,R1*%
X123275600Y-76631800D03*
X121275600Y-76631800D03*
%TD*%
D11*
%TO.C,J3*%
X114300000Y-76200000D03*
D12*
X114300000Y-78740000D03*
X114300000Y-81280000D03*
X114300000Y-83820000D03*
X114300000Y-86360000D03*
X114300000Y-88900000D03*
X114300000Y-91440000D03*
X114300000Y-93980000D03*
X114300000Y-96520000D03*
X114300000Y-99060000D03*
X114300000Y-101600000D03*
X114300000Y-104140000D03*
%TD*%
D11*
%TO.C,J1*%
X120599200Y-100838000D03*
D12*
X123139200Y-100838000D03*
%TD*%
D11*
%TO.C,J2*%
X129540000Y-76200000D03*
D12*
X129540000Y-78740000D03*
X129540000Y-81280000D03*
X129540000Y-83820000D03*
X129540000Y-86360000D03*
X129540000Y-88900000D03*
X129540000Y-91440000D03*
X129540000Y-93980000D03*
X129540000Y-96520000D03*
X129540000Y-99060000D03*
X129540000Y-101600000D03*
X129540000Y-104140000D03*
%TD*%
D13*
%TO.C,U1*%
X121920000Y-83332500D03*
X120650000Y-83332500D03*
X119380000Y-83332500D03*
X118110000Y-83332500D03*
D14*
X116357500Y-85090000D03*
X116357500Y-86360000D03*
X116357500Y-87630000D03*
X116357500Y-88900000D03*
X116357500Y-90170000D03*
X116357500Y-91440000D03*
X116357500Y-92710000D03*
X116357500Y-93980000D03*
X116357500Y-95250000D03*
D13*
X118110000Y-97007500D03*
X119380000Y-97007500D03*
X120650000Y-97007500D03*
X121920000Y-97007500D03*
X123190000Y-97007500D03*
X124460000Y-97007500D03*
X125730000Y-97007500D03*
D14*
X127482500Y-95250000D03*
X127482500Y-93980000D03*
X127482500Y-92710000D03*
X127482500Y-91440000D03*
X127482500Y-90170000D03*
X127482500Y-88900000D03*
X127482500Y-87630000D03*
X127482500Y-86360000D03*
X127482500Y-85090000D03*
D13*
X125730000Y-83332500D03*
X124460000Y-83332500D03*
X123190000Y-83332500D03*
%TD*%
M02*
